<?xml version="1.0" encoding="utf-8"?>
<!-- Generator: Adobe Illustrator 17.0.0, SVG Export Plug-In . SVG Version: 6.00 Build 0)  -->
<!DOCTYPE svg PUBLIC "-//W3C//DTD SVG 1.1//EN" "http://www.w3.org/Graphics/SVG/1.1/DTD/svg11.dtd">
<svg version="1.1" id="Layer_1" xmlns="http://www.w3.org/2000/svg" xmlns:xlink="http://www.w3.org/1999/xlink" x="0px" y="0px"
	 width="386.25px" height="34.25px" viewBox="0 0 386.25 34.25" enable-background="new 0 0 386.25 34.25" xml:space="preserve">
<image display="none" overflow="visible" width="304" height="34" xlink:href="670507981B651A63.png"  transform="matrix(1 0 0 1 97.25 0)">
</image>
<g>
	<path d="M384.25,29.07h-83.694V4.658h83.694V29.07z"/>
	<path fill="#FFDE38" d="M330.229,9.324c-1.969,0-3.092,0.797-3.092,2.197c0,0.868,0.363,1.496,1.399,1.804l1.89,0.552
		c0.252,0.075,0.454,0.215,0.454,0.466c0,0.299-0.258,0.552-0.65,0.552c-0.252,0-0.412-0.09-0.515-0.221
		c-0.103-0.14-0.147-0.329-0.147-0.515h-2.553c0,1.754,1.493,2.258,3.117,2.258c1.904,0,3.24-0.692,3.24-2.344
		c0-0.812-0.366-1.413-1.215-1.767c-0.681-0.289-1.622-0.477-2.135-0.626c-0.28-0.084-0.442-0.187-0.442-0.43
		c0-0.206,0.184-0.393,0.614-0.393c0.345,0,0.58,0.144,0.589,0.565h2.393C333.175,9.855,331.909,9.324,330.229,9.324z M367.02,9.373
		v14.959h0.847V9.373H367.02z M375.549,9.422c-0.498,0-0.908,0.403-0.908,0.896c0,0.498,0.41,0.896,0.908,0.896
		c0.495,0,0.896-0.398,0.896-0.896C376.445,9.825,376.045,9.422,375.549,9.422z M308.508,9.508l1.46,6.737h2.896l0.626-4.369h0.012
		l0.626,4.369h2.896l1.46-6.737h-2.393l-0.565,4.234h-0.025l-0.626-4.234h-2.761l-0.626,4.234h-0.012l-0.577-4.234H308.508z
		 M320.117,9.508v6.737h5.203v-1.755h-2.651V13.73h2.368v-1.755h-2.368v-0.712h2.565V9.508H320.117z M334.893,9.508v1.804h1.669
		v4.933h2.663v-4.933h1.669V9.508H334.893z M342.698,9.508v6.737h5.216v-1.755h-2.651V13.73h2.368v-1.755h-2.368v-0.712h2.565V9.508
		H342.698z M349.889,9.508v6.737h2.614V13.84h0.307c0.429,0,0.594,0.131,0.65,0.466c0.093,0.579,0.173,1.435,0.331,1.939h2.614
		c-0.308-1.018-0.28-1.974-0.43-2.553c-0.131-0.513-0.488-0.803-1.141-0.859v-0.012c1.008-0.243,1.338-0.833,1.338-1.608
		c0-1.269-0.848-1.706-2.295-1.706H349.889z M358.271,9.508v6.737h2.16v-4.111h0.025l1.424,4.111h3.203V9.508h-2.172v4.074h-0.012
		l-1.424-4.074H358.271z M373.058,9.508v14.8h0.847v-14.8H373.058z M375.549,9.533c0.436,0,0.749,0.35,0.749,0.785
		c0,0.441-0.313,0.773-0.749,0.773c-0.438,0-0.761-0.332-0.761-0.773C374.788,9.882,375.111,9.533,375.549,9.533z M375.218,9.815
		v1.006h0.123v-0.466h0.221l0.282,0.466h0.147l-0.295-0.466c0.178-0.005,0.307-0.073,0.307-0.27c0-0.165-0.09-0.27-0.356-0.27
		H375.218z M375.341,9.901h0.282c0.123,0,0.245,0.016,0.245,0.172c0,0.204-0.202,0.184-0.344,0.184h-0.184V9.901z M352.503,11.042
		h0.245c0.523,0,0.859,0.095,0.859,0.589c0,0.504-0.37,0.687-0.884,0.687h-0.221V11.042z M352.773,17.387
		c-2.324,0-3.485,1.447-3.485,3.547c0,2.1,1.161,3.547,3.485,3.547s3.473-1.447,3.473-3.547
		C356.246,18.834,355.097,17.387,352.773,17.387z M326.916,17.559v4.479c0,1.624,1.168,2.442,3.203,2.442
		c2.034,0,3.203-0.818,3.203-2.442v-4.479h-2.675v4.369c0,0.532-0.248,0.736-0.528,0.736c-0.28,0-0.528-0.205-0.528-0.736v-4.369
		H326.916z M335.531,17.559v6.737h2.172v-4.099h0.012l1.424,4.099h3.203v-6.737h-2.16v4.087h-0.025l-1.424-4.087H335.531z
		 M344.6,17.559v6.737h2.675v-6.737H344.6z M358.271,17.559v6.737h2.16v-4.099h0.025l1.424,4.099h3.203v-6.737h-2.172v4.087h-0.012
		l-1.424-4.087H358.271z M352.773,19.142c0.43,0,0.712,0.271,0.712,1.792c0,1.559-0.301,1.792-0.712,1.792
		c-0.41,0-0.724-0.233-0.724-1.792C352.049,19.413,352.344,19.142,352.773,19.142z"/>
</g>
<g>
	<g>
		<g>
			<defs>
				<polyline id="SVGID_1_" points="138.173,1.027 138.173,33.239 170.386,33.239 170.386,1.027 				"/>
			</defs>
			<clipPath id="SVGID_2_">
				<use xlink:href="#SVGID_1_"  overflow="visible"/>
			</clipPath>
			<g clip-path="url(#SVGID_2_)">
				<defs>
					<polyline id="SVGID_3_" points="138.173,33.24 138.173,1.005 170.483,1.005 170.483,33.24 138.173,33.24 					"/>
				</defs>
				<clipPath id="SVGID_4_">
					<use xlink:href="#SVGID_3_"  overflow="visible"/>
				</clipPath>
				<g clip-path="url(#SVGID_4_)">
					<defs>
						<path id="SVGID_5_" d="M170.292,1.005h-32.119V33.24h32.119v-10.64c0.128-0.184,0.191-0.422,0.191-0.71
							c0-0.328-0.063-0.532-0.191-0.704V1.005"/>
					</defs>
					<clipPath id="SVGID_6_">
						<use xlink:href="#SVGID_5_"  overflow="visible"/>
					</clipPath>
					<g clip-path="url(#SVGID_6_)">
						<defs>
							<rect id="SVGID_7_" x="138.147" y="1" width="32.266" height="32.266"/>
						</defs>
						<clipPath id="SVGID_8_">
							<use xlink:href="#SVGID_7_"  overflow="visible"/>
						</clipPath>
						<g clip-path="url(#SVGID_8_)">
							
								<image overflow="visible" width="75" height="75" xlink:href="670507981B651A61.jpg"  transform="matrix(0.4302 0 0 0.4302 138.147 1)">
							</image>
						</g>
					</g>
				</g>
			</g>
		</g>
		<path fill="#FFFFFF" d="M141.07,14.951l-0.618-1.503l-0.615,1.503H141.07 M154.68,14.355c-0.123,0.07-0.27,0.077-0.447,0.077
			h-1.097v-0.839h1.114c0.157,0,0.323,0.005,0.429,0.065c0.117,0.058,0.189,0.175,0.189,0.333
			C154.867,14.158,154.797,14.289,154.68,14.355z M162.502,14.951l-0.625-1.503l-0.618,1.503H162.502z M147.92,16.581h-0.924
			l-0.005-2.954l-1.308,2.954h-0.791l-1.316-2.961v2.961h-1.836l-0.345-0.842h-1.88l-0.349,0.842h-0.98l1.613-3.777h1.343
			l1.534,3.578v-3.578h1.475l1.181,2.564l1.086-2.564h1.502V16.581z M151.608,16.581h-3.015v-3.777h3.015v0.79h-2.111v0.678h2.061
			v0.776l-2.061-0.003v0.755h2.111V16.581z M155.862,13.824c0,0.597-0.402,0.912-0.636,1.005c0.198,0.077,0.366,0.205,0.445,0.319
			c0.126,0.184,0.151,0.357,0.151,0.688v0.743h-0.91l-0.004-0.476c0-0.223,0.022-0.551-0.146-0.732
			c-0.132-0.135-0.33-0.163-0.656-0.163h-0.971v1.37h-0.9v-3.777h2.076c0.459,0,0.8,0.016,1.094,0.184
			C155.69,13.155,155.862,13.402,155.862,13.824z M157.307,16.581h-0.921v-3.776h0.921V16.581z M167.991,16.581h-1.279L165,13.75
			l0.002,2.831h-1.836l-0.353-0.842h-1.878l-0.339,0.842h-1.056c-0.44,0-0.997-0.098-1.308-0.415
			c-0.321-0.324-0.483-0.756-0.483-1.444c0-0.561,0.099-1.071,0.487-1.475c0.292-0.302,0.75-0.442,1.371-0.442h0.872v0.809h-0.854
			c-0.33,0-0.517,0.05-0.697,0.226c-0.151,0.159-0.258,0.46-0.258,0.856c0,0.405,0.079,0.694,0.249,0.886
			c0.137,0.149,0.391,0.194,0.629,0.194h0.405l1.272-2.971h1.351l1.528,3.573v-3.573h1.377l1.588,2.631v-2.631h0.923V16.581z
			 M138.173,17.325h1.543l0.348-0.842h0.779l0.346,0.842h3.036v-0.643l0.271,0.645h1.574l0.27-0.651v0.65h7.542l-0.004-1.377h0.146
			c0.104,0.002,0.133,0.013,0.133,0.182v1.195h3.898v-0.322c0.315,0.17,0.807,0.322,1.447,0.322h1.644l0.351-0.842h0.779
			l0.344,0.842h3.163v-0.798l0.478,0.798h2.534v-5.268h-2.508v0.623l-0.35-0.623h-2.573v0.623l-0.323-0.623h-3.476
			c-0.58,0-1.096,0.08-1.508,0.307v-0.307h-2.395v0.307c-0.267-0.234-0.625-0.307-1.02-0.307h-8.765l-0.59,1.361l-0.6-1.361h-2.761
			v0.623l-0.306-0.623h-2.353l-1.093,2.502V17.325z"/>
		<path fill="#FFFFFF" d="M170.292,20.109h-1.649c-0.164,0-0.274,0.006-0.362,0.068c-0.096,0.061-0.133,0.153-0.133,0.272
			c0,0.142,0.081,0.24,0.198,0.281c0.094,0.033,0.196,0.042,0.348,0.043l0.488,0.013c0.494,0.013,0.824,0.097,1.027,0.302
			c0.032,0.03,0.056,0.064,0.083,0.096V20.109 M170.292,22.599c-0.222,0.323-0.649,0.485-1.227,0.485h-1.744v-0.812h1.737
			c0.171,0,0.292-0.023,0.366-0.095c0.061-0.055,0.108-0.14,0.108-0.244c0-0.11-0.047-0.2-0.11-0.25
			c-0.067-0.059-0.162-0.083-0.319-0.085c-0.847-0.029-1.903,0.026-1.903-1.17c0-0.546,0.348-1.124,1.292-1.124h1.8v-0.751h-1.672
			c-0.505,0-0.87,0.121-1.13,0.309v-0.309h-2.472c-0.393,0-0.856,0.099-1.078,0.309l0.002-0.309h-4.415v0.309
			c-0.351-0.252-0.943-0.309-1.218-0.309h-2.907v0.309c-0.281-0.268-0.896-0.309-1.272-0.309h-3.26l-0.746,0.809l-0.697-0.809
			h-4.866v5.273h4.775l0.769-0.82l0.724,0.82l2.941,0.002v-1.241h0.292c0.387,0.005,0.851-0.01,1.256-0.184v1.423h2.427v-1.376
			h0.117c0.151,0,0.164,0.008,0.164,0.156v1.22h7.376c0.467,0,0.955-0.121,1.227-0.338v0.338h2.339c0.487,0,0.962-0.068,1.324-0.243
			V22.599z M166.688,21.089c0.178,0.183,0.272,0.414,0.272,0.8c0,0.815-0.51,1.195-1.418,1.195h-1.759v-0.812h1.752
			c0.173,0,0.292-0.023,0.369-0.095c0.059-0.055,0.106-0.14,0.106-0.244c0-0.11-0.049-0.2-0.112-0.25
			c-0.068-0.059-0.164-0.083-0.321-0.085c-0.843-0.029-1.901,0.026-1.901-1.17c0-0.546,0.344-1.124,1.29-1.124h1.811v0.805h-1.654
			c-0.168,0-0.274,0.006-0.364,0.068c-0.099,0.061-0.135,0.153-0.135,0.272c0,0.142,0.085,0.24,0.198,0.281
			c0.094,0.033,0.195,0.042,0.35,0.043l0.487,0.013C166.149,20.801,166.485,20.885,166.688,21.089z M158.543,20.859
			c-0.119,0.069-0.268,0.077-0.443,0.077h-1.097v-0.848h1.112c0.16,0,0.323,0.004,0.429,0.066c0.117,0.063,0.186,0.178,0.186,0.341
			C158.729,20.656,158.66,20.787,158.543,20.859z M159.089,21.327c0.2,0.074,0.364,0.206,0.441,0.318
			c0.128,0.186,0.15,0.356,0.15,0.69v0.749h-0.905v-0.475c0-0.227,0.022-0.562-0.146-0.737c-0.132-0.139-0.333-0.169-0.661-0.169
			h-0.966v1.381h-0.907v-3.78h2.083c0.46,0,0.791,0.02,1.087,0.181c0.285,0.169,0.463,0.409,0.463,0.839
			C159.729,20.924,159.327,21.232,159.089,21.327z M160.23,19.304h3.015v0.784h-2.116v0.685h2.063v0.77h-2.063v0.752l2.116,0.004
			v0.786h-3.015V19.304z M154.141,21.048h-1.169v-0.96h1.178c0.328,0,0.551,0.131,0.551,0.463
			C154.701,20.878,154.487,21.048,154.141,21.048z M152.072,22.741l-1.384-1.539l1.384-1.489V22.741z M148.494,22.295h-2.22v-0.752
			h1.982v-0.77h-1.982v-0.685h2.263l0.987,1.098L148.494,22.295z M155.671,20.551c0,1.047-0.782,1.265-1.571,1.265h-1.128v1.268
			h-1.752l-1.112-1.251l-1.156,1.251h-3.574v-3.78h3.63l1.109,1.238l1.149-1.238h2.884
			C154.867,19.304,155.671,19.504,155.671,20.551z"/>
		<path fill="#00A9E5" d="M155.862,13.824c0,0.598-0.402,0.912-0.634,1.005c0.196,0.077,0.366,0.206,0.443,0.319
			c0.128,0.185,0.153,0.357,0.153,0.689v0.742h-0.912l-0.004-0.475c0-0.224,0.023-0.552-0.144-0.732
			c-0.133-0.135-0.33-0.163-0.658-0.163h-0.969v1.37h-0.902v-3.776h2.078c0.458,0,0.8,0.015,1.092,0.183
			C155.692,13.155,155.862,13.402,155.862,13.824"/>
		<polyline fill="#00B1E7" points="151.609,16.581 148.594,16.581 148.594,12.804 151.609,12.804 151.609,13.594 149.498,13.594 
			149.498,14.271 151.558,14.271 151.558,15.047 149.498,15.045 149.498,15.8 151.609,15.8 151.609,16.581 		"/>
		<polyline fill="#47BAEB" points="147.92,16.581 146.996,16.581 146.991,13.627 145.684,16.581 144.893,16.581 143.577,13.621 
			143.577,16.581 141.741,16.581 141.395,15.738 139.515,15.738 139.167,16.581 138.186,16.581 139.799,12.804 141.142,12.804 
			142.676,16.382 142.676,12.804 144.152,12.804 145.334,15.369 146.418,12.804 147.92,12.804 147.92,16.581 		"/>
		<path fill="#FFFFFF" d="M154.68,14.355c-0.123,0.071-0.269,0.077-0.445,0.077h-1.097v-0.839h1.112
			c0.159,0,0.323,0.005,0.429,0.065c0.117,0.058,0.189,0.175,0.189,0.334C154.867,14.159,154.797,14.29,154.68,14.355"/>
		<polyline fill="#FFFFFF" points="141.07,14.952 140.452,13.449 139.836,14.952 141.07,14.952 		"/>
	</g>
	<g>
		<path fill="#F7971D" d="M101.531,29.007c2.845,2.577,6.62,4.149,10.761,4.149c8.855,0,16.031-7.178,16.031-16.032
			c0-8.853-7.176-16.031-16.031-16.031c-4.141,0-7.915,1.571-10.761,4.149c-3.236,2.933-5.27,7.169-5.27,11.882
			C96.26,21.836,98.294,26.072,101.531,29.007"/>
		<path fill="#F7971D" d="M126.186,26.06c0-0.286,0.232-0.518,0.518-0.518c0.286,0,0.518,0.232,0.518,0.518
			s-0.232,0.519-0.518,0.519C126.418,26.578,126.186,26.346,126.186,26.06 M126.704,26.454c0.217,0,0.393-0.176,0.393-0.394
			c0-0.218-0.176-0.393-0.393-0.393c-0.218,0-0.394,0.175-0.394,0.393C126.31,26.277,126.486,26.454,126.704,26.454 M126.633,26.287
			h-0.106v-0.455h0.192c0.04,0,0.081,0,0.115,0.024c0.037,0.025,0.059,0.068,0.059,0.113c0,0.052-0.03,0.099-0.079,0.118
			l0.084,0.201h-0.119l-0.069-0.181h-0.078V26.287z M126.633,26.03h0.059c0.022,0,0.046,0.002,0.065-0.008
			c0.017-0.012,0.026-0.034,0.026-0.053c0-0.017-0.01-0.036-0.025-0.047c-0.019-0.01-0.048-0.008-0.068-0.008h-0.057V26.03z"/>
		<path fill="#CA2027" d="M106.711,15.427c-0.06-0.575-0.151-1.142-0.271-1.697h-9.818c0.125-0.578,0.281-1.145,0.466-1.698h8.887
			c-0.194-0.581-0.421-1.148-0.679-1.697H97.77c0.274-0.587,0.585-1.153,0.926-1.698h5.676c-0.371-0.593-0.78-1.159-1.223-1.697
			h-3.234c0.498-0.604,1.037-1.172,1.617-1.698c-2.846-2.577-6.62-4.148-10.762-4.148c-8.854,0-16.031,7.177-16.031,16.031
			c0,8.854,7.177,16.03,16.031,16.03c4.142,0,7.916-1.571,10.762-4.148c0.579-0.526,1.12-1.093,1.617-1.698h-3.234
			c-0.443-0.538-0.849-1.105-1.219-1.698h5.676c0.341-0.545,0.649-1.112,0.924-1.698H97.77c-0.257-0.55-0.488-1.115-0.682-1.697
			h8.887c0.185-0.554,0.342-1.12,0.466-1.699c0.12-0.555,0.211-1.121,0.271-1.697c0.06-0.557,0.09-1.124,0.09-1.697
			C106.801,16.551,106.771,15.985,106.711,15.427"/>
		<path fill="#FFFFFF" d="M126.186,20.843c0-0.286,0.232-0.519,0.518-0.519c0.286,0,0.518,0.233,0.518,0.519
			c0,0.286-0.232,0.518-0.518,0.518C126.418,21.36,126.186,21.129,126.186,20.843 M126.704,21.235c0.217,0,0.393-0.175,0.393-0.393
			c0-0.218-0.176-0.394-0.393-0.394c-0.218,0-0.394,0.176-0.394,0.394C126.31,21.06,126.486,21.235,126.704,21.235 M126.633,21.069
			h-0.106v-0.455h0.192c0.04,0,0.081,0.002,0.115,0.024c0.037,0.026,0.059,0.068,0.059,0.113c0,0.052-0.03,0.1-0.079,0.119
			l0.084,0.2h-0.119l-0.069-0.18h-0.078V21.069z M126.633,20.812h0.059c0.022,0,0.046,0.002,0.065-0.008
			c0.017-0.012,0.026-0.032,0.026-0.052c0-0.018-0.01-0.037-0.025-0.047c-0.019-0.011-0.048-0.009-0.068-0.009h-0.057V20.812z"/>
		<path fill="#22205F" d="M96.083,21.754c-0.537,0.15-0.909,0.215-1.311,0.215c-0.813,0-1.318-0.512-1.318-1.452
			c0-0.186,0.017-0.383,0.051-0.593l0.106-0.647l0.081-0.523l0.756-4.513h1.67l-0.199,0.982h1.045l-0.246,1.668h-1.048L95.22,19.59
			c-0.021,0.121-0.031,0.212-0.031,0.273c0,0.342,0.18,0.49,0.594,0.49c0.197,0,0.352-0.02,0.531-0.063L96.083,21.754"/>
		<path fill="#22205F" d="M101.455,21.692c-0.596,0.182-1.171,0.268-1.782,0.268c-1.861,0-2.958-1.016-2.958-2.962
			c0-2.27,1.29-3.94,3.039-3.94c1.433,0,2.347,0.934,2.347,2.403c0,0.486-0.063,0.961-0.214,1.632h-3.458
			c-0.013,0.103-0.017,0.147-0.017,0.207c0,0.767,0.517,1.159,1.527,1.159c0.621,0,1.182-0.129,1.807-0.419L101.455,21.692
			 M100.418,17.759c0.011-0.138,0.016-0.25,0.016-0.337c0-0.537-0.305-0.853-0.823-0.853c-0.553,0-0.949,0.423-1.11,1.185
			L100.418,17.759z"/>
		<polygon fill="#22205F" points="82.799,21.836 81.059,21.836 82.054,15.585 79.831,21.836 78.645,21.836 78.498,15.621 
			77.451,21.836 75.761,21.836 77.122,13.704 79.625,13.704 79.694,18.738 81.382,13.704 84.136,13.704 		"/>
		<path fill="#22205F" d="M86.979,18.891c-0.183-0.022-0.218-0.028-0.343-0.028c-0.986,0-1.486,0.378-1.486,1.006
			c0,0.411,0.245,0.674,0.625,0.674C86.616,20.542,86.95,19.868,86.979,18.891 M88.354,21.836h-1.504l0.032-0.685
			c-0.381,0.517-0.896,0.799-1.824,0.799c-0.841,0-1.546-0.735-1.546-1.805c0-0.315,0.059-0.601,0.129-0.865
			c0.273-1.013,1.303-1.664,2.883-1.685c0.197-0.002,0.507-0.006,0.766,0.026c0.056-0.217,0.069-0.31,0.069-0.428
			c0-0.438-0.361-0.577-1.173-0.577c-0.497,0-1.053,0.088-1.441,0.2l-0.24,0.069l-0.101,0.028l0.24-1.487
			c0.815-0.246,1.382-0.351,2.024-0.351c1.494,0,2.285,0.672,2.285,1.94c0,0.327,0.033,0.574-0.082,1.311l-0.364,2.345l-0.06,0.422
			l-0.045,0.335l-0.031,0.23L88.354,21.836z"/>
		<path fill="#22205F" d="M109.825,15.284c0.484,0,0.935,0.127,1.555,0.439l0.285-1.765c-0.155-0.064-0.199-0.081-0.421-0.16
			l-0.713-0.18c-0.221-0.055-0.481-0.083-0.779-0.083c-0.864,0-1.371,0.01-1.892,0.33c-0.282,0.171-0.632,0.424-1.039,0.869
			l-0.205-0.062l-1.774,1.261l0.086-0.709h-1.845l-1.06,6.613h1.741l0.635-3.56c0,0,0.248-0.486,0.363-0.638
			c0.32-0.431,0.603-0.435,0.965-0.422c0.045,0.001,0.104,0.002,0.125,0.003c-0.052,0.386-0.079,0.804-0.079,1.256
			c0,2.163,1.228,3.51,3.102,3.51c0.482,0,0.896-0.063,1.537-0.237l0.306-1.854c-0.578,0.283-1.05,0.418-1.479,0.418
			c-1.011,0-1.623-0.746-1.623-1.981C107.616,16.539,108.526,15.284,109.825,15.284"/>
		<path fill="#22205F" d="M124.529,13.705l-0.382,2.321c-0.419-0.625-0.917-0.927-1.592-0.927c-0.914,0-1.751,0.523-2.285,1.499
			l0.004-0.009l-1.105-0.657l0.085-0.709h-1.846l-1.06,6.614h1.741l0.575-3.559c0,0,0.446-0.497,0.562-0.649
			c0.256-0.335,0.541-0.401,0.772-0.416c-0.201,0.559-0.316,1.219-0.316,1.965c0,1.653,0.86,2.746,2.126,2.746
			c0.638,0,1.132-0.224,1.608-0.735l-0.086,0.648h1.648l1.325-8.132H124.529 M122.409,20.279c-0.592,0-0.891-0.438-0.891-1.304
			c0-1.299,0.559-2.222,1.35-2.222c0.599,0,0.924,0.455,0.924,1.296C123.791,19.361,123.221,20.279,122.409,20.279"/>
		<path fill="#22205F" d="M114.395,18.891c-0.183-0.022-0.218-0.028-0.342-0.028c-0.987,0-1.486,0.378-1.486,1.006
			c0,0.411,0.243,0.674,0.624,0.674C114.032,20.542,114.366,19.868,114.395,18.891 M115.769,21.836h-1.505l0.033-0.685
			c-0.381,0.517-0.897,0.799-1.824,0.799c-0.842,0-1.606-0.72-1.598-1.812c0.011-1.573,1.184-2.542,3.063-2.542
			c0.198,0,0.507-0.006,0.767,0.026c0.055-0.217,0.07-0.31,0.07-0.428c0-0.438-0.361-0.577-1.174-0.577
			c-0.496,0-1.053,0.088-1.442,0.2l-0.24,0.069l-0.101,0.028l0.241-1.487c0.814-0.246,1.38-0.351,2.022-0.351
			c1.495,0,2.286,0.672,2.286,1.94c0,0.327,0.032,0.574-0.082,1.311l-0.364,2.345l-0.061,0.422l-0.044,0.335l-0.031,0.23
			L115.769,21.836z"/>
		<path fill-rule="evenodd" clip-rule="evenodd" fill="#22205F" d="M91.981,16.638c0.342-0.002,0.807,0.033,1.308,0.1l0.249-1.526
			c-0.51-0.077-1.159-0.134-1.555-0.134c-1.945,0-2.586,1.038-2.586,2.258c0,0.787,0.382,1.376,1.3,1.809
			c0.705,0.331,0.824,0.392,0.824,0.692c0,0.412-0.358,0.645-1.045,0.645c-0.519,0-1.001-0.08-1.558-0.261l-0.202,1.52l0.039,0.01
			l0.318,0.066c0.101,0.021,0.256,0.047,0.457,0.066c0.413,0.035,0.761,0.06,0.987,0.06c1.932,0,2.729-0.748,2.729-2.207
			c0-0.908-0.432-1.441-1.303-1.84c-0.728-0.335-0.816-0.382-0.812-0.69C91.135,16.902,91.45,16.641,91.981,16.638"/>
		<g>
			<path fill="#FFFFFF" d="M112.136,13.446l-0.285,1.765c-0.62-0.313-1.072-0.439-1.554-0.439c-1.3,0-2.211,1.256-2.211,3.045
				c0,1.235,0.613,1.981,1.624,1.981c0.428,0,0.902-0.133,1.479-0.417l-0.306,1.853c-0.642,0.175-1.055,0.238-1.538,0.238
				c-1.873,0-3.041-1.346-3.041-3.51c0-2.908,1.612-4.939,3.92-4.939c0.296,0,0.557,0.028,0.778,0.084l0.713,0.18
				C111.936,13.366,111.982,13.383,112.136,13.446"/>
			<path fill="#FFFFFF" d="M106.55,14.656c-0.052-0.011-0.111-0.016-0.175-0.016c-0.57,0-0.896,0.291-1.428,1.074l0.153-1.003
				h-1.574l-1.061,6.614h1.742c0.621-4.045,0.787-4.742,1.621-4.742c0.054,0,0.059-0.001,0.128,0.008
				c0.155-0.799,0.368-1.385,0.661-1.919L106.55,14.656"/>
			<path fill="#FFFFFF" d="M96.525,21.243c-0.477,0.151-0.848,0.215-1.25,0.215c-0.889,0-1.375-0.512-1.375-1.452
				c0-0.186,0.017-0.384,0.051-0.593l0.106-0.648l0.081-0.523l0.755-4.512h1.73l-0.2,0.982h0.888l-0.239,1.609H96.18l-0.458,2.759
				c-0.021,0.12-0.03,0.211-0.03,0.273c0,0.341,0.179,0.489,0.594,0.489c0.199,0,0.351-0.019,0.47-0.062L96.525,21.243"/>
			<path fill="#FFFFFF" d="M89.84,16.801c0,0.836,0.406,1.411,1.323,1.844c0.704,0.331,0.813,0.428,0.813,0.728
				c0,0.412-0.31,0.598-0.997,0.598c-0.518,0-1-0.081-1.557-0.262l-0.24,1.526l0.078,0.015l0.318,0.066
				c0.103,0.021,0.255,0.041,0.455,0.058c0.413,0.037,0.732,0.055,0.958,0.055c1.833,0,2.681-0.698,2.681-2.206
				c0-0.908-0.354-1.439-1.226-1.841c-0.728-0.335-0.813-0.409-0.813-0.716c0-0.358,0.289-0.54,0.851-0.54
				c0.341,0,0.807,0.037,1.248,0.1l0.249-1.532c-0.451-0.072-1.133-0.129-1.53-0.129C90.507,14.565,89.835,15.582,89.84,16.801"/>
			<path fill="#FFFFFF" d="M125.422,21.325h-1.645l0.086-0.649c-0.479,0.51-0.972,0.735-1.61,0.735
				c-1.265,0-2.101-1.091-2.101-2.745c0-2.2,1.297-4.055,2.832-4.055c0.676,0,1.19,0.279,1.667,0.905l0.381-2.322h1.717
				L125.422,21.325 M122.854,19.767c0.812,0,1.382-0.919,1.382-2.229c0-0.841-0.323-1.296-0.922-1.296
				c-0.791,0-1.351,0.921-1.351,2.222C121.962,19.328,122.261,19.767,122.854,19.767"/>
			<path fill="#FFFFFF" d="M101.84,21.18c-0.596,0.183-1.173,0.271-1.782,0.269c-1.945-0.001-2.959-1.016-2.959-2.962
				c0-2.27,1.29-3.941,3.039-3.941c1.434,0,2.348,0.935,2.348,2.404c0,0.487-0.063,0.963-0.215,1.632h-3.458
				c-0.013,0.102-0.016,0.146-0.016,0.206c0,0.769,0.516,1.16,1.525,1.16c0.623,0,1.183-0.128,1.808-0.42L101.84,21.18
				 M100.863,17.248c0.011-0.138,0.016-0.251,0.016-0.337c0-0.538-0.305-0.853-0.823-0.853c-0.554,0-0.949,0.423-1.111,1.185
				L100.863,17.248z"/>
			<polygon fill="#FFFFFF" points="83.242,21.324 81.502,21.324 82.499,15.074 80.273,21.324 79.088,21.324 78.939,15.11 
				77.893,21.324 76.264,21.324 77.625,13.193 80.128,13.193 80.197,18.226 81.885,13.193 84.588,13.193 			"/>
			<path fill="#FFFFFF" d="M87.527,18.378c-0.183-0.021-0.263-0.027-0.389-0.027c-0.986,0-1.485,0.339-1.485,1.006
				c0,0.411,0.244,0.674,0.624,0.674C86.986,20.031,87.497,19.356,87.527,18.378 M88.794,21.324h-1.443l0.034-0.685
				c-0.441,0.542-1.028,0.8-1.825,0.8c-0.943,0-1.59-0.737-1.59-1.807c0-1.61,1.125-2.548,3.056-2.548
				c0.198,0,0.451,0.017,0.708,0.051c0.055-0.218,0.069-0.311,0.069-0.429c0-0.439-0.304-0.602-1.117-0.602
				c-0.496,0-1.057,0.071-1.444,0.184l-0.242,0.071L84.845,16.4l0.241-1.486c0.867-0.255,1.439-0.351,2.082-0.351
				c1.495,0,2.285,0.672,2.285,1.94c0,0.326-0.026,0.574-0.141,1.311l-0.364,2.344l-0.06,0.423l-0.045,0.335l-0.031,0.229
				L88.794,21.324z"/>
			<path fill="#FFFFFF" d="M114.944,18.378c-0.182-0.021-0.263-0.027-0.389-0.027c-0.985,0-1.485,0.339-1.485,1.006
				c0,0.411,0.245,0.674,0.624,0.674C114.404,20.031,114.914,19.356,114.944,18.378 M116.21,21.324h-1.443l0.034-0.685
				c-0.441,0.542-1.028,0.8-1.825,0.8c-0.943,0-1.59-0.737-1.59-1.807c0-1.61,1.123-2.548,3.056-2.548
				c0.196,0,0.45,0.017,0.708,0.051c0.054-0.218,0.069-0.311,0.069-0.429c0-0.439-0.304-0.602-1.117-0.602
				c-0.496,0-1.057,0.071-1.444,0.184l-0.242,0.071l-0.156,0.042l0.241-1.486c0.867-0.255,1.439-0.351,2.082-0.351
				c1.495,0,2.285,0.672,2.285,1.94c0,0.326-0.027,0.574-0.141,1.311l-0.364,2.344l-0.06,0.423l-0.045,0.335l-0.031,0.229
				L116.21,21.324z"/>
			<path fill="#FFFFFF" d="M120.877,14.656c-0.053-0.011-0.111-0.016-0.174-0.016c-0.572,0-0.897,0.291-1.43,1.074l0.153-1.003
				h-1.574l-1.06,6.614h1.74c0.624-4.045,0.787-4.742,1.622-4.742c0.053,0,0.051-0.002,0.12,0.006
				c0.156-0.798,0.369-1.384,0.662-1.918L120.877,14.656"/>
		</g>
	</g>
	<g>
		<path fill="#25469A" d="M20.138,7.594L15.353,20.5l-0.513-2.622c-1.157-3.132-3.409-5.99-6.769-7.905l4.375,16.53l5.173-0.001
			l7.696-18.909H20.138"/>
		<polyline fill="#25469A" points="24.237,26.511 27.295,7.578 32.186,7.578 29.126,26.511 24.237,26.511 		"/>
		<path fill="#25469A" d="M46.86,8.045c-0.968-0.384-2.492-0.798-4.38-0.798c-4.837,0-8.236,2.569-8.265,6.244
			c-0.031,2.728,2.43,4.243,4.282,5.152c1.906,0.927,2.544,1.522,2.536,2.351c-0.016,1.263-1.525,1.84-2.93,1.84
			c-1.952,0-2.994-0.281-4.594-0.992l-0.635-0.296l-0.683,4.234c1.142,0.535,3.251,0.986,5.448,1.014c5.134,0,8.47-2.542,8.51-6.471
			c0.021-2.157-1.285-3.795-4.11-5.146c-1.703-0.876-2.76-1.457-2.744-2.346c0.004-0.786,0.886-1.627,2.805-1.627
			c1.599-0.032,2.748,0.337,3.658,0.727l0.435,0.219L46.86,8.045"/>
		<g>
			<path fill="#25469A" d="M59.392,7.595h-3.775c-1.172,0-2.048,0.341-2.565,1.571l-7.257,17.347h5.138c0,0,0.839-2.331,1.027-2.844
				c0.562,0,5.547,0.01,6.257,0.01c0.151,0.663,0.598,2.834,0.598,2.834h4.539L59.392,7.595 M53.366,19.797
				c0.409-1.085,1.949-5.291,1.949-5.291c-0.03,0.051,0.398-1.099,0.651-1.807l0.326,1.636c0,0,0.939,4.517,1.132,5.462
				C56.665,19.797,54.321,19.797,53.366,19.797z"/>
		</g>
		<path fill="#FAA61A" d="M10.915,7.587H3.031L2.986,7.912c6.128,1.565,10.172,5.421,11.854,9.969l-1.71-8.697
			C12.836,7.981,11.977,7.631,10.915,7.587z"/>
	</g>
</g>
<g>
	<path fill="#003087" d="M203.06,5.974c-1.243-1.416-3.489-2.024-6.363-2.024h-8.34c-0.588,0-1.088,0.428-1.18,1.007l-3.473,22.024
		c-0.069,0.434,0.267,0.828,0.707,0.828h5.149l1.293-8.202l-0.04,0.257c0.092-0.58,0.588-1.007,1.175-1.007h2.447
		c4.807,0,8.57-1.952,9.67-7.6c0.033-0.167,0.061-0.33,0.085-0.488c-0.139-0.074-0.139-0.074,0,0
		C204.519,8.681,204.189,7.26,203.06,5.974"/>
	<g>
		<path fill="#009CDE" d="M263.429,11.062h-5.758c-0.394,0-0.729,0.287-0.791,0.676l-2.328,14.764
			c-0.046,0.291,0.18,0.555,0.474,0.555h2.955c0.275,0,0.51-0.2,0.553-0.472l0.661-4.186c0.061-0.389,0.396-0.676,0.79-0.676h1.822
			c3.793,0,5.982-1.835,6.553-5.473c0.258-1.59,0.01-2.84-0.734-3.715C266.807,11.571,265.355,11.062,263.429,11.062
			 M264.094,16.454c-0.315,2.067-1.893,2.067-3.42,2.067h-0.868l0.609-3.859c0.036-0.233,0.238-0.405,0.474-0.405h0.399
			c1.039,0,2.021,0,2.527,0.592C264.116,15.203,264.208,15.729,264.094,16.454"/>
		<path fill="#003087" d="M222.363,11.062h-5.758c-0.394,0-0.729,0.287-0.791,0.676l-2.328,14.764
			c-0.046,0.291,0.179,0.555,0.474,0.555h2.75c0.393,0,0.728-0.287,0.79-0.675l0.629-3.983c0.061-0.389,0.396-0.676,0.79-0.676
			h1.822c3.793,0,5.982-1.835,6.553-5.473c0.258-1.59,0.01-2.84-0.734-3.715C225.741,11.571,224.29,11.062,222.363,11.062
			 M223.028,16.454c-0.315,2.067-1.893,2.067-3.42,2.067h-0.869l0.609-3.859c0.036-0.233,0.238-0.405,0.474-0.405h0.399
			c1.039,0,2.021,0,2.527,0.592C223.051,15.203,223.142,15.729,223.028,16.454"/>
		<path fill="#003087" d="M239.572,16.388h-2.757c-0.236,0-0.437,0.171-0.474,0.405l-0.121,0.771l-0.192-0.279
			c-0.598-0.866-1.929-1.157-3.257-1.157c-3.046,0-5.648,2.309-6.154,5.546c-0.264,1.615,0.111,3.159,1.027,4.236
			c0.841,0.99,2.041,1.402,3.472,1.402c2.456,0,3.817-1.577,3.817-1.577l-0.123,0.766c-0.046,0.291,0.179,0.555,0.474,0.555h2.482
			c0.394,0,0.729-0.286,0.791-0.675l1.491-9.438C240.093,16.651,239.867,16.388,239.572,16.388 M235.73,21.754
			c-0.267,1.575-1.517,2.633-3.112,2.633c-0.8,0-1.44-0.258-1.851-0.745c-0.408-0.483-0.561-1.171-0.432-1.936
			c0.248-1.562,1.519-2.653,3.09-2.653c0.783,0,1.419,0.26,1.838,0.751C235.685,20.3,235.851,20.992,235.73,21.754"/>
		<path fill="#009CDE" d="M280.638,16.388h-2.757c-0.236,0-0.437,0.171-0.474,0.405l-0.121,0.771l-0.193-0.279
			c-0.597-0.866-1.928-1.157-3.257-1.157c-3.046,0-5.648,2.309-6.154,5.546c-0.264,1.615,0.111,3.159,1.027,4.236
			c0.841,0.99,2.041,1.402,3.472,1.402c2.456,0,3.817-1.577,3.817-1.577l-0.123,0.766c-0.046,0.291,0.179,0.555,0.474,0.555h2.482
			c0.394,0,0.729-0.286,0.791-0.675l1.491-9.438C281.159,16.651,280.933,16.388,280.638,16.388 M276.796,21.754
			c-0.267,1.575-1.517,2.633-3.112,2.633c-0.8,0-1.44-0.258-1.851-0.745c-0.408-0.483-0.561-1.171-0.432-1.936
			c0.248-1.562,1.519-2.653,3.09-2.653c0.783,0,1.419,0.26,1.838,0.751C276.751,20.3,276.917,20.992,276.796,21.754"/>
		<path fill="#003087" d="M254.256,16.388h-2.771c-0.265,0-0.513,0.131-0.661,0.351l-3.823,5.63l-1.62-5.41
			c-0.102-0.339-0.413-0.571-0.767-0.571h-2.724c-0.329,0-0.56,0.324-0.454,0.635l3.051,8.957l-2.87,4.049
			c-0.225,0.318,0.002,0.757,0.392,0.757h2.768c0.262,0,0.508-0.128,0.658-0.344l9.215-13.301
			C254.871,16.823,254.644,16.388,254.256,16.388"/>
		<path fill="#009CDE" d="M283.888,11.468l-2.363,15.034c-0.046,0.291,0.179,0.555,0.474,0.555h2.377
			c0.393,0,0.729-0.287,0.79-0.676l2.33-14.764c0.046-0.291-0.179-0.555-0.474-0.555h-2.659
			C284.125,11.062,283.924,11.234,283.888,11.468"/>
	</g>
	<path fill="#003087" d="M203.06,5.974c-1.243-1.416-3.489-2.024-6.363-2.024h-8.34c-0.588,0-1.088,0.428-1.18,1.007l-3.473,22.024
		c-0.069,0.434,0.267,0.828,0.707,0.828h5.149l1.293-8.202l-0.04,0.257c0.092-0.58,0.588-1.007,1.175-1.007h2.447
		c4.807,0,8.57-1.952,9.67-7.6c0.033-0.167,0.061-0.33,0.085-0.488c-0.139-0.074-0.139-0.074,0,0
		C204.519,8.681,204.189,7.26,203.06,5.974"/>
	<path fill="#003087" d="M192.244,10.796c0.055-0.349,0.279-0.635,0.58-0.779c0.137-0.065,0.29-0.102,0.451-0.102h6.538
		c0.774,0,1.497,0.05,2.157,0.157c0.189,0.03,0.373,0.065,0.551,0.105c0.178,0.039,0.351,0.084,0.519,0.133
		c0.084,0.025,0.166,0.05,0.247,0.076c0.324,0.108,0.627,0.235,0.904,0.382c0.327-2.088-0.002-3.508-1.131-4.795
		c-1.243-1.416-3.489-2.024-6.363-2.024h-8.341c-0.587,0-1.087,0.428-1.179,1.007l-3.473,22.024
		c-0.069,0.435,0.267,0.828,0.707,0.828h5.15l1.293-8.202L192.244,10.796z"/>
	<path fill="#009CDE" d="M204.191,10.768L204.191,10.768c-0.025,0.16-0.053,0.321-0.085,0.488c-1.099,5.647-4.863,7.6-9.67,7.6
		h-2.447c-0.587,0-1.083,0.428-1.174,1.007l-1.253,7.944l-0.356,2.254c-0.06,0.38,0.234,0.725,0.618,0.725h4.34
		c0.514,0,0.951-0.374,1.031-0.881l0.042-0.221l0.818-5.184l0.053-0.287c0.08-0.507,0.517-0.881,1.031-0.881h0.65
		c4.205,0,7.497-1.708,8.459-6.648c0.402-2.064,0.194-3.788-0.869-4.999C205.058,11.318,204.658,11.016,204.191,10.768"/>
	<path fill="#012169" d="M203.04,10.309c-0.168-0.049-0.341-0.094-0.519-0.133c-0.178-0.039-0.362-0.074-0.551-0.105
		c-0.661-0.107-1.382-0.157-2.157-0.157h-6.538c-0.161,0-0.314,0.036-0.451,0.102c-0.302,0.145-0.526,0.43-0.58,0.779l-1.39,8.811
		l-0.04,0.257c0.091-0.58,0.587-1.007,1.174-1.007h2.447c4.807,0,8.57-1.952,9.67-7.6c0.033-0.167,0.06-0.329,0.085-0.488
		c-0.278-0.147-0.58-0.274-0.904-0.382C203.207,10.36,203.124,10.334,203.04,10.309"/>
</g>
</svg>
