<?xml version="1.0" encoding="utf-8"?>
<!-- Generator: Adobe Illustrator 17.0.0, SVG Export Plug-In . SVG Version: 6.00 Build 0)  -->
<!DOCTYPE svg PUBLIC "-//W3C//DTD SVG 1.1//EN" "http://www.w3.org/Graphics/SVG/1.1/DTD/svg11.dtd">
<svg version="1.1" id="Layer_1" xmlns="http://www.w3.org/2000/svg" xmlns:xlink="http://www.w3.org/1999/xlink" x="0px" y="0px"
	 width="17px" height="17px" viewBox="386.327 379.639 17 17" enable-background="new 386.327 379.639 17 17" xml:space="preserve">
<title>shopping cart</title>
<g>
	<g>
		<title>Layer 1</title>
		<g id="layer1_1_">
			<path id="path3847_1_" fill="#FFFFFF" d="M386.812,380.234c0.026,0,0.053,0.003,0.078,0.007c0,0,0.001,0,0.001,0l2.584,0.441
				c0.164,0.028,0.302,0.141,0.363,0.296c0,0,0,0.001,0,0.001l1.199,3.075l11.703,0.292c0.135,0.003,0.261,0.064,0.348,0.165
				c0.088,0.101,0.13,0.236,0.113,0.37l-0.646,5.344c-0.027,0.224-0.212,0.402-0.437,0.42l-8.344,0.664l-1.654,1.301
				c-0.002,0.001-0.004,0.003-0.006,0.004c-0.002,0.001-0.004,0.002-0.006,0.003c-0.002,0.001-0.004,0.003-0.006,0.004
				c-0.302,0.225-0.377,0.532-0.334,0.703c0.024,0.097,0.061,0.169,0.15,0.224c0.088,0.055,0.24,0.095,0.501,0.08
				c0.001,0,0.002,0,0.003,0c0.008,0,0.018,0,0.026,0c0.001,0,0.003,0,0.004,0l9.951,0.029h0.001
				c0.262-0.002,0.482,0.218,0.481,0.479c-0.001,0.261-0.222,0.48-0.483,0.476c-0.001,0-0.001,0-0.001,0l-0.727-0.001
				c0.27,0.172,0.452,0.474,0.452,0.816c0,0.532-0.436,0.968-0.968,0.968c-0.532,0-0.968-0.436-0.968-0.968
				c0-0.344,0.182-0.649,0.454-0.82l-8.194-0.023c0.295,0.166,0.497,0.482,0.497,0.844c0,0.532-0.436,0.968-0.968,0.968
				c-0.532,0-0.968-0.436-0.968-0.968c0-0.462,0.328-0.852,0.764-0.947c-0.411-0.146-0.728-0.446-0.923-0.905
				c-0.003-0.006-0.005-0.011-0.007-0.017c-0.15-0.6,0.116-1.253,0.665-1.677c0.001-0.001,0.003-0.003,0.004-0.004
				c0.001-0.001,0.002-0.003,0.003-0.004c0.005-0.006,0.01-0.011,0.016-0.016l1.172-0.919l-3.654-9.36l-2.319-0.395
				c0,0-0.001,0-0.001,0c-0.244-0.039-0.422-0.266-0.401-0.513C386.35,380.425,386.565,380.231,386.812,380.234L386.812,380.234z
				 M391.391,384.793l0.674,1.728h0.878v-1.689L391.391,384.793z M393.279,384.841v1.68h1.622v-1.639L393.279,384.841z
				 M395.236,384.889v1.632h1.622v-1.591L395.236,384.889z M397.193,384.938v1.583h1.622v-1.542L397.193,384.938z M399.15,384.988
				v1.533h1.622v-1.493L399.15,384.988z M401.107,385.036v1.485h1.189l0.176-1.45L401.107,385.036z M402.256,386.855h-1.148v1.517
				h0.965L402.256,386.855z M400.772,386.855h-1.622v1.517h1.622V386.855z M398.815,386.855h-1.622v1.517h1.622V386.855z
				 M396.858,386.855h-1.622v1.517h1.622V386.855z M394.901,386.855h-1.622v1.517h1.622V386.855z M392.943,386.855h-0.749
				l0.592,1.517h0.157V386.855z M402.032,388.706h-0.925v1.089l0.801-0.064L402.032,388.706z M400.772,388.706h-1.622v1.244
				l1.622-0.129V388.706z M398.815,388.706h-1.622v1.4l1.622-0.128V388.706z M396.858,388.706h-1.622v1.556l1.622-0.129V388.706z
				 M394.901,388.706h-1.622v0.923l0.308,0.788c0.04-0.019,0.084-0.031,0.128-0.035l1.186-0.094V388.706z M392.943,388.706h-0.025
				l0.025,0.068V388.706z M401.16,394.859c-0.316,0-0.569,0.253-0.569,0.569s0.253,0.568,0.569,0.568s0.569-0.251,0.569-0.568
				S401.476,394.859,401.16,394.859z M391.979,394.859c-0.316,0-0.569,0.253-0.569,0.569s0.253,0.568,0.569,0.568
				s0.569-0.251,0.569-0.568S392.296,394.859,391.979,394.859z M401.16,395.129c0.172,0,0.309,0.137,0.309,0.309
				c0,0.172-0.137,0.308-0.309,0.308s-0.309-0.136-0.309-0.308C400.85,395.266,400.988,395.129,401.16,395.129z M391.979,395.129
				c0.172,0,0.309,0.137,0.309,0.309c0,0.172-0.137,0.308-0.309,0.308s-0.309-0.136-0.309-0.308
				C391.67,395.266,391.807,395.129,391.979,395.129z"/>
		</g>
	</g>
	<g>
		<title>Layer 1</title>
		<g id="layer1">
			<path id="path3847" fill="#004B00" d="M386.812,379.639c0.026,0,0.053,0.003,0.078,0.007c0,0,0.001,0,0.001,0l2.584,0.441
				c0.164,0.028,0.302,0.141,0.363,0.296v0.001l1.199,3.075l11.703,0.292c0.135,0.003,0.261,0.064,0.348,0.165
				c0.088,0.101,0.13,0.236,0.113,0.37l-0.646,5.344c-0.027,0.224-0.212,0.402-0.437,0.42l-8.344,0.664l-1.654,1.301
				c-0.002,0.001-0.004,0.003-0.006,0.004c-0.002,0.001-0.004,0.002-0.006,0.003c-0.002,0.001-0.004,0.003-0.006,0.004
				c-0.302,0.225-0.377,0.532-0.334,0.703c0.024,0.097,0.061,0.169,0.15,0.224s0.24,0.095,0.501,0.08c0.001,0,0.002,0,0.003,0
				c0.008,0,0.018,0,0.026,0c0.001,0,0.003,0,0.004,0l9.951,0.029h0.001c0.262-0.002,0.482,0.218,0.481,0.479
				c-0.001,0.261-0.222,0.48-0.483,0.476c-0.001,0-0.001,0-0.001,0l-0.727-0.001c0.27,0.172,0.452,0.474,0.452,0.816
				c0,0.532-0.436,0.968-0.968,0.968c-0.532,0-0.968-0.436-0.968-0.968c0-0.344,0.182-0.649,0.454-0.82l-8.194-0.023
				c0.295,0.166,0.497,0.482,0.497,0.844c0,0.532-0.436,0.968-0.968,0.968c-0.532,0-0.968-0.436-0.968-0.968
				c0-0.462,0.328-0.852,0.764-0.947c-0.411-0.146-0.728-0.446-0.923-0.905c-0.003-0.006-0.005-0.011-0.007-0.017
				c-0.15-0.6,0.116-1.253,0.665-1.677c0.001-0.001,0.003-0.003,0.004-0.004c0.001-0.001,0.002-0.003,0.003-0.004
				c0.005-0.006,0.01-0.011,0.016-0.016l1.172-0.919l-3.654-9.36l-2.319-0.395c0,0-0.001,0-0.001,0
				c-0.244-0.039-0.422-0.266-0.401-0.513C386.35,379.829,386.565,379.635,386.812,379.639L386.812,379.639z M391.391,384.198
				l0.674,1.728h0.878v-1.689L391.391,384.198z M393.279,384.246v1.68h1.622v-1.639L393.279,384.246z M395.236,384.293v1.632h1.622
				v-1.591L395.236,384.293z M397.193,384.343v1.583h1.622v-1.542L397.193,384.343z M399.15,384.392v1.533h1.622v-1.493
				L399.15,384.392z M401.107,384.44v1.485h1.189l0.176-1.45L401.107,384.44z M402.256,386.259h-1.148v1.517h0.965L402.256,386.259z
				 M400.772,386.259h-1.622v1.517h1.622V386.259z M398.815,386.259h-1.622v1.517h1.622V386.259z M396.858,386.259h-1.622v1.517
				h1.622V386.259z M394.901,386.259h-1.622v1.517h1.622V386.259z M392.943,386.259h-0.749l0.592,1.517h0.157V386.259z
				 M402.032,388.11h-0.925v1.089l0.801-0.064L402.032,388.11z M400.772,388.11h-1.622v1.244l1.622-0.129V388.11z M398.815,388.11
				h-1.622v1.4l1.622-0.128V388.11z M396.858,388.11h-1.622v1.556l1.622-0.129V388.11z M394.901,388.11h-1.622v0.923l0.308,0.788
				c0.04-0.019,0.084-0.031,0.128-0.035l1.186-0.094V388.11z M392.943,388.11h-0.025l0.025,0.068V388.11z M401.16,394.263
				c-0.316,0-0.569,0.253-0.569,0.569s0.253,0.568,0.569,0.568s0.569-0.251,0.569-0.568S401.476,394.263,401.16,394.263z
				 M391.979,394.263c-0.316,0-0.569,0.253-0.569,0.569s0.253,0.568,0.569,0.568s0.569-0.251,0.569-0.568
				S392.296,394.263,391.979,394.263z M401.16,394.533c0.172,0,0.309,0.137,0.309,0.309c0,0.172-0.137,0.308-0.309,0.308
				s-0.309-0.136-0.309-0.308C400.85,394.671,400.988,394.533,401.16,394.533z M391.979,394.533c0.172,0,0.309,0.137,0.309,0.309
				c0,0.172-0.137,0.308-0.309,0.308s-0.309-0.136-0.309-0.308C391.67,394.671,391.807,394.533,391.979,394.533z"/>
		</g>
	</g>
</g>
</svg>
