<?xml version="1.0" encoding="utf-8"?>
<!-- Generator: Adobe Illustrator 17.0.0, SVG Export Plug-In . SVG Version: 6.00 Build 0)  -->
<!DOCTYPE svg PUBLIC "-//W3C//DTD SVG 1.1//EN" "http://www.w3.org/Graphics/SVG/1.1/DTD/svg11.dtd">
<svg version="1.1" id="Layer_1" xmlns="http://www.w3.org/2000/svg" xmlns:xlink="http://www.w3.org/1999/xlink" x="0px" y="0px"
	 width="16px" height="16px" viewBox="0 0 16 16" enable-background="new 0 0 16 16" xml:space="preserve">
<linearGradient id="SVGID_1_" gradientUnits="userSpaceOnUse" x1="8" y1="-0.0184" x2="8" y2="15.9816">
	<stop  offset="0" style="stop-color:#DA7027"/>
	<stop  offset="1" style="stop-color:#C54927"/>
</linearGradient>
<path fill="url(#SVGID_1_)" d="M16,14.982c0,0.552-0.448,1-1,1H1c-0.552,0-1-0.448-1-1v-14c0-0.552,0.448-1,1-1h14
	c0.552,0,1,0.448,1,1V14.982z"/>
<path fill="#FFFFFF" d="M3.307,2.51c-0.007-0.16,0.054-0.29,0.268-0.29c0.214,0,2.385,0.069,3.844,0.069
	c3.026,0,3.753-0.245,4.272-0.245c0.29,0.008,0.352,0.229,0.352,0.359c0,0.13-0.138,0.405-0.138,0.764
	c0,0.359,0.084,0.741,0.084,1.055c0,0.313-0.267,0.42-0.413,0.42c-0.145,0-0.237-0.054-0.245-0.321
	c-0.015-0.512,0.359-1.253-3.317-1.253c-1.872,0-1.918,0.214-1.918,0.81c0,0.596,0.015,2.568,0.015,2.874
	c0,0.306,0.092,0.397,0.336,0.397c0.245,0,2.163,0,2.683,0s1.047-0.283,1.108-1.016c0.023-0.39,0.13-0.405,0.321-0.405
	c0.191,0,0.367,0.153,0.336,0.52c-0.031,0.367-0.107,0.757-0.107,1.284c0,0.527,0.107,1.047,0.107,1.429
	c0,0.382-0.504,0.474-0.604,0.061c-0.099-0.413-0.245-1.108-1.422-1.108c-1.177,0-2.125,0-2.385,0c-0.26,0-0.39,0.145-0.39,0.573
	c0,0.428,0,2.522,0,3.05c0,0.527,0.16,1.093,1.23,1.093c1.07,0,3.011,0.115,3.898-0.581c0.382-0.313,0.497-0.749,0.627-1.46
	c0.061-0.329,0.772-0.321,0.741,0.436c-0.023,0.352-0.36,1.107-0.36,1.591c0,0.405,0.093,0.947-0.282,0.947
	c-0.317,0-0.183-0.161-1.574-0.161c-1.391,0-6.191,0.031-6.993,0.031c-0.298,0-0.359-0.084-0.359-0.268
	c0-0.183,0.107-0.321,0.359-0.321c0.252,0,1.322,0.015,1.322-1.345c0-1.36,0-6.336,0-7.07s-0.16-1.467-1.062-1.559
	C3.292,2.838,3.315,2.685,3.307,2.51z"/>
</svg>
