<?xml version="1.0" encoding="utf-8"?>
<!-- Generator: Adobe Illustrator 17.0.0, SVG Export Plug-In . SVG Version: 6.00 Build 0)  -->
<!DOCTYPE svg PUBLIC "-//W3C//DTD SVG 1.1//EN" "http://www.w3.org/Graphics/SVG/1.1/DTD/svg11.dtd">
<svg version="1.1" id="Layer_2" xmlns="http://www.w3.org/2000/svg" xmlns:xlink="http://www.w3.org/1999/xlink" x="0px" y="0px"
	 width="16px" height="16px" viewBox="0 0 16 16" enable-background="new 0 0 16 16" xml:space="preserve">
<g>
	<path fill="#3B559F" d="M15.99,15.246c0,0.411-0.333,0.744-0.744,0.744H0.734c-0.411,0-0.744-0.333-0.744-0.744V0.734
		c0-0.411,0.333-0.744,0.744-0.744h14.512c0.411,0,0.744,0.333,0.744,0.744V15.246z"/>
	<path fill="#FFFFFF" d="M12.304,4.706h1.243V2.465c-0.499-0.015-1.154-0.032-2.012-0.051C8.433,2.346,8.546,5.537,8.546,5.537
		v1.836H6.415V9.77h2.132v6.22h2.482V9.77h2.085l0.298-2.396h-2.382v-1.61C11.028,4.598,12.304,4.706,12.304,4.706z"/>
</g>
</svg>
