<?xml version="1.0" encoding="utf-8"?>
<!-- Generator: Adobe Illustrator 17.0.0, SVG Export Plug-In . SVG Version: 6.00 Build 0)  -->
<!DOCTYPE svg PUBLIC "-//W3C//DTD SVG 1.1//EN" "http://www.w3.org/Graphics/SVG/1.1/DTD/svg11.dtd">
<svg version="1.1" id="Layer_1" xmlns="http://www.w3.org/2000/svg" xmlns:xlink="http://www.w3.org/1999/xlink" x="0px" y="0px"
	 width="16px" height="16px" viewBox="0 0 16 16" enable-background="new 0 0 16 16" xml:space="preserve">
<linearGradient id="SVGID_1_" gradientUnits="userSpaceOnUse" x1="8" y1="-1.492881e-07" x2="8" y2="16">
	<stop  offset="0" style="stop-color:#4F7FA4"/>
	<stop  offset="1" style="stop-color:#335E85"/>
</linearGradient>
<path fill-rule="evenodd" clip-rule="evenodd" fill="url(#SVGID_1_)" d="M14.154,6.769h-1.393C12.863,7.162,12.923,7.574,12.923,8
	c0,2.719-2.204,4.923-4.923,4.923c-2.719,0-4.923-2.204-4.923-4.923c0-0.426,0.06-0.837,0.162-1.231H1.846v6.77
	c0,0.339,0.276,0.615,0.616,0.615h11.076c0.34,0,0.616-0.275,0.616-0.615V6.769z M14.154,2.461c0-0.34-0.276-0.615-0.616-0.615
	h-1.846c-0.34,0-0.615,0.276-0.615,0.615v1.846c0,0.34,0.275,0.615,0.615,0.615h1.846c0.34,0,0.616-0.276,0.616-0.615V2.461z
	 M8,4.923C6.3,4.923,4.923,6.3,4.923,8c0,1.699,1.377,3.077,3.077,3.077S11.077,9.699,11.077,8C11.077,6.3,9.699,4.923,8,4.923
	 M14.154,16H1.846C0.826,16,0,15.173,0,14.153V1.846C0,0.826,0.826,0,1.846,0h12.308C15.174,0,16,0.826,16,1.846v12.307
	C16,15.173,15.174,16,14.154,16"/>
</svg>
