<?xml version="1.0" encoding="utf-8"?>
<!-- Generator: Adobe Illustrator 17.0.0, SVG Export Plug-In . SVG Version: 6.00 Build 0)  -->
<!DOCTYPE svg PUBLIC "-//W3C//DTD SVG 1.1//EN" "http://www.w3.org/Graphics/SVG/1.1/DTD/svg11.dtd">
<svg version="1.1" id="Layer_1" xmlns="http://www.w3.org/2000/svg" xmlns:xlink="http://www.w3.org/1999/xlink" x="0px" y="0px"
	 width="66.583px" height="27.813px" viewBox="0 0 66.583 27.813" enable-background="new 0 0 66.583 27.813" xml:space="preserve">
<radialGradient id="SVGID_1_" cx="16.7609" cy="0.5947" r="23.944" gradientUnits="userSpaceOnUse">
	<stop  offset="0" style="stop-color:#ED0D6D"/>
	<stop  offset="1" style="stop-color:#AD1315"/>
</radialGradient>
<path fill="url(#SVGID_1_)" d="M24.368,0.568c-5.546,0-7.686,5.23-7.686,5.23s-2.139-5.23-7.686-5.23
	c-5.652,0-8.293,3.645-8.293,7.897c0,11.41,15.979,18.779,15.979,18.779s15.979-7.369,15.979-18.779
	C32.661,4.213,30.02,0.568,24.368,0.568z"/>
<radialGradient id="SVGID_2_" cx="50.015" cy="5.7396" r="24.5123" gradientUnits="userSpaceOnUse">
	<stop  offset="0" style="stop-color:#ED0D6D"/>
	<stop  offset="1" style="stop-color:#AD1315"/>
</radialGradient>
<path opacity="0.5" fill="url(#SVGID_2_)" d="M57.534,1.568c3.526,0,7.293,1.812,7.293,6.897c0,9.631-12.512,16.421-14.98,17.665
	c-2.469-1.243-14.979-8.021-14.979-17.665c0-5.085,3.767-6.897,7.293-6.897c4.786,0,6.683,4.423,6.76,4.608l0.918,2.239l0.931-2.236
	C50.851,5.991,52.748,1.568,57.534,1.568 M57.534,0.568c-5.546,0-7.686,5.23-7.686,5.23s-2.139-5.23-7.686-5.23
	c-5.652,0-8.293,3.645-8.293,7.897c0,11.41,15.979,18.779,15.979,18.779s15.979-7.369,15.979-18.779
	C65.828,4.213,63.186,0.568,57.534,0.568L57.534,0.568z"/>
</svg>
