<?xml version="1.0" encoding="utf-8"?>
<!-- Generator: Adobe Illustrator 17.0.0, SVG Export Plug-In . SVG Version: 6.00 Build 0)  -->
<!DOCTYPE svg PUBLIC "-//W3C//DTD SVG 1.1//EN" "http://www.w3.org/Graphics/SVG/1.1/DTD/svg11.dtd">
<svg version="1.1" id="Layer_1" xmlns="http://www.w3.org/2000/svg" xmlns:xlink="http://www.w3.org/1999/xlink" x="0px" y="0px"
	 width="16px" height="16px" viewBox="0 0 16 16" enable-background="new 0 0 16 16" xml:space="preserve">
<g>
	<path fill="#CB2027" d="M7.975,0.209C3.672,0.209,0.184,3.697,0.184,8c0,3.19,1.918,5.931,4.664,7.136
		c-0.022-0.544-0.004-1.197,0.136-1.789c0.15-0.633,1.003-4.245,1.003-4.245S5.737,8.604,5.737,7.869
		c0-1.155,0.669-2.017,1.503-2.017c0.709,0,1.051,0.532,1.051,1.17c0,0.712-0.454,1.778-0.688,2.765
		c-0.195,0.826,0.414,1.501,1.23,1.501c1.476,0,2.47-1.896,2.47-4.142c0-1.708-1.15-2.986-3.242-2.986
		c-2.363,0-3.836,1.762-3.836,3.731c0,0.679,0.2,1.157,0.514,1.528c0.144,0.17,0.164,0.239,0.112,0.434
		c-0.037,0.143-0.123,0.488-0.159,0.625c-0.052,0.197-0.212,0.268-0.39,0.195c-1.089-0.444-1.596-1.636-1.596-2.977
		c0-2.213,1.867-4.867,5.568-4.867c2.975,0,4.932,2.153,4.932,4.463c0,3.056-1.699,5.34-4.204,5.34
		c-0.841,0-1.632-0.455-1.903-0.971c0,0-0.452,1.795-0.548,2.142c-0.165,0.601-0.489,1.201-0.784,1.669
		c0.701,0.207,1.441,0.32,2.208,0.32c4.303,0,7.791-3.488,7.791-7.791C15.766,3.697,12.278,0.209,7.975,0.209z"/>
</g>
</svg>
