<?xml version="1.0" encoding="utf-8"?>
<!-- Generator: Adobe Illustrator 17.0.0, SVG Export Plug-In . SVG Version: 6.00 Build 0)  -->
<!DOCTYPE svg PUBLIC "-//W3C//DTD SVG 1.1//EN" "http://www.w3.org/Graphics/SVG/1.1/DTD/svg11.dtd">
<svg version="1.1" id="Layer_1" xmlns="http://www.w3.org/2000/svg" xmlns:xlink="http://www.w3.org/1999/xlink" x="0px" y="0px"
	 width="44.208px" height="22.833px" viewBox="0 0 44.208 22.833" enable-background="new 0 0 44.208 22.833" xml:space="preserve">
<g>
	<g>
		<path fill="#231F20" d="M24.179,16.272c0,0,0.287-0.019,0.826-0.054c0.529-0.048,1.354-0.056,2.313-0.181
			c0.48-0.06,1.012-0.127,1.591-0.2c0.498-0.046,1.216-0.217,1.884-0.332c0.712-0.113,1.387-0.303,2.103-0.496
			c0.18-0.048,0.362-0.097,0.547-0.146l0.247-0.065l0.291-0.101c0.383-0.139,0.809-0.269,1.186-0.411
			c1.447-0.562,3.192-1.269,4.315-2.494c0.276-0.289,0.496-0.667,0.627-0.952l0.118-0.364c0.007-0.08,0.012-0.147,0.025-0.222
			c0.026-0.143,0.012-0.358-0.014-0.54l-0.063-0.288l-0.003-0.019c-0.028-0.068,0.034,0.074,0.024,0.05l-0.021-0.044l-0.041-0.089
			l-0.082-0.179l-0.164-0.359l-0.182-0.245c-0.108-0.163-0.229-0.337-0.414-0.509c-0.171-0.169-0.318-0.36-0.525-0.507
			c-1.554-1.26-3.625-2.129-5.752-2.7c-2.202-0.658-4.353-0.905-6.686-1.151c-1.14-0.097-2.263-0.095-3.391-0.149
			c-1.129-0.014-2.261,0.071-3.38,0.101c-1.118,0.062-2.217,0.237-3.308,0.349c-0.548,0.045-1.051,0.18-1.607,0.278
			c-0.531,0.116-1.09,0.185-1.587,0.337c-0.507,0.137-1.009,0.273-1.507,0.408c-0.462,0.123-0.984,0.341-1.465,0.504
			C9.158,5.878,8.267,6.279,7.471,6.785C6.657,7.253,5.983,7.874,5.535,8.529c-0.231,0.302-0.377,0.72-0.449,0.936
			c-0.032,0.204-0.122,0.49-0.085,0.568c0.004,0.061,0,0.116-0.001,0.177l0.038,0.219c0.005,0.145,0.085,0.284,0.116,0.426
			l0.015,0.053c-0.075-0.173-0.016-0.038-0.03-0.072l0.009,0.017l0.018,0.035l0.073,0.139l0.145,0.276
			c0.095,0.217,0.196,0.284,0.284,0.395c0.1,0.105,0.143,0.209,0.289,0.325c0.25,0.225,0.471,0.459,0.758,0.641
			c0.263,0.199,0.529,0.382,0.817,0.534c1.108,0.646,2.205,1.06,3.119,1.351c0.229,0.075,0.445,0.145,0.648,0.211l0.15,0.05
			c-0.032-0.007,0.081,0.021,0.113,0.03c0.102,0.026,0.2,0.052,0.295,0.076c0.379,0.098,0.702,0.182,0.963,0.25
			c0.523,0.136,0.802,0.208,0.802,0.208l-0.583,2.186c0,0-0.278-0.075-0.8-0.216c-0.261-0.071-0.583-0.158-0.961-0.26
			c-0.094-0.025-0.192-0.052-0.294-0.08l-0.196-0.056l-0.164-0.056c-0.222-0.078-0.457-0.161-0.706-0.248
			c-0.99-0.363-2.188-0.863-3.477-1.685c-0.326-0.191-0.648-0.43-0.972-0.695c-0.334-0.237-0.641-0.565-0.958-0.887
			c-0.292-0.314-0.694-0.866-0.861-1.22l-0.133-0.282l-0.067-0.142l-0.072-0.161l-0.028-0.1c-0.066-0.269-0.165-0.53-0.165-0.822
			l-0.023-0.43c0.01-0.156,0.031-0.319,0.053-0.479C3.255,9.376,3.337,9.241,3.41,9.009c0.266-0.615,0.532-1.024,0.908-1.436
			c0.728-0.782,1.564-1.417,2.475-1.921c0.895-0.53,1.881-0.939,2.894-1.31c0.967-0.34,2.065-0.626,3.128-0.898
			c0.54-0.157,1.069-0.216,1.61-0.331c0.525-0.088,1.098-0.232,1.66-0.275c1.121-0.112,2.251-0.294,3.398-0.356
			c1.149-0.031,2.303-0.117,3.47-0.102c1.165,0.054,2.352,0.058,3.508,0.157c1.158,0.145,2.262,0.228,3.46,0.423l1.732,0.322
			c0.577,0.106,1.11,0.278,1.665,0.413c2.236,0.605,4.433,1.363,6.294,2.784c0.243,0.156,0.452,0.375,0.673,0.57
			c0.222,0.182,0.433,0.425,0.633,0.695l0.295,0.391L41.4,8.481l0.094,0.173l0.046,0.087l0.023,0.043
			c-0.002-0.009,0.064,0.149,0.041,0.096l0.01,0.029l0.147,0.465c0.076,0.322,0.134,0.631,0.118,0.998
			c-0.01,0.181-0.023,0.37-0.045,0.543l-0.085,0.374c-0.201,0.673-0.481,1.18-0.839,1.653c-0.713,0.909-1.552,1.61-2.404,2.137
			c-0.843,0.556-1.707,0.974-2.583,1.324c-0.426,0.178-0.812,0.292-1.209,0.431l-0.293,0.099l-0.341,0.093
			c-0.206,0.055-0.41,0.109-0.61,0.163c-0.805,0.22-1.571,0.429-2.249,0.539c-0.716,0.126-1.277,0.275-1.99,0.357
			c-0.627,0.078-1.203,0.15-1.724,0.214c-1.042,0.131-1.808,0.135-2.354,0.184c-0.539,0.035-0.827,0.053-0.827,0.053L24.179,16.272z
			"/>
	</g>
	<polygon fill="#231F20" points="26.395,12.685 17.081,17.086 26.415,21.432 	"/>
</g>
</svg>
