<?xml version="1.0" encoding="utf-8"?>
<!-- Generator: Adobe Illustrator 17.0.0, SVG Export Plug-In . SVG Version: 6.00 Build 0)  -->
<!DOCTYPE svg PUBLIC "-//W3C//DTD SVG 1.1//EN" "http://www.w3.org/Graphics/SVG/1.1/DTD/svg11.dtd">
<svg version="1.1" id="Layer_1" xmlns="http://www.w3.org/2000/svg" xmlns:xlink="http://www.w3.org/1999/xlink" x="0px" y="0px"
	 width="223.333px" height="82.5px" viewBox="0 0 223.333 82.5" enable-background="new 0 0 223.333 82.5" xml:space="preserve">
<g>
	<g>
		<path fill="#2DB24A" d="M222.349,66.754c-0.089,0-1.234,0.978-3.435,2.933c-2.203,1.956-3.788,2.933-4.756,2.933
			c-0.176,0-0.33-0.023-0.462-0.071l-0.065-0.285c0-0.616,0.858-2.061,2.576-4.338c1.717-2.275,2.576-3.84,2.576-4.695
			c0-1.043-0.683-1.565-2.047-1.565c-2.114,0-6.407,2.945-12.879,8.834l-0.198-0.072c2.817-3.941,4.227-6.315,4.227-7.123
			c0-1.093-0.551-1.639-1.651-1.639c-1.057,0-2.806,1-5.25,2.998c-1.815,1.484-3.288,2.934-4.327,3.981
			c-1.409,1.226-2.722,2.226-3.933,2.985c-1.849,1.131-3.457,1.696-4.822,1.696c-1.013,0-1.519-0.427-1.519-1.28
			c0-0.331,0.132-0.971,0.397-1.92c6.648-2.274,9.973-4.479,9.973-6.612c0-1.233-0.645-1.849-1.934-1.849
			c-1.645,0-3.758,0.738-6.335,2.214c-2.401,1.427-4.223,2.878-5.468,4.354l-0.005,0.021c-2.883,2.902-5.005,4.366-6.352,4.366
			c-0.176,0-0.353-0.094-0.529-0.282l-0.131-0.354c0-0.659,0.715-2.261,2.146-4.805c1.431-2.544,2.432-4.052,3.006-4.523
			c11.712-10.271,19.075-16.926,22.093-19.964c3.015-3.039,4.524-5.43,4.524-7.173c0-1.272-0.683-1.908-2.048-1.908
			c-4.095,0-12.395,8.293-24.899,24.876c-1.542,2.074-2.687,3.629-3.435,4.665c-0.881,0.802-1.761,1.602-2.642,2.402
			c-0.836,0.754-2.174,1.846-3.135,2.689c-0.597,0.518-1.33,1.164-2.201,1.944c-1.981,1.765-3.324,2.646-4.029,2.646
			c-0.485,0-0.727-0.213-0.727-0.637c0-0.378,0.881-1.913,2.642-4.606c5.636-8.641,11.976-16.741,19.022-24.296
			c-0.045-0.331-0.375-0.496-0.991-0.496c-2.158,0-8.366,7.044-18.625,21.131h-0.066c0.307-1.508-0.441-2.262-2.246-2.262
			c-1.63,0-3.709,0.743-6.241,2.226c-1.855,1.087-3.333,2.155-4.443,3.204c-0.499,0.315-1.236,0.895-2.245,1.779
			c-1.277,1.13-2.422,1.696-3.435,1.696c-0.132,0-0.264-0.023-0.396-0.072c2.509-2.537,3.764-4.643,3.764-6.319
			c0-0.478-0.143-1.017-0.429-1.616c-0.106-0.221-0.222-0.388-0.343-0.527c-1.222-1.994-6.089,0.076-9.003,1.821
			c-1.831,1.139-3.414,2.239-4.658,3.448c0.608-0.591-1.756,1.143-5.388,3.02c-0.959,0.495-1.368,0.367-1.536,0.104
			c2.867-3.177,4.319-6.684,4.319-10.529c0-3.675-1.761-5.512-5.284-5.512c-2.773,0-5.438,1.461-7.992,4.381
			c-2.554,2.921-3.83,5.89-3.83,8.904c0,0.896,0.066,1.343,0.198,1.343c0.264,0,0.397-0.306,0.397-0.919
			c0-2.826,1.254-5.629,3.764-8.41c2.773-3.062,5.393-4.594,7.859-4.594c2.51,0,3.765,1.316,3.765,3.945
			c0,2.818-1.189,5.8-3.566,8.945c-1.981,2.584-4.316,4.768-7.002,6.552c-1.981,1.313-4.205,1.972-6.67,1.972
			c-1.717,0-3.083-0.612-4.095-1.834c-1.013-1.224-1.519-2.753-1.519-4.589c0-5.644,4.249-13.526,12.748-23.64
			c6.032-7.198,12.483-13.714,19.352-19.549c8.894,1.65,15.828,2.473,20.804,2.473c5.945,0,11.58-1.131,16.909-3.392
			c7.001-2.968,10.501-7.138,10.501-12.509c0-2.638-0.947-4.735-2.84-6.29c-1.63-1.414-3.743-2.214-6.341-2.403
			c-1.013-2.732-3.435-4.099-7.265-4.099c-5.019,0-12.131,2.922-21.333,8.763c-6.605,4.194-13.1,9.046-19.484,14.558l-7.199-1.484
			c2.421-2.591,4.864-5.182,7.331-7.774c3.654-4.145,5.481-6.878,5.481-8.198c0-1.177-0.683-1.767-2.048-1.767
			c-2.333,0-8.982,5.254-19.946,15.759c-20.562-4.428-35.688-6.643-45.374-6.643c-6.076,0-11.581,0.802-16.512,2.403
			c-6.341,2.074-10.81,5.301-13.408,9.682c-11.977,0.66-22.104,4.476-30.381,11.449C4.283,43.41,0.74,50.383,0.74,58.345
			c0,8.292,3.456,14.441,10.37,18.445c5.459,3.109,12.417,4.664,20.871,4.664c8.938,0,17.81-2.261,26.617-6.784
			c7.176-3.721,14.75-9.258,22.72-16.608c4.182-3.816,10.875-10.576,20.078-20.282c5.108-5.371,10.479-10.788,16.115-16.254
			c1.013,0.236,2.488,0.519,4.425,0.848C105.16,39.335,92.611,54.506,84.289,67.886c-3.523,5.653-5.284,9.446-5.284,11.378
			c0,1.272,0.528,1.908,1.585,1.908c0.792,0,1.805-0.707,3.038-2.12c8.101-9.281,16.182-18.587,24.24-27.915
			c9.467-10.553,18.097-19.268,25.891-26.148c1.056,0.189,2.597,0.519,4.623,0.99c-20.21,18.516-30.316,32.957-30.316,43.32
			c0,2.544,0.704,4.523,2.114,5.937c1.409,1.414,3.324,2.12,5.746,2.12c3.365,0,6.584-1.037,9.661-3.087
			c6.044-1.38,10.534-5.134,12.295-6.905c-1.028,1.396-1.548,2.888-1.548,4.479c0,1.744,1.078,2.615,3.237,2.615
			c1.937,0,4.447-1.154,7.529-3.462c0.219,0.141,0.616,0.211,1.189,0.211c0.66,0,1.827-0.565,3.5-1.696
			c1.135-0.767,1.876-1.401,2.241-1.908h0.056c-1.233,1.524-1.85,2.977-1.85,4.357c0,1.571,0.815,2.357,2.444,2.357
			c2.246,0,4.756-1.366,7.53-4.099h0.066c-0.617,0.72-0.924,1.51-0.924,2.373c0,1.15,0.615,1.726,1.849,1.726
			c1.233,0,3.115-0.927,5.647-2.782c1.007-0.737,1.852-1.424,2.549-2.064c1.247-1.095,3.236-2.972,4.538-4.27h0.066
			c-2.422,3.561-3.632,6.053-3.632,7.477c0,1.094,0.681,1.639,2.047,1.639c1.673,0,3.655-0.951,5.945-2.854
			c1.96-1.65,3.266-2.854,3.943-3.628c0.055-0.056,0.103-0.1,0.162-0.162h0.073c-1.057,1.509-1.585,2.897-1.585,4.169
			c0,1.744,1.21,2.615,3.632,2.615c1.981,0,4.138-0.729,6.472-2.19c1.019-0.63,1.989-1.337,2.915-2.116
			c0.001,0,0.002,0.002,0.003,0.002c0.044,0,2.643-2.349,4.581-4.211c1.938-1.861,3.28-2.791,4.029-2.791
			c0.176,0,0.307,0.146,0.396,0.435c-0.044,0.048-1.123,1.607-3.236,4.677c-2.114,3.07-3.17,4.942-3.17,5.618
			c0,0.289,0.374,0.435,1.123,0.435c0.748,0,3.225-1.908,7.43-5.725c4.205-3.815,6.969-5.724,8.289-5.724
			c0.308,0,0.462,0.12,0.462,0.358s-0.98,1.599-2.939,4.079c-1.959,2.481-2.938,4.341-2.938,5.581c0,0.954,0.66,1.432,1.981,1.432
			c1.585,0,3.567-0.951,5.945-2.854c0.529-0.428,1.387-1.212,2.575-2.354c1.409-1.283,2.114-2.02,2.114-2.212
			C222.525,66.851,222.437,66.804,222.349,66.754z M187.176,69.368c0.704-1.347,1.651-2.718,2.84-4.112
			c1.541-1.827,2.752-2.742,3.633-2.742c0.528,0,0.793,0.217,0.793,0.65c0,2.501-2.421,4.594-7.265,6.276V69.368z M182.206,60.819
			c2.598-3.9,6.209-8.715,10.832-14.449c6.341-7.941,10.324-11.912,11.954-11.912c0.749,0,1.123,0.447,1.123,1.34
			c0,1.833-3.435,6.037-10.304,12.615c-4.536,4.183-9.071,8.342-13.606,12.476V60.819z M92.016,46.119
			C81.977,56.625,72.863,64.352,64.673,69.298c-10.656,6.454-21.774,9.682-33.354,9.682c-7.882,0-14.421-1.343-19.616-4.029
			C4.834,71.419,1.4,65.884,1.4,58.345c0-7.114,3.544-13.474,10.633-19.081c8.101-6.406,17.678-9.917,28.731-10.53
			c-0.705,1.744-1.057,3.675-1.057,5.795c0,4.24,1.409,7.703,4.227,10.388c2.686,2.593,6.054,3.888,10.105,3.888
			c0.925,0,2.091-0.4,3.5-1.202l-0.132-0.07c-0.308,0-0.792,0.106-1.453,0.317c-0.66,0.212-1.167,0.319-1.519,0.319
			c-3.788,0-7.024-1.13-9.709-3.392c-2.862-2.449-4.293-5.654-4.293-9.611c0-2.403,0.462-4.594,1.387-6.572
			c1.409-0.094,2.796-0.142,4.161-0.142c6.472,0,11.778,0.919,15.917,2.756c5.855,2.639,8.784,6.902,8.784,12.791
			c0,3.771-1.684,7.339-5.052,10.706c-3.369,3.37-7.739,5.997-13.11,7.881C47.589,64.329,42.635,65.2,37.66,65.2
			c-4.271,0-7.926-0.683-10.964-2.049c-4.139-1.884-6.208-4.805-6.208-8.763c0,0.188,0.109-0.518,0.33-2.12l-0.066-0.212
			c-0.264-0.142-0.473,0.201-0.627,1.025c-0.155,0.825-0.231,1.473-0.231,1.944c0,3.958,2.267,7.067,6.803,9.328
			c3.567,1.791,7.464,2.686,11.69,2.686c8.146,0,15.587-2.191,22.324-6.573c7.089-4.616,10.634-10.129,10.634-16.537
			c0-6.406-3.281-11.212-9.841-14.416c-5.02-2.449-10.921-3.65-17.701-3.604h-0.727c5.152-6.69,15.168-10.035,30.052-10.035
			c11.624,0,26.044,1.767,43.261,5.3C110.179,27.298,102.056,35.613,92.016,46.119z M118.237,20.824
			c10.523-10.179,16.841-15.269,18.956-15.269c0.439,0,0.66,0.211,0.66,0.633c-1.146,1.783-3.677,4.598-7.596,8.444
			c-2.554,2.345-5.085,4.715-7.596,7.107C122.75,21.738,121.275,21.433,118.237,20.824z M115.059,41.924
			c-3.698,3.907-9.179,10-16.442,18.282C91.705,68.253,86.554,74.3,83.165,78.347c-1.276,1.458-2.157,2.118-2.641,1.976
			l-0.198-0.353c0.043-1.036,1.364-3.509,3.963-7.417c9.465-14.176,23.224-30.589,41.275-49.238l7.06,1.527
			C127.121,29.594,121.266,35.289,115.059,41.924z M186.724,7.321c2.072,1.367,3.108,3.417,3.108,6.148
			c0,4.947-3.197,8.74-9.591,11.378c-4.807,1.932-10.01,2.897-15.61,2.897c-6.129,0-13.228-0.659-21.297-1.978
			c7.144-6.313,12.809-10.788,16.998-13.427c7.099-4.523,13.669-6.785,19.711-6.785C182.733,5.554,184.959,6.144,186.724,7.321z
			 M134.616,24.211c6.12-5.323,12.351-9.987,18.691-13.993c8.806-5.559,15.653-8.339,20.541-8.339c3.698,0,6.01,0.943,6.935,2.827
			c-7.133,0-14.575,2.097-22.324,6.29c-5.724,3.157-12.153,7.821-19.286,13.993C137.148,24.659,135.629,24.4,134.616,24.211z
			 M146.24,69.389c-2.378,2.909-4.425,4.362-6.142,4.362c-0.617,0-0.925-0.329-0.925-0.989c0-1.46,1.123-3.416,3.369-5.866
			c2.025-2.214,3.714-3.804,5.217-4.452c1.38-0.616,1.873,0.46,1.975,0.59c-0.014,0.695-0.076,1.201-0.192,1.493
			C147.913,65.29,146.812,66.91,146.24,69.389z M161.91,69.44c-2.707,2.544-4.701,3.816-5.977,3.816
			c-0.617,0-0.924-0.282-0.924-0.847c0-1.177,1.343-3.121,4.028-5.831c2.686-2.709,4.601-4.064,5.747-4.064
			c0.792,0,1.189,0.424,1.189,1.272C165.973,65.012,164.618,66.896,161.91,69.44z"/>
	</g>
</g>
</svg>
