<?xml version="1.0" encoding="utf-8"?>
<!-- Generator: Adobe Illustrator 19.1.0, SVG Export Plug-In . SVG Version: 6.00 Build 0)  -->
<svg version="1.1" id="Layer_1" xmlns="http://www.w3.org/2000/svg" xmlns:xlink="http://www.w3.org/1999/xlink" x="0px" y="0px"
	 viewBox="0 0 223 83" style="enable-background:new 0 0 223 83;" xml:space="preserve">
<style type="text/css">
	.st0{fill:#30B24A;}
</style>
<g>
	<path class="st0" d="M45.1,52c4.3-5.2,7.4-9.5,9.4-12.9c4.8-8.2,9.8-17.3,15.1-27.1c0.9-1.7,1.7-2.6,2.3-2.6c0.4,0,0.7,0.3,0.7,0.8
		c0,0.4-0.2,1.3-0.6,2.5c-0.3,0.9-1,3.6-2.3,8c-1.3,4.4-2.3,8.1-3.2,11.1c-0.9,3-1.9,6.8-3.1,11.5c-1.2,4.7-2.2,8.9-3.1,12.8
		c6.3-6.5,14.3-18.5,23.8-35.8c2.7-4.9,4.4-7.7,4.9-8.2c0.2-0.2,0.5-0.3,0.6-0.3c0.4,0,0.6,0.2,0.6,0.5c0,0.5-0.1,0.9-0.2,1.4
		c-2.5,7.7-5,17.9-7.6,30.7c-1.2,5.7-1.7,10.3-1.7,14c0,3.8,0.4,7,1.3,9.8c0.2,0.7,0.5,1.4,0.9,2c0.3,0.6,0.6,1.1,0.9,1.5
		c0.2,0.3,0.3,0.6,0.3,0.7c0,0.3-0.3,0.5-0.8,0.5c-0.4,0-1.2-0.2-2.1-0.7c-1-0.5-1.8-1.1-2.5-1.8c-3.1-3.2-4.6-8.3-4.6-15.2
		c0-5.6,1.1-12.1,3.4-19.6c-2.5,4.7-5.1,9-8,13c-2.9,4-7.2,9.4-12.8,16.3c-0.8,0.9-1.8,1.9-3,3c-1.3,1.2-2.1,1.7-2.5,1.7
		c-0.6,0-0.8-0.4-0.8-1.2c0-0.8,0.2-1.8,0.5-3c0.3-1.4,0.9-3.9,1.6-7.3c0.7-3.5,1.4-6.5,2.1-9.1c0.7-2.6,1.7-6.1,3-10.4
		c-4.1,6.5-7.6,11.6-10.7,15.4c-1.9,2.3-3.7,4.3-5.4,6c-1.7,1.7-3.8,3.5-6.3,5.4c-2.5,1.9-5.2,3.4-8.2,4.4s-6.1,1.5-9.4,1.5
		c-3.1,0-6-0.6-8.8-1.7c-1-0.4-1.9-0.9-2.7-1.5c-0.9-0.6-1.3-1.2-1.3-1.6c0-0.5,0.2-0.8,0.5-0.8c0.1,0,0.4,0.1,0.7,0.3
		C6,65.8,6.4,66.1,7,66.4c0.5,0.3,1.1,0.6,1.6,0.9c2.6,1.1,5.5,1.6,8.7,1.6c4.8,0,9.6-1.6,14.4-4.8C36.5,61,41,56.9,45.1,52z"/>
	<path class="st0" d="M104.2,50.3c2.5,0.1,4.6,0.8,6.3,2.4c1.6,1.5,2.4,3.6,2.4,6.3c0,3-1.1,5.6-3.4,7.7c-2.2,2.1-5.2,3.2-8.9,3.2
		c-2.9,0-5.2-0.8-6.8-2.4c-1.6-1.6-2.5-3.7-2.5-6.3c0-2.6,1.1-5.1,3.3-7.4C96.9,51.5,100,50.3,104.2,50.3z M97,62.2
		c0,4.1,1.3,6.1,3.8,6.1c1.7,0,3.1-1,4.3-3.1c1.2-2.1,1.8-4.6,1.8-7.5c0-3.8-1.2-5.7-3.5-5.7c-1.8,0-3.3,1.1-4.6,3.3
		C97.6,57.3,97,59.7,97,62.2z"/>
	<path class="st0" d="M140.6,70.5c-1.4,0-2.5-0.4-3.4-1.1c-0.9-0.7-1.8-2-2.6-3.8c-1.8,3-4.2,4.4-7,4.4c-2.3,0-4.2-0.8-5.6-2.3
		c-1.5-1.5-2.2-3.6-2.2-6.3c0-2.9,1.1-5.5,3.3-7.7s4.9-3.4,8.1-3.4c2,0,3.6,0.8,4.6,2.2c1.2-6.5,3.5-13.9,6.7-22.2
		c1.5-3.8,3-7.3,4.8-10.6c1.7-3.3,3.1-5.7,4.2-7.3c1.1-1.6,1.9-2.6,2.5-3c0.3-0.2,0.6-0.4,0.8-0.4c0.1,0,0.2,0.1,0.2,0.3
		c0,0.2-0.3,0.7-0.9,1.7c-1.3,2.6-3,6.5-5,11.9c-2.4,6.4-4.6,13.9-6.6,22.4c-2,8.5-3,15.2-3,19.9c0,1,0.2,1.9,0.5,2.7
		c0.3,0.9,0.8,1.3,1.5,1.3c0.3,0,0.6-0.1,0.9-0.2c0.3-0.1,0.5-0.2,0.6-0.2c0.2,0,0.2,0.1,0.2,0.3c0,0.3-0.3,0.6-0.8,0.9
		C141.8,70.3,141.2,70.5,140.6,70.5z M132.6,52.3c-1.9,0-3.5,1.1-4.9,3.4c-1.4,2.3-2.1,4.7-2.1,7.3c0,1.4,0.2,2.6,0.8,3.6
		c0.5,1,1.3,1.5,2.3,1.5c1.8,0,3.4-1.2,4.7-3.7c1.3-2.4,1.9-5,1.9-7.7c0-1.4-0.3-2.5-0.8-3.3C134,52.6,133.4,52.3,132.6,52.3z"/>
	<path class="st0" d="M151.8,60c0-5.8,1.4-12.3,4.2-19.3c-1.5,0.7-3.5,1.4-5.8,2c-1,0.3-1.8,0.5-2.4,0.5c-0.5,0-0.8-0.2-0.8-0.5
		c0-0.2,0.1-0.3,0.2-0.3c0.1-0.1,0.3-0.2,0.5-0.3c0.2-0.1,0.5-0.2,0.7-0.3c0.2-0.1,0.6-0.2,1-0.3c0.5-0.1,0.9-0.3,1.3-0.4
		c2.5-0.9,4.6-1.8,6.3-2.8c2.5-5,4.7-9,6.5-11.9c1.5-2.5,3.2-4.6,5-6.3c1.8-1.7,3.3-2.5,4.6-2.5c0.9,0,1.6,0.3,2.1,0.9
		c0.5,0.6,0.8,1.2,0.8,2c0,1.9-0.9,4.2-2.5,6.9c-2.4,3.8-6.3,7.4-11.5,10.9c-3.2,7.8-4.8,15.7-4.8,23.8c0,3.7,1.1,5.5,3.5,5.5
		c0.8,0,1.5-0.2,2.2-0.7c0.2-0.1,0.4-0.2,0.7-0.4c0.2-0.2,0.5-0.3,0.6-0.5c0.2-0.1,0.3-0.2,0.3-0.2c0.3,0,0.5,0.1,0.5,0.5
		c0,0.4-0.6,1.1-1.7,1.9c-1.3,0.9-2.6,1.3-4,1.3C154.2,69.4,151.8,66.3,151.8,60z M171.1,27.6c2-2.8,3.1-5,3.1-6.5
		c0-1.4-0.4-2-1.3-2c-1.3,0-3.1,1.9-5.2,5.6c-2.1,3.8-3.8,7.4-5.1,10.8c1.2-0.8,2.7-1.9,4.4-3.5C168.8,30.4,170.1,28.9,171.1,27.6z"
		/>
	<path class="st0" d="M168.5,61.3c0-2.8,1.2-5.3,3.5-7.6c2.3-2.3,5.2-3.5,8.5-3.5c1.6,0,2.9,0.4,4,1.2c1.1,0.8,1.7,1.9,1.7,3.5
		c0,3.1-2.7,5.1-8.2,6.1c-1.6,0.3-2.8,0.4-3.5,0.4c0,2,0.4,3.6,1.2,4.8c0.8,1.2,2,1.9,3.8,1.9c1.6,0,2.9-0.3,4-1
		c0.2-0.1,0.5-0.3,0.7-0.4c0.2-0.1,0.4-0.2,0.5-0.3c0.1-0.1,0.2-0.2,0.4-0.3c0.1-0.1,0.2-0.1,0.3-0.2c0.1,0,0.1-0.1,0.2-0.1
		c0.3,0,0.5,0.2,0.5,0.5c0,0.4-0.4,0.9-1.1,1.5c-2,1.6-4.4,2.4-7.3,2.4c-2.5,0-4.6-0.7-6.4-2C169.4,66.9,168.5,64.6,168.5,61.3z
		 M180.5,51.9c-1.2,0-2.5,0.7-3.7,2.1c-1.2,1.4-1.9,3.4-2.1,5.8c0.9,0,1.9-0.2,3-0.6c1.3-0.4,2.5-1.1,3.3-2.2c0.9-1,1.3-2.1,1.3-3.2
		C182.3,52.6,181.7,51.9,180.5,51.9z"/>
	<path class="st0" d="M206,65.4c0-1.2,0.2-2.6,0.5-4c0.8-3.3,1.2-5.4,1.2-6.4c0-1.6-0.6-2.4-1.7-2.4c-2.2,0-4,2.3-5.7,6.8
		c-0.5,1.2-1,2.8-1.5,4.8c-0.6,2.1-1,3.5-1.2,4.2c-0.2,0.6-0.6,0.9-1.2,0.9h-3.9c-0.4,0-0.6-0.2-0.6-0.6c0-0.3,0.2-1,0.5-2.2
		c0.9-2.9,1.6-5.5,2.2-7.7c0.6-2.6,0.9-4.4,0.9-5.4c0-1.3-0.5-2-1.6-2c-0.4,0-0.9,0.2-1.6,0.5c-0.7,0.3-1,0.5-1,0.5
		c-0.3,0-0.5-0.1-0.5-0.4c0-0.3,0.4-0.8,1.2-1.3c1.1-0.7,2.3-1.1,3.7-1.1c1.6,0,2.8,0.5,3.6,1.6c0.8,0.9,1.1,2.2,1.1,3.9
		c0.6-1.1,1.5-2.2,2.6-3.1c1.6-1.2,3.5-1.9,5.6-1.9c1.3,0,2.4,0.5,3.2,1.4c0.8,1,1.2,2.2,1.2,3.6c0,1-0.4,3.6-1.1,7.5
		c-0.3,1.8-0.5,3-0.5,3.4c0,1.3,0.4,2,1.2,2c0.6,0,1.1-0.1,1.6-0.4c0.2,0,0.3-0.1,0.4-0.2c0.1-0.1,0.2-0.2,0.3-0.2
		c0.1,0,0.2-0.1,0.2-0.1c0.1,0,0.1,0,0.2,0c0.2,0,0.4,0.1,0.4,0.5c0,0.2-0.2,0.6-0.6,0.9c-0.4,0.4-0.8,0.6-1.2,0.8
		c-1,0.4-2.1,0.6-3.4,0.6c-1.2,0-2.3-0.4-3.2-1.1C206.4,68.2,206,67,206,65.4z"/>
</g>
<path class="st0" d="M10.1,64.1c-0.8-0.2-1.4-0.7-1.9-1.4c-0.4-0.7-0.6-1.5-0.3-2.3c0.2-0.8,0.7-1.4,1.3-1.8
	c0.7-0.4,1.5-0.6,2.3-0.4c0.8,0.2,1.4,0.6,1.9,1.4c0.4,0.7,0.6,1.5,0.4,2.3c-0.2,0.8-0.7,1.5-1.4,1.9C11.6,64.2,10.9,64.3,10.1,64.1
	z"/>
<g>
</g>
<g>
</g>
<g>
</g>
<g>
</g>
<g>
</g>
<g>
</g>
</svg>
