<?xml version="1.0" encoding="utf-8"?>
<!-- Generator: Adobe Illustrator 17.0.0, SVG Export Plug-In . SVG Version: 6.00 Build 0)  -->
<!DOCTYPE svg PUBLIC "-//W3C//DTD SVG 1.1//EN" "http://www.w3.org/Graphics/SVG/1.1/DTD/svg11.dtd">
<svg version="1.1" id="Layer_1" xmlns="http://www.w3.org/2000/svg" xmlns:xlink="http://www.w3.org/1999/xlink" x="0px" y="0px"
	 width="46.563px" height="45.31px" viewBox="374.912 368.76 46.563 45.31" enable-background="new 374.912 368.76 46.563 45.31"
	 xml:space="preserve">
<g>
	<g id="layer1">
		<path id="path3847" fill="#FFFFFC" d="M378.209,371.76c0.064,0.001,0.129,0.007,0.192,0.018c0.001,0,0.002,0,0.004,0l6.327,1.081
			c0.402,0.069,0.74,0.345,0.889,0.725c0,0.001,0,0.002,0,0.004l2.936,7.529l28.655,0.715c0.33,0.008,0.639,0.157,0.853,0.405
			c0.214,0.248,0.317,0.578,0.277,0.906l-1.582,13.085c-0.065,0.549-0.519,0.984-1.07,1.027l-20.429,1.625l-4.049,3.185
			c-0.005,0.004-0.009,0.007-0.014,0.011c-0.004,0.003-0.01,0.004-0.014,0.007c-0.005,0.003-0.009,0.007-0.014,0.011
			c-0.739,0.552-0.922,1.303-0.818,1.721c0.06,0.238,0.15,0.413,0.366,0.547c0.216,0.135,0.589,0.232,1.226,0.196
			c0.002,0,0.005,0,0.007,0c0.02-0.001,0.044,0,0.064,0c0.003,0,0.007,0,0.011,0l24.364,0.071h0.004
			c0.64-0.004,1.179,0.533,1.177,1.173c-0.003,0.64-0.544,1.175-1.184,1.166c-0.001,0-0.002,0-0.004,0l-1.781-0.004
			c0.662,0.422,1.106,1.16,1.106,1.998c0,1.303-1.068,2.371-2.371,2.371c-1.303,0-2.371-1.068-2.371-2.371
			c0-0.843,0.445-1.588,1.113-2.009l-20.063-0.057c0.723,0.408,1.216,1.181,1.216,2.065c0,1.303-1.068,2.371-2.371,2.371
			c-1.303,0-2.371-1.068-2.371-2.371c0-1.132,0.804-2.086,1.87-2.318c-1.008-0.357-1.781-1.091-2.261-2.215
			c-0.007-0.014-0.013-0.028-0.018-0.043c-0.367-1.469,0.284-3.067,1.628-4.106c0.003-0.004,0.007-0.007,0.011-0.011
			c0.003-0.003,0.004-0.008,0.007-0.011c0.012-0.014,0.025-0.027,0.039-0.039l2.869-2.25l-8.947-22.918l-5.677-0.967
			c-0.001,0-0.003,0-0.004,0c-0.596-0.096-1.033-0.652-0.981-1.255C377.076,372.226,377.603,371.752,378.209,371.76L378.209,371.76z
			 M389.42,382.922l1.649,4.23h2.151v-4.134L389.42,382.922z M394.042,383.039v4.113h3.971v-4.013L394.042,383.039z
			 M398.833,383.157v3.996h3.971v-3.896L398.833,383.157z M403.625,383.277v3.875h3.971v-3.775L403.625,383.277z M408.417,383.398
			v3.754h3.971v-3.654L408.417,383.398z M413.209,383.516v3.637h2.911l0.43-3.551L413.209,383.516z M416.021,387.97h-2.812v3.715
			h2.364L416.021,387.97z M412.388,387.97h-3.971v3.715h3.971V387.97z M407.596,387.97h-3.971v3.715h3.971V387.97z M402.804,387.97
			h-3.971v3.715h3.971V387.97z M398.012,387.97h-3.971v3.715h3.971V387.97z M393.22,387.97h-1.834l1.45,3.715h0.384V387.97z
			 M415.473,392.502h-2.264v2.666l1.962-0.156L415.473,392.502z M412.388,392.502h-3.971v3.046l3.971-0.316V392.502z
			 M407.596,392.502h-3.971v3.427l3.971-0.313V392.502z M402.804,392.502h-3.971v3.811l3.971-0.316V392.502z M398.012,392.502
			h-3.971v2.261l0.754,1.93c0.098-0.047,0.205-0.077,0.313-0.085l2.904-0.231V392.502z M393.22,392.502h-0.06l0.06,0.167V392.502z
			 M413.337,407.567c-0.775,0-1.393,0.619-1.393,1.393c0,0.775,0.619,1.39,1.393,1.39s1.393-0.615,1.393-1.39
			C414.73,408.186,414.112,407.567,413.337,407.567z M390.86,407.567c-0.775,0-1.393,0.619-1.393,1.393
			c0,0.775,0.619,1.39,1.393,1.39c0.775,0,1.393-0.615,1.393-1.39C392.253,408.186,391.635,407.567,390.86,407.567z
			 M413.337,408.228c0.421,0,0.757,0.336,0.757,0.757c0,0.421-0.336,0.754-0.757,0.754c-0.421,0-0.757-0.333-0.757-0.754
			C412.58,408.565,412.916,408.228,413.337,408.228z M390.86,408.228c0.421,0,0.757,0.336,0.757,0.757
			c0,0.421-0.336,0.754-0.757,0.754c-0.421,0-0.757-0.333-0.757-0.754C390.103,408.565,390.439,408.228,390.86,408.228z"/>
	</g>
</g>
</svg>
