<?xml version="1.0" standalone="no"?>
<!DOCTYPE svg PUBLIC "-//W3C//DTD SVG 1.1//EN" "http://www.w3.org/Graphics/SVG/1.1/DTD/svg11.dtd" >
<svg>
<metadata>
Created by FontForge 20090622 at Sat Sep 12 15:10:33 2015
 By deploy user
Copyright (c) 2008 by Art. Lebedev Studio. All rights reserved.
</metadata>
<defs>
<font id="Klinkopis" horiz-adv-x="600" >
  <font-face 
    font-family="Klinkopis"
    font-weight="400"
    font-stretch="normal"
    units-per-em="1000"
    panose-1="2 0 5 5 0 0 0 2 0 2"
    ascent="750"
    descent="-250"
    x-height="255"
    cap-height="797"
    bbox="-788 -870 1323 1120"
    underline-thickness="50"
    underline-position="-50"
    unicode-range="U+0020-U+F739"
  />
<missing-glyph horiz-adv-x="301" 
 />
    <glyph glyph-name=".notdef" horiz-adv-x="301" 
 />
    <glyph glyph-name=".null" horiz-adv-x="0" 
 />
    <glyph glyph-name="nonmarkingreturn" horiz-adv-x="333" 
 />
    <glyph glyph-name="space" unicode=" " horiz-adv-x="200" 
 />
    <glyph glyph-name="exclam" unicode="!" horiz-adv-x="424" 
d="M301 708q7 26 14 34t18 8h34q17 0 17 -19q0 -35 -30 -131q-13 -40 -52.5 -130t-71.5 -151q-67 -127 -87 -127q-9 0 -9 9q0 6 4 14q57 148 73 197q63 193 90 296zM40 41q0 17 12 28.5t28 11.5q17 0 29 -11.5t12 -28.5t-12 -29t-29 -12t-28.5 12t-11.5 29z" />
    <glyph glyph-name="quotedbl" unicode="&#x22;" horiz-adv-x="311" 
d="M261 634q0 -17 -14 -56t-33.5 -79.5t-33.5 -40.5q-10 0 -10 19q0 11 28 148q5 25 25 25h22q7 0 11.5 -5t4.5 -11zM141 634q0 -17 -14 -56t-33.5 -79.5t-33.5 -40.5q-10 0 -10 19q0 11 28 148q5 25 25 25h22q7 0 11.5 -5t4.5 -11z" />
    <glyph glyph-name="numbersign" unicode="#" horiz-adv-x="700" 
d="M271 188h-37q-44 -98 -92 -174q-50 -81 -70 -81q-7 0 -8 6q0 6 2 10q49 78 118 237q-45 -2 -82 -6t-46 -4q-29 0 -29 13q0 21 69 31q22 3 106 7l64 153l2 6q-46 -2 -90.5 -6t-53.5 -4q-29 0 -29 13q0 19 81 31q33 4 109 7q38 92 94 193q14 25 39 55.5t36 30.5q8 0 8 -7
q0 -4 -25 -48q-55 -105 -103 -222q30 1 73.5 2t51.5 1q12 0 18 1q42 96 92 187q14 25 39 55.5t36 30.5q8 0 8 -7q0 -4 -25 -48q-56 -107 -100 -214q33 3 65 8l50 8t21 3q18 0 18 -10q0 -33 -171 -50l-8 -22l-57 -138q33 3 67.5 8.5l54 8.5t23.5 3q22 0 22 -10
q0 -32 -185 -51q-51 -112 -95 -181q-50 -81 -70 -81q-7 0 -8 6q0 6 2 10q51 84 120 242q-52 -3 -105 -3zM351 388h-34l-5 -14l-60 -145q31 1 75 2t52 1q10 0 15 1q32 73 66 159q-49 -4 -109 -4z" />
    <glyph glyph-name="dollar" unicode="$" 
d="M78 73q-4 6 -4 10q0 8 9 8q4 0 12 -8q67 -62 145 -62q61 0 100 41t39 104q0 41 -18 89.5t-39.5 86.5t-39.5 87.5t-18 91.5q0 64 44.5 110.5t121.5 46.5q17 31 58 83q12 15 33.5 35.5t27.5 20.5q8 0 8 -7q0 -4 -13 -18.5t-35 -46.5t-39 -72q27 -7 55 -31q12 -12 12 -17
q0 -8 -6 -8q-5 0 -11 4q-36 30 -75 30q-46 0 -71.5 -29t-25.5 -76q0 -44 29 -105.5l58.5 -128t29.5 -122.5q0 -83 -60.5 -141t-146.5 -58q-54 -111 -127 -187q-74 -77 -164 -117q-35 -16 -57 -16q-10 0 -10 6q0 5 8 8q31 10 46 19q76 43 143 119q64 75 98 174
q-64 15 -117 76zM148 149q0 26 24 26q26 0 26 -26q0 -24 -26 -24q-10 0 -17 6.5t-7 17.5z" />
    <glyph glyph-name="percent" unicode="%" horiz-adv-x="628" 
d="M34 -6q36 37 79 90t66.5 84.5l73.5 100.5t58 79q106 144 186 234q16 18 48.5 46.5t44.5 28.5q8 0 8 -8q0 -3 -8 -12t-19.5 -20.5t-15.5 -16.5q-59 -68 -203 -266q-140 -193 -231 -291q-61 -65 -83 -65q-8 0 -8 6q0 5 4 10zM246 650q35 0 62 -22.5t27 -64.5
q0 -46 -37 -75.5t-86 -29.5q-41 0 -68.5 25t-27.5 69q0 36 37 67t93 31zM174 545q0 -68 41 -68q25 0 43.5 30t18.5 69q0 55 -38 55q-22 0 -43.5 -28.5t-21.5 -57.5zM433 192q40 -1 69.5 -24t29.5 -63q0 -45 -37.5 -75t-85.5 -30q-45 0 -70.5 25t-25.5 66q0 42 31.5 71.5
t88.5 29.5zM371 79q0 -60 37 -60q27 0 46.5 27.5t19.5 71.5q0 55 -38 55q-28 0 -46.5 -29t-18.5 -65z" />
    <glyph glyph-name="ampersand" unicode="&#x26;" horiz-adv-x="564" 
d="M50 170q0 73 52.5 135.5t166.5 130.5q0 32 6 66t20 69t42.5 57.5t66.5 22.5q29 0 46.5 -21t17.5 -50q0 -24 -10.5 -45.5t-32.5 -41t-40 -32t-48 -30.5q20 -149 86 -302q20 18 46 58q5 8 11 8q7 0 7 -11q0 -30 -52 -84q81 -185 213.5 -347t289.5 -257q62 -37 170 -78
q6 -2 6 -9q0 -9 -10 -9q-36 0 -87 21q-210 84 -376 246q-180 176 -273 377q-66 -49 -144 -49q-74 0 -124 47t-50 128zM244 24q57 0 111 46q-81 176 -85 323q-66 -47 -98 -112t-32 -122q0 -61 27.5 -98t76.5 -37zM332 466q103 50 103 115q0 18 -10 31t-27 13q-33 0 -52 -29.5
t-19 -66.5q0 -41 5 -63zM948 -391q0 26 24 26q26 0 26 -26q0 -24 -26 -24q-10 0 -17 6.5t-7 17.5z" />
    <glyph glyph-name="quotesingle" unicode="'" horiz-adv-x="186" 
d="M156 479q0 -20 -14 -59q-12 -35 -35 -77.5t-37 -42.5q-10 0 -10 19q0 14 28 151q5 25 25 25h27q7 0 11.5 -5t4.5 -11z" />
    <glyph glyph-name="parenleft" unicode="(" horiz-adv-x="426" 
d="M530 900q11 9 18 9q8 0 8 -9l-8 -12q-87 -94 -150 -188q-84 -126 -155.5 -283.5t-109.5 -315.5q-32 -138 -43 -287q-2 -13 -10 -13t-11 10q-19 54 -19 163q0 101 18 187q49 236 167.5 414.5t294.5 324.5z" />
    <glyph glyph-name="parenright" unicode=")" horiz-adv-x="495" 
d="M332 414q19 63 30.5 150.5t11.5 124.5q0 99 -18 175q-10 43 -10 53q0 7 6 7q8 0 11 -7q37 -58 59.5 -143.5t22.5 -157.5q0 -261 -155 -509q-102 -164 -250 -277q-8 -4 -12 -4q-8 0 -8 10q0 6 6 12q206 231 306 566z" />
    <glyph glyph-name="asterisk" unicode="*" horiz-adv-x="384" 
d="M92 714q0 12 10 12q3 0 13 -12q56 -66 77 -81q29 75 56 112q10 14 18 14q6 0 6 -7t-8 -26q-23 -51 -36 -101q27 6 57 19l32.5 15t20 10t8.5 3q6 0 6 -7q0 -9 -32 -32q-28 -21 -87 -41q22 -24 77 -59q18 -10 18 -16q0 -7 -7 -7q-46 0 -114 52q-9 -27 -29 -63.5t-39 -57.5
q-16 -18 -25 -18q-6 0 -6 8q0 3 4.5 10.5l13 21.5t14.5 27q24 52 32 78q-30 -7 -53.5 -16.5t-35 -15t-16.5 -5.5q-7 0 -7 7q0 4 8 12q40 31 100 52q-27 28 -51.5 63.5t-24.5 48.5z" />
    <glyph glyph-name="plus" unicode="+" horiz-adv-x="464" 
d="M43 315q9 0 30 -3.5t31 -4.5q33 -4 102 -6q7 32 28 95q8 24 30 62.5t39 38.5q7 0 7 -8q0 -5 -4 -16t-9.5 -24.5t-7.5 -17.5q-22 -59 -34 -130q28 0 45 1q30 1 70 8t43 7q21 0 21 -9q0 -38 -158 -48l-30 -2l-16 -59q-11 -55 -21 -85t-16.5 -38.5t-14.5 -8.5t-8 19
q0 22 3 44l9 55l15 74q-56 2 -102 11q-39 7 -51 14.5t-14 22.5q0 8 13 8z" />
    <glyph glyph-name="comma" unicode="," horiz-adv-x="260" 
d="M104 33q0 17 12 28.5t30 11.5q22 0 33 -16t11 -36q0 -46 -34.5 -90.5t-78.5 -68.5q-28 -16 -47 -16q-10 0 -10 6q0 5 7 8q31 13 50 28q55 44 68 104q-41 3 -41 41z" />
    <glyph glyph-name="hyphen" unicode="-" horiz-adv-x="301" 
d="M30 151q0 14 30 33.5t69 19.5q16 0 41 -6t35 -6q33 0 51 12q6 4 9 4q6 0 6 -6t-4 -10q-32 -38 -80 -38q-14 0 -42.5 5t-36.5 5q-21 0 -42 -7l-30 -12q-6 0 -6 6z" />
    <glyph glyph-name="period" unicode="." horiz-adv-x="161" 
d="M30 41q0 17 12 28.5t28 11.5q17 0 29 -11.5t12 -28.5t-12 -29t-29 -12t-28.5 12t-11.5 29z" />
    <glyph glyph-name="slash" unicode="/" horiz-adv-x="637" 
d="M54 -6l40 46t44.5 57l41 55.5t44 62.5l38 56l39 58.5t31.5 48.5q87 132 157 214q18 21 47.5 45.5t42.5 24.5q8 0 8 -8q0 -3 -5.5 -9.5t-15 -16t-13.5 -14.5q-70 -86 -176 -250q-146 -226 -236 -321q-61 -65 -83 -65q-8 0 -8 6q0 5 4 10z" />
    <glyph glyph-name="zero" unicode="0" 
d="M79 137q0 114 61 233.5t163 200.5t208 81q129 0 129 -138q0 -73 -37 -162.5t-96 -167.5t-142.5 -131t-167.5 -53q-58 0 -88 37.5t-30 99.5zM511 627q-75 0 -162.5 -98t-143.5 -220.5t-58 -199.5q-1 -80 53 -80t122 58t123 139t93 172.5t38 154.5q0 37 -17.5 55.5
t-47.5 18.5z" />
    <glyph glyph-name="one" unicode="1" 
d="M352 -1q-37 12 -118 12q-45 0 -105.5 -20.5t-67.5 -20.5q-14 0 -16 10q-6 17 14 26q71 25 155 37q32 81 110 257.5l92 209.5q-32 -31 -115 -72q-68 -34 -87 -34q-21 0 -21 9q0 12 27 23q119 45 255 152l27 23t35 28.5t21 10.5q11 0 11 -8q0 -3 -5.5 -13.5t-21.5 -37
t-31 -55.5q-38 -70 -102.5 -228.5t-104.5 -269.5q43 -3 69 -12q9 -4 9 -9q0 -25 -30 -18z" />
    <glyph glyph-name="two" unicode="2" 
d="M65 0q-13 0 -13 12q0 19 44 75q30 38 82.5 83l99.5 82t91.5 79t71 92.5t26.5 105.5q0 37 -20 64t-56 27q-52 0 -91 -35q-6 -5 -15.5 -17t-16.5 -20t-11 -8q-8 0 -8 9q0 7 9 21q52 79 150 79q70 0 109.5 -38t39.5 -104q0 -47 -31 -93.5t-81.5 -86.5t-104 -76.5t-110 -79
t-87.5 -77.5q56 15 95 15q71 0 146 -66q28 -25 53 -25q14 0 28.5 4.5t17.5 4.5q11 0 11 -8q0 -11 -25 -18.5t-42 -7.5q-50 0 -110.5 23t-99.5 23q-45 0 -95.5 -19.5t-56.5 -19.5z" />
    <glyph glyph-name="three" unicode="3" 
d="M36 44q-2 4 -2 8q0 7 8 7q2 -1 3 -1q43 -35 102 -35q55 0 109 30.5t89 90.5q43 72 43 169q0 51 -24 90t-80 39q-21 0 -44 -8t-25 -8q-9 0 -9 6q0 2 2 6q2 2 10.5 6t21 10.5l18.5 9.5q22 11 35.5 19.5t31 23t26 32.5t8.5 40q0 15 -12 28.5t-29 13.5q-19 0 -39 -11
q-10 -5 -20 -14l-16 -14.5t-9 -5.5q-5 0 -5 9q0 6 12.5 20.5t39.5 29t56 14.5q39 0 62.5 -21t23.5 -52q0 -41 -38.5 -67.5t-83.5 -37.5q17 0 37 -3.5t46 -15t46.5 -29.5t34.5 -51.5t14 -76.5q0 -71 -52 -143t-133 -117q-65 -35 -140 -35q-26 0 -61 11t-57 33z" />
    <glyph glyph-name="four" unicode="4" 
d="M50 171q68 48 169 155q129 137 206 271q25 44 43 84.5l24 54.5t12 14q8 0 8 -10q0 -25 -44.5 -122t-89.5 -168q-109 -173 -202 -273q100 0 170 22q33 74 59 124q8 23 31 23h25q23 0 23 -13q0 -3 -4 -15q-45 -98 -85 -206l-13.5 -39l-11 -32.5t-8.5 -21.5t-9.5 -15
t-10.5 -4h-46q-15 0 -15 14q0 30 55 157q-47 -10 -131 -18t-123 -8t-39 15q0 6 7 11z" />
    <glyph glyph-name="five" unicode="5" 
d="M179 -5q-46 0 -80.5 17t-49.5 44q-11 20 -11 34q1 6 9 6q2 0 8 -12q18 -37 48.5 -51t53.5 -14q55 0 104 36t79 87t47 99.5t17 78.5q0 102 -78 102q-32 0 -62 -14t-48.5 -27.5t-22.5 -13.5q-11 0 -2 19l39 65q32 53 97 184q9 19 23 19q2 0 48 -10.5t79 -10.5q39 0 63 6
l16 4.5t14.5 4.5t8.5 2q10 0 10 -10q0 -9 -35 -24q-41 -18 -102 -18q-33 0 -63 5q-27 -65 -81 -162q26 6 41 6q66 0 100.5 -41.5t34.5 -109.5q0 -121 -93 -211t-212 -90z" />
    <glyph glyph-name="six" unicode="6" 
d="M85 206q0 55 17.5 116t52 119t80 105t106 75.5t124.5 28.5q23 0 43.5 -6.5t31 -14t10.5 -12.5q0 -10 -13 -10q-3 0 -24 8t-37 8q-84 0 -170 -97.5t-127 -249.5q27 36 71.5 58.5t86.5 22.5q71 0 114 -41.5t43 -110.5q0 -88 -74 -146.5t-158 -58.5q-86 0 -131.5 54.5
t-45.5 151.5zM165 143q0 -52 25 -86t72 -34q63 0 101.5 56t38.5 133q0 43 -20 78t-66 35q-61 0 -106 -55t-45 -127z" />
    <glyph glyph-name="seven" unicode="7" 
d="M208 190q-27 0 -48 -5.5t-23 -5.5q-12 0 -12 10q0 16 33.5 24t65.5 8q83 175 246 366q-18 -2 -27 -2q-37 0 -82.5 20t-59.5 20q-16 0 -30 -8q-19 -11 -38 -33q-2 -2 -7 -8t-8.5 -9.5t-7.5 -3.5q-6 0 -6 8q0 16 22.5 43t42.5 36q20 10 41 10q10 0 54.5 -11.5t98.5 -11.5
q36 0 78 7.5t47 7.5q12 0 12 -9t-22 -33q-37 -41 -92 -108t-75 -98q-66 -103 -112 -195q23 -5 32 -5q18 0 37 8q28 13 29 13q10 0 10 -9t-13 -19q-28 -24 -72 -24q-12 0 -36 4q-47 -101 -66 -158q-3 -11 -7.5 -15t-15.5 -4h-47q-12 0 -12 12q0 20 25.5 81t44.5 97z" />
    <glyph glyph-name="eight" unicode="8" 
d="M62 156q0 50 29 99t77 88.5t94 68t96 51.5q-28 54 -28 89q0 42 30 70t85 28q30 0 56 -16.5t26 -50.5q0 -21 -8 -39t-25.5 -32t-28 -21.5t-34 -19l-25.5 -12.5q83 -102 83 -219q0 -96 -74.5 -168t-178.5 -72q-75 0 -124.5 39t-49.5 117zM137 129q-1 -51 30.5 -80t73.5 -29
q44 0 78 29t52.5 73.5t28 89.5t9.5 84q0 27 -9 73t-27 71q-103 -48 -168.5 -139t-67.5 -172zM446 630q-33 0 -51.5 -24t-18.5 -60q0 -21 18 -64q38 16 63.5 45t25.5 65q0 17 -11.5 27.5t-25.5 10.5z" />
    <glyph glyph-name="nine" unicode="9" 
d="M378 390q-55 -61 -142 -61q-48 0 -76.5 35t-28.5 81q0 87 70.5 146t162.5 59q54 0 88 -40t34 -96q0 -218 -212 -418q-35 -33 -93.5 -64.5t-81.5 -31.5q-8 0 -8 8q0 6 6 8q41 11 83 45q52 43 96 106q85 124 102 223zM206 423q0 -28 12.5 -47.5t39.5 -19.5q71 0 117.5 68
t46.5 136q0 35 -15.5 52.5t-41.5 17.5q-64 0 -111.5 -68t-47.5 -139z" />
    <glyph glyph-name="colon" unicode=":" horiz-adv-x="242" 
d="M60 33q0 17 12 28.5t28 11.5q17 0 29 -11.5t12 -28.5t-12 -29t-29 -12t-28.5 12t-11.5 29zM101 221q0 17 11.5 28.5t28.5 11.5t29 -11.5t12 -28.5t-12 -29t-29 -12t-28.5 12t-11.5 29z" />
    <glyph glyph-name="semicolon" unicode=";" horiz-adv-x="251" 
d="M95 33q0 17 12 28.5t30 11.5q20 0 32 -16t12 -36q0 -45 -30.5 -85t-73.5 -64q-28 -16 -47 -16q-10 0 -10 6q0 5 7 8q31 13 50 28q47 36 59 94q-41 3 -41 41zM130 221q0 17 12 28.5t28 11.5q17 0 29 -11.5t12 -28.5t-12 -29t-29 -12t-28.5 12t-11.5 29z" />
    <glyph glyph-name="less" unicode="&#x3c;" horiz-adv-x="473" 
d="M202 326q66 39 131 85q14 10 28.5 22.5t21.5 17.5t11 5q9 0 9 -10q0 -14 -37 -51q-80 -80 -202 -141q48 -19 132 -92q44 -37 55 -52q8 -10 8 -17q0 -8 -10 -8q-8 0 -19 6.5t-39 25.5l-53 35q-58 36 -155 81q-13 6 -13 17q0 10 12 16q93 44 120 60z" />
    <glyph glyph-name="equal" unicode="=" horiz-adv-x="480" 
d="M237 350q-64 0 -117 -3.5t-55 -3.5q-21 0 -21 13q0 20 52 28q26 4 101 8q29 1 70.5 1.5t48.5 0.5q30 2 69.5 7.5t43.5 5.5q21 0 21 -9q0 -22 -61.5 -35t-151.5 -13zM49 215q-19 0 -19 14q0 28 71 28q29 0 89.5 -1.5t96.5 -1.5q34 0 82.5 6.5t49.5 6.5q19 0 19 -12
q0 -21 -60 -33t-127 -12q-32 0 -99 2.5t-103 2.5z" />
    <glyph glyph-name="greater" unicode="&#x3e;" horiz-adv-x="477" 
d="M275 210q-81 -45 -131 -81l-29 -22t-24.5 -18t-11.5 -5q-9 0 -9 10t41 51q80 80 202 141q-37 15 -126 92q-32 27 -51 52q-6 8 -6 17q0 8 12 8q7 0 18 -8l36.5 -27.5t52.5 -37.5q71 -46 145 -80q13 -6 13 -17q0 -10 -12 -16q-96 -46 -120 -59z" />
    <glyph glyph-name="question" unicode="?" horiz-adv-x="552" 
d="M193 275q-14 -15 -25 -30t-17 -24l-11 -16t-8.5 -10t-6.5 -3q-7 0 -7 11q0 12 23 52t50 76q18 24 92.5 116.5t99.5 138.5q32 58 32 107q0 31 -21.5 52t-53.5 21q-87 0 -127 -91q-4 -11 -13 -11q-8 0 -8 15q0 36 44.5 81t109.5 45q58 0 102 -37.5t44 -103.5
q0 -49 -26.5 -96.5t-60.5 -81l-100 -97t-112 -114.5zM40 36q0 16 12 28t28 12q17 0 29 -11.5t12 -28.5t-12 -29t-29 -12t-28.5 12t-11.5 29z" />
    <glyph glyph-name="at" unicode="@" horiz-adv-x="684" 
d="M421 246q6 8 21 8h30q14 0 14 -9q0 -2 -8.5 -27.5t-17 -65.5t-8.5 -75q0 -61 38 -61q43 0 68.5 54t25.5 115q0 95 -56.5 154t-148.5 59q-108 0 -183.5 -84.5t-75.5 -189.5q0 -110 64 -176.5t170 -66.5q12 0 34 3.5t23 3.5q8 0 8 -5q0 -9 -29 -17q-32 -9 -67 -9
q-114 0 -193.5 68.5t-79.5 197.5q0 127 100 210.5t229 83.5q119 0 187 -65t68 -167q0 -63 -40.5 -126.5t-103.5 -63.5q-43 0 -68.5 26t-31.5 66q-9 -32 -36 -59.5t-64 -27.5q-35 0 -56 29.5t-21 67.5q0 63 41.5 110.5t99.5 47.5q37 0 52 -40q9 22 15 31zM279 96
q0 -60 36 -60q32 0 57 49t25 91q0 24 -9 39t-23 15q-33 0 -59.5 -43.5t-26.5 -90.5z" />
    <glyph glyph-name="A" unicode="A" horiz-adv-x="925" 
d="M34 69q-24 24 -24 36q0 9 7 9q3 0 11 -7t19.5 -18t17.5 -16q69 -54 173 -54q108 0 208 74q81 60 135 128q-36 3 -75 18q-48 17 -48 33q0 7 7 7q3 0 9 -3l15.5 -7.5t19.5 -7.5q50 -16 91 -16q27 30 61 76q167 228 272 416q8 13 19 13h41q12 0 12 -10q0 -3 -20 -70
l-52 -165l-64 -204q-17 -56 -73 -283q-4 -18 -18 -18h-51q-19 0 -19 17q0 13 17 75q18 64 39 130q-42 -6 -90 -6q-31 0 -56 3q-1 -1 -20.5 -24.5t-46.5 -51.5t-59 -56q-115 -99 -253 -99q-123 0 -205 81zM916 662q-124 -222 -279 -420q19 -2 44 -2q56 0 90 9z" />
    <glyph glyph-name="B" unicode="B" horiz-adv-x="864" 
d="M334 40q-34 -47 -88 -92.5t-110 -68.5q-60 -24 -111 -24q-15 0 -15 8q0 7 15 10q2 0 12 1.5t17.5 2.5t21 4.5t24.5 7.5t26 11.5t28 17.5q78 56 136 155q63 107 122 268q30 82 63 200t43 184q-36 -10 -76 -34q-10 -6 -21.5 -14.5t-17.5 -13.5t-9 -5q-8 0 -8 6q0 9 20 26
q97 80 223 80q54 0 94.5 -30t40.5 -82q0 -44 -43 -79t-104 -40q35 -4 78.5 -26t79.5 -59q63 -66 63 -180q0 -111 -88 -196.5t-218 -85.5q-70 0 -119 26q-20 10 -20 19q0 6 6 6q3 0 9.5 -2.5t15.5 -6.5t15 -6q29 -10 70 -10q104 0 170 78t66 197q0 103 -55.5 169t-140.5 68
q-24 -106 -76.5 -239t-138.5 -251zM555 552q61 0 99 34.5t38 78.5q0 79 -70 79q-11 0 -23 -2q-38 -169 -44 -190z" />
    <glyph glyph-name="C" unicode="C" horiz-adv-x="660" 
d="M200 289q0 113 61.5 225t165.5 182q102 70 217 70q64 0 100 -36q25 -25 25 -37q0 -10 -8 -10q-3 0 -8 6.5t-16 17t-24 16.5q-31 15 -70 15q-160 0 -280 -213q-33 -59 -51.5 -129.5t-18.5 -132.5q0 -115 48.5 -180t126.5 -65q25 0 48 6t41 16t30 18.5t24 18.5t13 11
q4 3 8 3q5 0 5 -8q0 -18 -37 -46q-61 -47 -146 -47t-144 45t-84.5 110.5t-25.5 143.5z" />
    <glyph glyph-name="D" unicode="D" horiz-adv-x="918" 
d="M189 -4q118 155 223.5 362.5t147.5 349.5q-29 8 -71 8q-113 0 -221 -68q-44 -28 -76.5 -60t-46.5 -49.5t-18 -17.5q-7 0 -7 11q0 19 42 65t84 74q127 83 276 83q28 0 51 -4q16 48 35 156q2 6 7 6q8 0 10 -11q3 -15 3 -41q0 -54 -11 -118q116 -31 198.5 -129.5
t82.5 -239.5q0 -92 -40.5 -178t-122.5 -144.5t-186 -58.5q-30 0 -92 11.5t-81 11.5q-56 0 -108 -21q-22 -9 -43 -22.5t-32.5 -22t-16.5 -8.5q-11 0 -11 11q0 12 24 44zM310 38q36 7 82 7q17 0 71 -8t70 -8q79 0 141.5 54t93 132t30.5 162q0 69 -18 130.5t-62 113.5t-108 72
q-34 -160 -136.5 -372t-163.5 -283z" />
    <glyph glyph-name="E" unicode="E" horiz-adv-x="680" 
d="M120 239q0 135 97.5 218.5t255.5 86.5q-75 39 -75 111q0 52 42 82.5t94 30.5q53 0 90 -30q17 -15 17 -27q0 -9 -8 -9q-3 0 -7 3.5l-11.5 10t-15.5 11.5q-14 8 -45 8q-34 0 -57.5 -23.5t-23.5 -66.5q0 -64 60 -97l38 -19q10 -5 10 -12q0 -10 -12 -10q-6 0 -12 2
q-34 8 -60 8q-118 0 -198.5 -85t-80.5 -214q0 -85 51.5 -142.5t147.5 -57.5q36 0 77.5 17t74.5 46q30 27 68 73q13 15 18 15t5 -6q0 -4 -3 -10q-33 -60 -82 -100t-95 -55t-92 -15q-122 0 -195 69t-73 187z" />
    <glyph glyph-name="F" unicode="F" horiz-adv-x="529" 
d="M221 26q78 112 141 326q31 104 91 366q-26 4 -49 4q-64 0 -118 -14q-72 -19 -125 -70t-53 -126q0 -51 27 -86q2 -2 5 -5.5t5 -5.5t3.5 -4.5t1.5 -4.5q0 -5 -8 -5q-12 0 -31 25q-31 41 -31 94q0 86 67.5 147.5t158.5 78.5q57 10 97 10q31 0 132 -12.5t135 -12.5
q60 0 106.5 8.5t68.5 17.5t23 9q11 0 11 -9q0 -4 -15 -12t-39 -16.5t-44 -11.5q-81 -12 -115 -12q-58 0 -127 8q-32 -160 -61 -258q33 2 65.5 8t51.5 11t21 5q12 0 12 -7t-8 -11q-58 -24 -149 -36q-19 -62 -53 -149q-25 -62 -73.5 -147.5t-91.5 -131.5q-92 -99 -173 -99
q-20 0 -20 7q0 5 17 9q78 16 144 112z" />
    <glyph glyph-name="G" unicode="G" horiz-adv-x="808" 
d="M514 256q-10 0 -10 7t20 18q23 14 62 14q18 0 57.5 -7t58.5 -7q11 0 31 2.5t22 2.5q10 0 10 -13q0 -18 -13.5 -54.5t-30.5 -63.5q-45 -73 -115 -118t-153 -45q-121 0 -187 87t-66 223q0 110 58.5 215t164 173t227.5 68q114 0 166 -64q4 -4 4 -10t-6 -6q-2 0 -20 13
t-51.5 25.5t-74.5 12.5q-67 0 -128 -28.5t-106 -76t-78 -108t-49.5 -125.5t-16.5 -127q0 -114 45 -181.5t120 -67.5q47 0 85.5 21t64.5 56.5t43 75.5t26 84q-17 2 -44.5 11t-48.5 9q-22 0 -45 -8z" />
    <glyph glyph-name="H" unicode="H" horiz-adv-x="669" 
d="M125 736q-11 -3 -27 -10.5l-27.5 -13t-14.5 -5.5q-8 0 -8 7q0 6 8 11q32 27 86.5 39.5t94.5 12.5q37 0 94 -10.5t86 -10.5q15 0 29.5 1t23 2.5t10.5 1.5q9 0 9 -9q0 -24 -19 -113q-22 -102 -49 -193q28 -2 34 -2q55 0 108 14q35 115 56 162q59 134 151 191q32 20 53 20
q6 0 6 -6q0 -3 -10 -10t-26 -21t-28 -29q-36 -49 -69 -130q-31 -79 -52 -171.5t-48 -252.5q-8 -49 -14 -93.5l-9 -67.5t-5 -31q-4 -19 -19 -19h-52q-17 0 -17 15q0 35 23 166.5t55 245.5q-55 -11 -102 -11q-26 0 -41 2q-55 -188 -122 -299q-58 -96 -149 -120q-17 -4 -35 -4
q-24 0 -45 9q-8 3 -16 10t-8 12q0 7 8 7l16 -7q15 -8 33 -8q78 0 143 144q80 176 164 562q-25 3 -82.5 15.5t-92.5 12.5q-49 0 -104 -16z" />
    <glyph glyph-name="I" unicode="I" horiz-adv-x="376" 
d="M90 -20q-10 1 -10 9q0 6 7 9q26 10 35 18q30 24 62.5 115.5t57 193.5t58 219.5t62.5 177.5q-20 5 -42 5q-20 0 -46.5 -6t-27.5 -6q-10 0 -10 5t10 11q35 19 80 19q9 0 28.5 -0.5t27.5 -0.5q16 0 40 4l24 4q10 0 10 -7q0 -5 -2 -9.5t-10 -18.5t-14 -27
q-35 -70 -107.5 -348t-108.5 -336q14 -3 32 -3q17 0 35 6q13 5 19 5t6 -5q0 -13 -27 -20t-51 -7q-12 0 -39.5 0.5t-33.5 0.5q-14 0 -38 -4t-27 -4z" />
    <glyph glyph-name="J" unicode="J" horiz-adv-x="614" 
d="M644 736q0 -10 -5.5 -65.5t-8.5 -72.5q-38 -202 -98 -383q-35 -105 -92.5 -202.5t-114.5 -154.5q-123 -123 -249 -123q-21 0 -43.5 5.5t-22.5 15.5q0 6 9 6q3 0 20.5 -2t34.5 -2q87 0 173 86q107 106 190 345q54 155 95 405q10 62 15 118q-29 0 -88 12.5t-71 12.5
q-47 0 -93 -24q-12 -6 -18 -6t-6 5q0 11 24 26q40 27 103 27q21 0 73.5 -9.5t75.5 -9.5q17 0 48 4t36 4q13 0 13 -18z" />
    <glyph glyph-name="K" unicode="K" horiz-adv-x="891" 
d="M1004 866q7 0 7 -5q0 -20 -45 -92.5t-100 -136.5q-127 -146 -316 -236q18 -55 33 -95t40.5 -97t50.5 -93.5t58.5 -63t68.5 -26.5q17 0 37 5l20 5q7 0 7 -7q0 -3 -8 -10q-24 -20 -84 -20q-36 0 -68 12t-57.5 29.5t-50 48.5t-42 58.5t-37.5 70.5t-32 73.5l-30 77.5
q-29 -88 -73 -174q-46 -90 -109 -146.5t-127 -56.5q-59 0 -94 35q-13 13 -13 20q0 9 7 9q2 0 7 -3.5t12.5 -9.5t14.5 -10q22 -12 45 -12q71 0 125 96q75 134 122 276.5t87 315.5q-19 2 -72 11.5t-65 9.5q-61 -1 -97 -35q-9 -7 -17.5 -18t-14 -17.5t-8.5 -6.5q-6 0 -6 8
q0 15 21 42q46 55 128 55q18 0 66.5 -8t65.5 -8q21 0 55.5 5.5t38.5 5.5q11 0 11 -10q0 -5 -2 -15q-59 -224 -90 -302q92 8 244 129q148 118 222 226l39 60q19 30 25 30z" />
    <glyph glyph-name="L" unicode="L" horiz-adv-x="648" 
d="M40 25q0 34 30 61.5t82 27.5q22 0 43 -9q40 84 80.5 209.5t58.5 201.5q-38 -22 -113.5 -41.5t-107.5 -19.5q-17 0 -17 8t19 11q89 19 148 40q60 22 85 42q22 63 61 123q53 81 119 81q44 0 44 -48q0 -40 -39 -80t-96 -69q-37 -153 -77.5 -264.5t-104.5 -214.5
q116 -68 219 -68q32 0 59.5 5.5t40 11t29.5 15.5t22 12q10 4 12 4q6 0 6 -5q0 -11 -23 -27t-65.5 -29t-87.5 -13q-90 0 -238 63q-63 -79 -121 -79q-28 0 -48 14t-20 37zM529 737q-27 0 -50 -42.5t-35 -101.5q40 20 73.5 54t33.5 63q0 27 -22 27zM181 77q-16 8 -36 8
q-34 0 -52.5 -18.5t-18.5 -38.5q0 -12 8 -20t22 -8q50 0 77 77z" />
    <glyph glyph-name="M" unicode="M" horiz-adv-x="1133" 
d="M551 233q86 105 125 172l201 361q19 35 31 35q9 0 9 -11q0 -8 -8 -34l-30.5 -106l-42.5 -147.5t-41 -153t-41 -170.5q127 131 317 477q55 99 66 110q5 4 8 4q8 0 8 -7q0 -9 -3 -19q-50 -154 -101 -409q-23 -114 -23 -186q0 -75 18 -131q5 -14 12 -27t11.5 -19.5t4.5 -9.5
q0 -7 -10 -7q-9 0 -28.5 9.5t-33.5 24.5q-62 65 -62 202q0 112 45 261q-49 -93 -107 -173t-171 -217q-15 -17 -40 -40t-34 -23q-11 0 -11 16t7 40q7 29 21.5 98t28 121t39.5 139q-81 -130 -143 -205q-38 -46 -72 -79.5t-84 -71.5t-110 -58.5t-126 -20.5q-61 0 -117 23
q-19 8 -36.5 20.5t-17.5 21.5q0 11 7 11q3 0 9 -3.5l17 -10t22 -11.5q52 -22 116 -22q96 0 192 63.5t178 162.5z" />
    <glyph glyph-name="N" unicode="N" horiz-adv-x="983" 
d="M830 243q187 349 328 505q79 87 152 91q13 0 13 -7q0 -8 -11 -11q-74 -21 -132 -91q-62 -76 -79 -102q-184 -272 -317 -566q-32 -72 -49 -72q-14 0 -14 34q1 51 15 192t35 251q-89 -167 -228 -358q-90 -122 -197 -202q-36 -27 -62 -43.5t-67.5 -37t-90 -31t-102.5 -10.5
q-148 0 -219 71q-5 5 -5 11t6 6q8 0 39 -17q37 -20 85.5 -30.5t80.5 -10.5q130 0 274 97q148 99 317 348q33 49 62 96.5l41.5 69l41 73.5l34.5 63q21 39 52.5 104.5t33.5 70.5q11 20 18 20q9 0 9 -15q0 -8 -33 -247q-3 -21 -11 -72.5t-13 -92t-7 -87.5z" />
    <glyph glyph-name="O" unicode="O" horiz-adv-x="833" 
d="M419 -10q-106 0 -162.5 70t-56.5 179q0 105 43.5 205t117.5 178q129 136 306 136q63 0 104 -33q82 -66 82 -216q0 -114 -47 -217t-129 -184q-54 -53 -120 -85q-68 -33 -138 -33zM280 178q0 -40 12 -76t43 -63t75 -27q89 0 171 87t130 215q50 133 50 265q0 155 -106 155
q-75 0 -151.5 -66t-132.5 -168q-43 -79 -67 -166.5t-24 -155.5z" />
    <glyph glyph-name="P" unicode="P" horiz-adv-x="699" 
d="M597 696q-15 -46 -73.5 -248t-96.5 -304q-34 -93 -81 -176q-68 -122 -154 -179q-42 -27 -85.5 -38.5t-67.5 -11.5q-19 0 -19 9q0 2 1.5 4t5.5 3l8 2l10.5 2.5t11.5 2.5q75 20 124 73q50 53 93 165q37 96 116.5 340.5t125.5 333.5q-81 -29 -163 -111q-15 -15 -21 -15
q-5 0 -5 5q0 11 25 36q44 44 85 70q65 41 98 53q56 97 92 128q18 14 21 14q7 0 7 -7q0 -2 -3 -7.5l-9.5 -17.5t-12.5 -25q-16 -36 -28 -75q32 7 76 7q65 0 114 -31q77 -48 77 -146q0 -71 -39 -126t-94 -84q-80 -42 -174 -42q-41 0 -41 12q0 5 38 7q87 6 143 59
q36 34 56 83.5t20 98.5q0 61 -31 101.5t-97 40.5q-29 0 -53 -6z" />
    <glyph glyph-name="Q" unicode="Q" horiz-adv-x="841" 
d="M352 -3q-65 15 -108.5 74t-43.5 146q0 123 65 247t174 205t224 81q87 0 142.5 -62.5t55.5 -170.5q0 -116 -52.5 -228.5t-148.5 -194t-212 -102.5q31 -170 107 -301q22 -37 44 -65t32 -39.5t10 -14.5q0 -9 -13 -9q-7 0 -23.5 11.5t-44 39t-53.5 63.5q-61 83 -92 151
t-63 169zM292 164q0 -61 24 -103.5t71 -42.5q75 0 148 57t122.5 139.5t80.5 173.5t31 160q0 39 -4 67.5t-14.5 55t-32.5 40.5t-54 14q-72 0 -142.5 -58t-119.5 -143.5t-79.5 -183t-30.5 -176.5z" />
    <glyph glyph-name="R" unicode="R" horiz-adv-x="827" 
d="M17 -297q-7 0 -7 6q0 2 3 4.5t11 7.5t14 10q47 37 85 93q67 98 127 252q30 76 122 327.5t103 278.5q-66 -16 -132 -61q-20 -14 -27 -14q-5 0 -5 5t10 17t21 19q78 55 152 74q32 65 62 97q18 20 35 31t24 11q6 0 6 -6q0 -1 -4 -7.5l-11.5 -19.5t-13.5 -25q-12 -22 -29 -74
q21 3 38 3q62 0 108 -23q83 -41 83 -131q0 -82 -74 -132q-69 -47 -149 -50q26 -134 51 -194q49 -118 113 -167q18 -14 58 -31q16 -6 16 -11q0 -7 -16 -7q-22 2 -47 10q-73 22 -127 81q-58 61 -98 149.5t-57 177.5q-11 -41 -52.5 -150t-73.5 -180q-29 -62 -93.5 -158.5
t-130.5 -153.5q-69 -59 -95 -59zM557 701q-28 -100 -88 -276q31 -7 61 -7q71 0 125 56q42 43 42 111q0 57 -30 88t-75 31q-14 0 -35 -3z" />
    <glyph glyph-name="S" unicode="S" horiz-adv-x="522" 
d="M236 -9q-47 0 -92 18.5t-75 50.5q-38 41 -56 91q-8 20 -8 31t6 11q9 0 13 -9q31 -76 71 -110q62 -53 126 -53q68 0 103.5 46t35.5 109q0 52 -30.5 122l-61 145t-30.5 138q0 67 49.5 119t133.5 52q62 0 95 -43q16 -21 16 -36q0 -7 -7 -7t-10 7q-33 52 -80 52
q-109 0 -109 -134q0 -45 20 -100.5t43.5 -100t43.5 -100t20 -99.5q0 -86 -58.5 -143t-158.5 -57z" />
    <glyph glyph-name="T" unicode="T" horiz-adv-x="589" 
d="M395 725q-99 0 -167 -59q-62 -54 -62 -138q0 -12 1 -24.5t2.5 -20t1.5 -8.5q0 -9 -5 -9q-6 0 -10 7q-12 22 -12 61q0 92 65 154q79 76 218 76q29 0 135 -16.5t164 -16.5q37 0 84.5 9t78.5 25q8 4 13 4q7 0 7 -5q0 -10 -7 -15q-32 -27 -88 -40.5t-106 -13.5q-59 0 -90 2
q-60 -404 -200 -675q-17 -33 -41.5 -68.5t-60 -77t-82.5 -77t-96 -53.5q-57 -22 -96 -22q-32 0 -32 10q0 9 25 10q60 4 123 46q106 72 189 257q105 234 169 663q-84 15 -121 15z" />
    <glyph glyph-name="U" unicode="U" horiz-adv-x="751" 
d="M321 591q51 146 51 236q0 45 -8 80.5t-16.5 54t-8.5 21.5q0 7 9 7q7 0 23 -25t27 -58q23 -66 23 -135q0 -90 -36 -220q-22 -80 -45 -152.5l-46.5 -141.5t-32.5 -98q-16 -50 -16 -76q0 -20 8.5 -32.5t24.5 -12.5q43 0 127 111q111 147 186 336q8 20 84 233q4 10 5.5 14.5
t5 9t7.5 6t11 1.5h53q14 0 14 -10q0 -11 -12 -45q-57 -158 -93 -286q-57 -199 -57 -288q0 -76 26 -97q9 -8 21 -10t18.5 -2.5t6.5 -5.5q0 -13 -37 -13q-39 0 -66 25q-48 44 -48 130q0 78 33 208q-12 -27 -50 -91.5t-70 -110.5q-113 -159 -201 -159q-38 0 -60 27.5t-22 76.5
q0 30 8 62t21.5 68l52 140z" />
    <glyph glyph-name="V" unicode="V" horiz-adv-x="616" 
d="M356 605q77 -147 90 -396q51 93 115 192q173 267 325 410q55 51 98 72q12 6 17 6t5 -5q0 -3 -23 -21q-31 -25 -83 -76q-84 -83 -253 -339q-91 -138 -251 -426q-16 -28 -30 -28q-10 0 -12 19q-2 16 -3 62t-4 86q-24 305 -72 434q-36 94 -63 132q-11 15 -12 21q0 7 10 7
q22 0 68.5 -45.5t77.5 -104.5z" />
    <glyph glyph-name="W" unicode="W" horiz-adv-x="833" 
d="M685 564q31 -140 31 -234q0 -47 -4 -84q35 66 94 163q69 113 152 225.5t147 176.5q50 50 96 72q12 6 17 6t5 -5q0 -3 -23 -21q-51 -40 -83 -73q-90 -93 -238 -330l-43 -72l-38 -67l-40 -74l-36.5 -69l-40 -78.5l-39.5 -77.5q-14 -28 -30 -28q-12 0 -12 19q0 8 6 73.5
t8 112.5q4 94 4 186q0 90 -7 137q-148 -228 -257 -499q-12 -29 -24 -29q-9 0 -9 29q0 8 2 57t2 97q0 325 -111 550q-13 26 -14 31q0 7 10 7q19 0 59 -48t67 -109q80 -181 80 -365q39 86 76.5 149.5t113.5 179.5q-7 73 -37 171q-1 3 -6 16t-6 18q0 7 9 7q12 0 34 -27.5
t47 -80.5t38 -112z" />
    <glyph glyph-name="X" unicode="X" horiz-adv-x="887" 
d="M51 -122q86 34 181 107q175 135 308 380q-31 122 -59 199.5t-71 137.5q-15 20 -30 33t-15 17q0 7 12 7q46 0 103.5 -47.5t97.5 -143.5q17 -41 47 -127q76 115 138.5 187.5t133.5 116.5q18 11 28 11q9 0 9 -7q0 -3 -3 -6t-12.5 -10l-16.5 -12q-1 -1 -9 -7.5t-12 -9.5
t-13 -11t-16 -16t-18 -19.5t-23.5 -27l-26.5 -33.5q-83 -107 -138 -209q77 -296 155 -365q24 -21 33 -26l6 -3q21 -10 21 -19t-40 -9q-13 0 -38.5 6.5t-40.5 15.5q-60 35 -109 129t-74 187q-179 -284 -388 -399q-86 -47 -118 -47q-13 0 -13 9q0 7 11 11z" />
    <glyph glyph-name="Y" unicode="Y" horiz-adv-x="500" 
d="M326 15q-4 -15 -18 -15h-58q-14 0 -14 13q0 5 14 72q30 143 64 280q-7 47 -35 130q-13 38 -29.5 78.5t-49.5 97t-66 86.5q-14 13 -14 17q0 6 13 6q44 0 90 -37.5t79 -91.5q29 -46 55.5 -109.5t36.5 -103.5q77 164 168 289q42 59 95.5 109t96.5 77q27 16 36 16q10 0 10 -7
q0 -5 -10 -12q-114 -81 -217 -229q-117 -168 -180 -397q-12 -44 -34 -134z" />
    <glyph glyph-name="Z" unicode="Z" horiz-adv-x="674" 
d="M148 0q-16 0 -16 16q0 14 29 62q182 304 450 641q-47 0 -133 20.5t-138 20.5q-51 0 -98 -12t-76.5 -24.5t-37.5 -12.5t-8 8q0 7 7 12q15 10 46 25q75 36 176 36q60 0 151.5 -15t125.5 -15q20 0 56 4.5t38 4.5q14 0 14 -12q0 -9 -20 -36q-9 -13 -67 -91l-114 -158
q-190 -269 -270 -413q102 0 208 -37q40 -14 90 -14q21 0 54 10t35 10q10 0 10 -9q0 -7 -8 -12q-46 -30 -112 -30q-25 0 -78 11q-126 27 -173 27q-35 0 -86.5 -8.5t-54.5 -8.5z" />
    <glyph glyph-name="bracketleft" unicode="[" horiz-adv-x="506" 
d="M60 -115q0 10 24 91q59 190 163.5 465t164.5 404q12 27 31 27q2 0 17.5 -3t40.5 -6t51 -3q30 0 67 7t39 7q8 0 8 -9q0 -7 -9 -11q-58 -29 -108 -29q-41 0 -51 1q-185 -409 -348 -916q20 -3 45 -3q35 0 71 7t41 7q10 0 10 -9q0 -4 -7.5 -10t-13.5 -8q-60 -19 -113 -22
q-45 -3 -108 -3q-15 0 -15 16z" />
    <glyph glyph-name="backslash" unicode="\" horiz-adv-x="500" 
d="M447 10q3 -4 3 -10q-1 -5 -9 -5q-11 2 -31 25t-38 53q-50 83 -145 312q-86 209 -144 306q-3 4 -12.5 18t-14.5 23t-5 12q1 7 10 7q12 -3 38.5 -35t37.5 -51q75 -126 139 -277l37 -91.5l42 -102.5t41.5 -91t50.5 -93z" />
    <glyph glyph-name="bracketright" unicode="]" horiz-adv-x="513" 
d="M-110 -117q-10 0 -10 8q0 5 6 10q11 7 39 12.5t47 5.5q38 0 74 -3l151.5 404.5t186.5 487.5q-27 7 -61 7q-19 0 -40.5 -3t-36 -6t-16.5 -3q-10 0 -10 5q0 7 10 13q19 11 71 17t85 6q28 0 68 -4q19 -2 19 -12t-24 -69q-47 -117 -161 -423l-164 -444q-8 -22 -27 -22
q-8 0 -55 8t-72 8q-19 0 -48.5 -1.5t-31.5 -1.5z" />
    <glyph glyph-name="asciicircum" unicode="^" horiz-adv-x="413" 
d="M271 574q-99 -123 -198 -186q-25 -16 -35 -16q-8 0 -8 8q0 4 11 12q41 30 94 85q72 74 147 173q3 5 9 5q7 0 9 -10q32 -156 69 -238l5.5 -11t6 -11.5t2.5 -6.5q0 -7 -5 -7q-13 0 -29 23q-57 81 -78 180z" />
    <glyph glyph-name="underscore" unicode="_" horiz-adv-x="500" 
d="M500 -200h-500v33h500v-33z" />
    <glyph glyph-name="grave" unicode="`" horiz-adv-x="231" 
d="M122 535q-23 23 -42.5 54.5t-19.5 45.5q0 15 28 15q29 0 34 -15q17 -50 35 -92q14 -30 14 -31q0 -7 -6 -7q-16 0 -43 30z" />
    <glyph glyph-name="a" unicode="a" horiz-adv-x="365" 
d="M30 94q0 44 23.5 84t66.5 63q31 17 71 17q34 0 51 -21q5 -6 14 -29q8 25 13 33q5 9 19 9h43q8 0 8 -7q0 -3 -11 -36q-28 -84 -28 -148q0 -47 18 -58q8 -5 8 -8q0 -8 -19 -8q-34 0 -51 19q-23 25 -25 62q-38 -74 -118 -74q-37 0 -60 28t-23 74zM135 185q-32 -47 -32 -110
q0 -57 33 -57q36 0 64 42q17 25 28 61.5t11 56.5q0 21 -8.5 39.5t-25.5 18.5q-35 0 -70 -51z" />
    <glyph glyph-name="b" unicode="b" horiz-adv-x="344" 
d="M40 144q0 104 54 255.5t137 272.5q19 28 40 53t29 25q6 0 6 -4q0 -2 -15 -26q-42 -66 -65 -118q-48 -107 -75 -218q-10 -41 -21 -104t-13 -89q42 62 101 62q46 0 73.5 -28t27.5 -79q0 -58 -49 -104.5t-112 -46.5q-118 0 -118 149zM244 153q0 33 -12 53t-33 20
q-34 0 -60 -40t-26 -88q0 -83 49 -83q30 0 56 40t26 98zM101 652q0 26 24 26q26 0 26 -26q0 -24 -26 -24q-11 0 -17.5 7t-6.5 17z" />
    <glyph glyph-name="c" unicode="c" horiz-adv-x="291" 
d="M30 102q0 58 47.5 106.5t107.5 48.5q41 0 62 -14q10 -7 17 -20.5t7 -21.5q0 -9 -7 -9q-6 0 -12 13q-14 26 -37 26q-27 0 -52 -22q-52 -46 -52 -121q0 -72 52 -72q30 0 69 29q6 6 10 6q6 0 6 -7t-10 -17q-40 -35 -95 -35q-50 0 -81.5 29t-31.5 81z" />
    <glyph glyph-name="d" unicode="d" horiz-adv-x="351" 
d="M292 -14q-27 0 -45 14.5t-34 50.5q-36 -59 -94 -59q-46 0 -75 30.5t-29 84.5q0 58 44 103t108 45q41 0 62 -30q25 130 89 296q29 75 63.5 141t56.5 97.5t33 40.5q6 5 11 5q3 0 3 -4q0 -3 -12 -23q-27 -51 -67 -158q-48 -128 -88.5 -298.5t-40.5 -265.5q0 -19 6.5 -36
t19.5 -17q6 0 12.5 3t7.5 3q3 0 3 -4q0 -6 -11 -12.5t-23 -6.5zM185 229q-38 0 -65.5 -45.5t-27.5 -97.5q0 -28 10 -48t31 -20q37 0 62.5 49t25.5 103q0 29 -10 44t-26 15zM468 609q0 26 24 26q26 0 26 -26q0 -24 -26 -24q-10 0 -17 6.5t-7 17.5z" />
    <glyph glyph-name="e" unicode="e" horiz-adv-x="296" 
d="M30 108q0 55 47 101t113 46q32 0 54 -15.5t22 -46.5q0 -62 -109 -81q-32 -5 -47 -5q0 -39 16 -64t50 -25q32 0 53 13l9.5 5.5t7 4.5t5 3.5t4 2.5t2.5 1q7 0 7 -7t-15 -20q-39 -32 -98 -32q-50 0 -85.5 27t-35.5 92zM190 234q-25 0 -49.5 -28.5t-28.5 -77.5q19 1 40 8
q27 8 44.5 29t17.5 42q0 27 -24 27z" />
    <glyph glyph-name="f" unicode="f" horiz-adv-x="276" 
d="M61 275q26 21 70 28l55 181q-35 -16 -83 -29q-16 -4 -32 -4q-10 0 -10 10q0 7 16 14q106 39 122 47q37 101 89.5 164.5t110.5 63.5q21 0 34 -14t13 -37q0 -50 -55 -100.5t-119 -80.5q-34 -147 -49 -202q52 0 77 8q9 3 14 3q7 0 7 -7q0 -13 -20 -21q-40 -15 -85 -15
q-29 -91 -69 -228q-55 -186 -157 -391.5t-198 -308.5q-44 -47 -69 -68q-44 -36 -65 -36q-8 0 -8 6q0 4 21 19q47 37 115 125q87 115 180 354q98 253 158 514q-29 -2 -50 -12q-1 0 -3.5 -1.5t-5 -2t-3.5 -0.5q-9 0 -9 7q0 8 8 14zM416 699q0 28 -21 28q-66 0 -113 -168
q49 23 91.5 64t42.5 76zM-294 -547q0 26 24 26q26 0 26 -26q0 -24 -26 -24q-10 0 -17 6.5t-7 17.5z" />
    <glyph glyph-name="g" unicode="g" horiz-adv-x="404" 
d="M-210 -749q-56 0 -83 34.5t-27 94.5q0 114 140.5 234.5t342.5 182.5q40 121 78 265q-50 -70 -120 -70q-41 0 -64 26t-23 67q0 75 53.5 122.5t119.5 47.5q51 0 79 -30q9 25 26 25h35q7 0 11.5 -5t4.5 -11q0 -15 -28 -139q-25 -113 -72 -263q100 30 129 30q7 0 7 -8
q0 -5 -3.5 -9.5t-11.5 -9t-16.5 -8.5t-23.5 -9l-27.5 -9l-32.5 -10.5l-35 -11.5q-43 -115 -63 -157q-33 -70 -70.5 -131t-87.5 -120t-111.5 -93.5t-126.5 -34.5zM92 -400q34 79 60 154q-186 -53 -311 -166.5t-125 -217.5q0 -37 20.5 -63t56.5 -26q46 0 92.5 29.5t84.5 78
t68.5 101.5t53.5 110zM117 77q0 -53 38 -53q22 0 49 25t39 52q18 40 29 99q-16 26 -44 26q-44 0 -77.5 -47.5t-33.5 -101.5z" />
    <glyph glyph-name="h" unicode="h" horiz-adv-x="387" 
d="M320 809q52 57 76 57q6 0 6 -5q0 -2 -24 -26q-41 -44 -66 -93q-36 -71 -66 -164.5t-46 -165.5t-41 -199q43 43 103 43q33 0 51 -20t18 -57q0 -17 -8.5 -65t-8.5 -63q0 -28 17 -28q7 0 14.5 3.5t10.5 3.5q5 0 5 -5q0 -9 -19 -19.5t-44 -10.5q-32 0 -48 22q-13 17 -13 54
q0 23 9 66t9 49q0 35 -26 35q-42 0 -76 -50q-5 -17 -34 -157q-2 -14 -14 -14h-55q-10 0 -10 12q0 8 6 43q47 266 114 457q24 69 68.5 156.5t91.5 140.5zM363 693q0 26 24 26q26 0 26 -26q0 -24 -26 -24q-11 0 -17.5 6.5t-6.5 17.5z" />
    <glyph glyph-name="i" unicode="i" horiz-adv-x="183" 
d="M93 -4q-25 0 -44 21.5t-19 60.5q0 57 38 153q7 19 25 19h41q14 0 14 -12q0 -3 -2.5 -9.5t-6 -16.5l-5.5 -16q-32 -111 -32 -131q0 -44 24 -44q9 0 19.5 7.5t11.5 7.5q6 0 6 -6q0 -9 -17 -22q-17 -12 -53 -12zM96 347q0 14 10 24.5t24 10.5q15 0 25.5 -10.5t10.5 -24.5
q0 -15 -10.5 -25t-25.5 -10q-14 0 -24 10t-10 25z" />
    <glyph glyph-name="j" unicode="j" horiz-adv-x="215" 
d="M-449 -750q-31 0 -45 8q-6 4 -6 10q0 3 5 3q2 0 16 -1t23 -1q25 0 62.5 14.5t66.5 36.5q114 88 213 286q76 151 156 442q39 143 46 177q5 25 26 25h40q7 0 11.5 -5t4.5 -11q0 -25 -23 -114q-60 -238 -153 -439q-20 -44 -47.5 -93t-72.5 -111.5t-92.5 -111t-109 -82
t-121.5 -33.5zM115 347q0 14 10 24.5t24 10.5q15 0 25.5 -10.5t10.5 -24.5q0 -15 -10.5 -25t-25.5 -10q-14 0 -24 10t-10 25zM-390 -569q0 26 24 26q26 0 26 -26q0 -24 -26 -24q-10 0 -17 6.5t-7 17.5z" />
    <glyph glyph-name="k" unicode="k" horiz-adv-x="340" 
d="M198 440q-46 -161 -50 -176q17 25 47 40t54 15q26 0 41.5 -14t15.5 -36q0 -37 -28 -62q-33 -30 -85 -41q13 -60 44 -104t68 -51q16 -3 16 -7t-9 -8q-12 -4 -26 -4q-105 0 -164 145q-4 -14 -15.5 -57.5l-17.5 -65.5q-4 -14 -14 -14h-50q-7 0 -7 7q0 1 1.5 7t1.5 7
q14 90 55 234.5t66 205.5q22 55 48 109t72 119.5t88 83.5q6 3 10 3q5 0 5 -3q0 -5 -7 -10q-42 -31 -79 -106q-43 -88 -81 -217zM234 293q-28 0 -54.5 -28.5t-39.5 -66.5l-9 -26q57 12 91 36q35 25 35 60q0 12 -6.5 18.5t-16.5 6.5zM320 624q0 26 24 26q26 0 26 -26
q0 -24 -26 -24q-10 0 -17 7t-7 17z" />
    <glyph glyph-name="l" unicode="l" horiz-adv-x="227" 
d="M48 126q0 117 56 258q-31 -14 -78 -27q-20 -6 -32 -6q-11 0 -11 7q0 3 2 4.5t6.5 3.5t9.5 3.5l14 4t17 5.5q51 18 84 37q50 100 87 159q31 50 66 83.5t61 33.5q18 0 28 -11.5t10 -26.5q0 -39 -34 -92q-48 -75 -154 -145q-64 -156 -64 -317q0 -74 46 -74q15 0 29 9
q4 2 9 5.5l8.5 6t4.5 2.5q6 0 6 -6q0 -9 -23 -25q-25 -18 -53 -18q-95 0 -95 126zM305 558q41 56 41 87q0 27 -17 27q-27 0 -69.5 -75t-67.5 -144q25 15 59 46.5t54 58.5z" />
    <glyph glyph-name="m" unicode="m" horiz-adv-x="522" 
d="M79 147q8 36 8 66q0 26 -21 26q-7 0 -19.5 -6.5t-15.5 -6.5q-6 0 -6 5t15 17q22 18 49 18q33 0 47 -19q15 -20 15 -61q34 69 88 69q24 0 41.5 -20t19.5 -57q41 77 96 77q26 0 43.5 -18t17.5 -55q0 -25 -9.5 -77t-9.5 -66q0 -9 5 -16t12 -7q11 0 22 7q12 8 14 8q6 0 6 -7
q0 -11 -24 -23q-18 -9 -46 -9q-23 0 -40.5 18t-17.5 55q0 13 10 62t10 63q0 28 -19 28q-17 0 -35 -28t-31 -80l-28 -103q-1 -7 -9 -7h-57q-5 0 -5 5q0 10 2 16q33 143 33 166q0 35 -22 35q-17 0 -35.5 -28t-30.5 -71q-7 -23 -17 -62.5t-14 -53.5q-3 -7 -12 -7h-56q-7 0 -7 8
q0 4 7 34z" />
    <glyph glyph-name="n" unicode="n" horiz-adv-x="383" 
d="M227 54q0 25 7 53q16 66 16 85q0 32 -22 32q-43 0 -76 -91q-9 -23 -20.5 -64.5t-16.5 -56.5q-3 -12 -16 -12h-52q-8 0 -8 8q0 6 7 29q18 58 29 103q12 52 12 72q0 27 -21 27q-8 0 -21 -6.5t-14 -6.5q-6 0 -6 5q0 7 16 17q22 14 49 14q32 0 48 -21q15 -18 15 -52
q13 23 35 41q32 25 75 25q26 0 42.5 -19t16.5 -48q0 -21 -14 -100q-7 -37 -7 -45q0 -27 16 -27q12 0 21 5q3 1 5.5 3t4 3t3 1.5t2.5 0.5q5 0 5 -6q0 -5 -8.5 -12.5t-16.5 -10.5q-19 -8 -45 -8q-24 0 -42.5 15t-18.5 47z" />
    <glyph glyph-name="o" unicode="o" horiz-adv-x="347" 
d="M201 255q51 -1 83.5 -31.5t32.5 -83.5q0 -60 -45 -102.5t-118 -42.5q-58 0 -91 32.5t-33 83.5q0 53 44 98.5t127 45.5zM105 97q0 -81 51 -81q34 0 58 42t24 100q0 76 -46 76q-36 0 -61.5 -43.5t-25.5 -93.5z" />
    <glyph glyph-name="p" unicode="p" horiz-adv-x="355" 
d="M-361 -750q-7 0 -7 8q0 3 12 11q48 30 89 75q143 156 230 418q36 103 52 184q31 153 47 278q3 26 22 26h35q14 0 14 -13q0 -14 -1 -23q33 41 88 41q50 0 77.5 -32.5t27.5 -77.5q0 -66 -39.5 -109.5t-88.5 -43.5q-62 0 -88 43q-40 -188 -109 -354q-39 -95 -119 -211.5
t-178 -186.5q-47 -33 -64 -33zM115 68q9 -23 26.5 -36t33.5 -13q34 0 53 38t19 86q0 85 -52 85q-39 0 -63 -43q-4 -37 -17 -117zM-343 -551q0 26 24 26q26 0 26 -26q0 -24 -26 -24q-11 0 -17.5 6.5t-6.5 17.5z" />
    <glyph glyph-name="q" unicode="q" horiz-adv-x="335" 
d="M177 12q-22 -16 -62 -16q-45 0 -74.5 30.5t-29.5 76.5q0 64 46.5 108t110.5 44q47 0 76 -36q8 19 14.5 25t17.5 6h38q14 0 14 -12q0 -6 -23 -69q-8 -23 -131 -353l-29 -75.5t-37 -99t-27.5 -92.5t-24.5 -115q-3 -20 -5 -25.5t-7 -5.5q-12 0 -12 72q0 78 31 195
q31 115 49 165q10 29 65 177zM92 102q0 -81 50 -81q23 0 44 19q3 9 47 151q-16 38 -50 38q-38 0 -64.5 -41t-26.5 -86z" />
    <glyph glyph-name="r" unicode="r" horiz-adv-x="295" 
d="M244 274q18 0 29.5 -12.5t11.5 -30.5q0 -50 -11 -50q-3 0 -5 2t-5.5 7.5t-5.5 7.5q-18 23 -40 23t-48.5 -22t-42.5 -68q-8 -24 -33 -117q-4 -14 -16 -14h-50q-8 0 -8 8q0 4 19 75q30 117 36 143q5 24 22 24h30q16 0 16 -14q0 -10 -12 -49q25 40 56 62q33 25 57 25z" />
    <glyph glyph-name="s" unicode="s" horiz-adv-x="256" 
d="M101 -7q-45 0 -78 29q-6 5 -12 16t-6 15q0 10 8 10q5 0 13 -10q25 -31 52 -31q16 0 27.5 11t11.5 31q0 19 -21 67q-15 35 -15 64q0 31 28 54.5t67 23.5q35 0 58 -21q12 -10 12 -18q0 -6 -6 -6q-4 0 -18 9t-28 9q-20 0 -31 -11.5t-11 -28.5q0 -12 19 -64q18 -48 18 -76
q0 -26 -26 -49.5t-62 -23.5z" />
    <glyph glyph-name="t" unicode="t" horiz-adv-x="232" 
d="M208 503q35 3 114 28q27 8 30 8q7 0 7 -7q0 -10 -23 -21q-79 -36 -139 -44q-28 -80 -52.5 -187t-24.5 -150q0 -26 1 -40.5t4.5 -34t14 -28.5t26.5 -9t31 9.5t18 9.5q6 0 6 -8q0 -7 -20 -22t-54 -15q-97 0 -97 141q0 48 24 153.5t50 169.5q-33 -7 -47 -7q-15 0 -15 10
q0 11 26 18q34 10 53 18q38 81 94 180q49 84 62 84q8 0 8 -9q0 -3 -20 -52q-1 -3 -17 -35.5t-30.5 -70.5t-29.5 -89z" />
    <glyph glyph-name="u" unicode="u" horiz-adv-x="351" 
d="M150 201q0 -25 -15 -80t-15 -69q0 -24 16 -24q19 0 42 28q12 15 30 54q9 22 18.5 50t16 51.5t8.5 28.5q4 10 15 10h45q10 0 10 -8q0 -1 -15.5 -66t-15.5 -103t11 -50q8 -10 23 -12q7 -1 7 -6q0 -8 -19 -8q-35 0 -56 16q-33 25 -33 76q-20 -45 -51 -67t-61 -22
q-26 0 -42.5 16t-16.5 44q0 25 14 78t14 70q0 18 -14 18q-9 0 -23 -8q-17 -10 -18 -10q-5 0 -5 7q0 10 26 27q23 15 51 15q22 0 37.5 -16t15.5 -40z" />
    <glyph glyph-name="v" unicode="v" horiz-adv-x="280" 
d="M129 -1q-5 -9 -13 -9q-7 0 -11 11q-5 16 -12.5 48.5t-16.5 63t-22 62.5q-19 44 -37 64q-7 9 -7 12q0 9 14 9q44 0 78 -41q18 -23 26.5 -39.5t20.5 -54.5q39 75 93 146.5t90 106.5q6 6 11 6q7 0 7 -7q0 -4 -6 -12q-82 -107 -145 -225l-37.5 -74.5z" />
    <glyph glyph-name="w" unicode="w" horiz-adv-x="445" 
d="M273 9q-11 -18 -16 -18q-10 0 -11 11q-20 122 -36 176q-60 -96 -73 -121l-9 -18.5t-9.5 -18.5l-8 -14t-8 -11.5t-6.5 -3.5q-10 0 -11 11q-10 92 -27 155q-9 35 -30 77q-1 2 -3 5.5l-3.5 6t-1.5 3.5q0 7 8 7q14 0 35 -11t38 -33q32 -41 41 -90q14 28 54.5 81.5t51.5 53.5
q10 0 13 -10q20 -51 34 -129q32 55 85 121t99 107q6 6 12 6q7 0 7 -8q0 -4 -5 -11q-5 -6 -94 -120q-43 -56 -126 -204z" />
    <glyph glyph-name="x" unicode="x" horiz-adv-x="288" 
d="M93 128q-24 64 -48 103l-12 22q0 9 15 9q31 0 52 -18q28 -24 50 -66q36 54 75.5 91.5t52.5 37.5q8 0 8 -7q0 -4 -18 -22q-61 -61 -100 -134q35 -80 61 -115q3 -4 6 -7.5t5 -5.5t3.5 -4t2 -3.5t0.5 -3.5q0 -10 -21 -10q-46 0 -71 26q-16 17 -38 62q-23 -40 -55.5 -83.5
t-81 -98.5t-115.5 -106t-140 -86q-47 -22 -86.5 -33.5t-52.5 -11.5q-12 0 -12 5t20 13q1 0 23 7.5t51.5 20t64.5 32.5q118 65 219 181.5t142 204.5z" />
    <glyph glyph-name="y" unicode="y" horiz-adv-x="365" 
d="M-304 -642q0 169 293 336q84 48 156 77q25 76 87 301q-45 -73 -120 -73q-24 0 -40 18t-16 47q0 27 19.5 85t19.5 71q0 20 -17 20q-16 0 -39 -19q-14 -10 -16 -10q-5 0 -5 7q0 3 8 14q28 33 78 33q24 0 42 -15t18 -37q0 -42 -19 -94q-18 -51 -18 -61q0 -27 20 -27
q35 0 69 59t54 149q2 11 19 11h45q11 0 11 -12q0 -14 -3 -29q-36 -196 -103 -407q54 17 74 17q10 0 10 -8t-34 -19l-59 -20q-31 -89 -65 -163q-26 -58 -60.5 -114t-82 -114.5t-107 -94.5t-118.5 -36q-47 0 -74 26.5t-27 81.5zM63 -450q32 69 71 180q-89 -40 -114 -54
q-144 -78 -233 -186q-54 -68 -54 -130q0 -39 19.5 -61.5t50.5 -22.5q66 0 136 78.5t124 195.5z" />
    <glyph glyph-name="z" unicode="z" horiz-adv-x="315" 
d="M172 36q56 -13 76 -33q2 -2 2 -5q0 -7 -7 -7q-3 0 -7.5 1.5t-10 3t-8.5 2.5q-40 10 -95 10q-29 0 -59 -4l-30 -5q-13 0 -13 13q0 11 26 42q110 129 145 165q-48 11 -61 11q-23 0 -45.5 -6.5t-23.5 -6.5q-10 0 -10 8q0 4 17 14q31 16 71 16q10 0 45 -2.5t43 -2.5
q13 0 33 2t24 2q11 0 11 -10q0 -7 -23 -32l-143 -170q15 0 43 -6z" />
    <glyph glyph-name="braceleft" unicode="{" horiz-adv-x="455" 
d="M265 359q-39 -42 -107 -64q75 -43 75 -142q0 -49 -26.5 -120t-58 -132t-58 -141.5t-26.5 -147.5q0 -28 6 -48t11.5 -29.5t5.5 -12.5q0 -8 -7 -8q-8 0 -21.5 16t-22.5 32q-26 48 -26 114q0 51 17 113.5t32 99t41 94.5l41 89.5t23.5 60.5t11.5 52q0 84 -68 102
q-13 3 -13 10q0 5 19 10q33 8 61 31q37 32 76 105l30 55l35 65t37 65l45 73q36 55 100.5 107.5t136.5 52.5q20 0 20 -8q0 -9 -17 -11q-79 -14 -134 -93q-25 -36 -102 -181.5t-137 -208.5z" />
    <glyph glyph-name="bar" unicode="|" horiz-adv-x="344" 
d="M120 -171q0 8 1.5 20t4.5 33t5 41q20 198 20 383q0 207 21 335q3 22 17.5 65.5t27.5 43.5q7 0 7 -7q0 -6 -5.5 -29l-6.5 -27q-8 -54 -12 -145q-2 -45 -2 -224q0 -244 -30 -398q-3 -13 -8 -33t-15 -43.5t-19 -23.5q-6 0 -6 9z" />
    <glyph glyph-name="braceright" unicode="}" horiz-adv-x="465" 
d="M334 219q8 -6 8 -11t-14 -11q-33 -14 -49 -26q-44 -34 -79 -110q-20 -47 -51.5 -131t-61 -152t-64.5 -125q-39 -63 -98.5 -114t-123.5 -51q-21 0 -21 7q0 5 4.5 7t17 4.5t14.5 3.5q31 9 58 31.5t46 49t38 65t30.5 68.5l27.5 72l25 64q14 32 36.5 88t32 77t29.5 53.5
t47 61.5q46 50 118 71q-65 40 -65 123q0 48 39 159q8 23 25.5 68.5t27.5 74t19 69.5t9 76q0 26 -11 54q-7 16 -7 19q0 8 7 8q6 0 11 -7q46 -57 46 -153q0 -60 -53 -216t-53 -197q0 -43 35 -70z" />
    <glyph glyph-name="asciitilde" unicode="~" horiz-adv-x="567" 
d="M40 166q0 10 24.5 34t66.5 47t79 23q39 0 75 -13l37 -15.5t47.5 -17.5t38.5 -6q28 0 52 12t38.5 24t19.5 12q9 0 9 -7t-3 -11q-24 -41 -63 -69.5t-91 -28.5q-35 0 -65 12q-14 6 -40.5 19.5t-47 20.5t-42.5 7q-52 0 -115 -50q-5 -5 -13 -5q-7 0 -7 12z" />
    <glyph glyph-name="nbspace" unicode="&#xa0;" horiz-adv-x="200" 
 />
    <glyph glyph-name="currency" unicode="&#xa4;" 
d="M29 175q-22 0 -22 11q0 22 83 22h46q23 66 29 88q-32 -1 -66 -5.5t-39 -4.5q-17 0 -17 9q0 12 53 23q34 7 81 9q81 228 110 275q-53 -13 -131 -62q-24 -14 -25 -14q-5 0 -5 5q0 9 31 32q118 87 245 87q58 0 95 -17q83 -38 83 -136q0 -36 -21 -75.5t-56 -63.5
q-91 -63 -218 -63q-22 0 -33 1q-17 -54 -33 -93q63 0 117 5.5t82.5 10.5t31.5 5q20 0 20 -10q0 -20 -93 -31.5t-171 -11.5q-20 -50 -80 -186q-27 -59 -81 -142.5t-104 -129.5q-67 -61 -94 -61q-7 0 -7 6q0 2 3.5 5t12 8.5t14.5 10.5q42 34 85 92q56 77 110 221q25 66 59 178
q-68 2 -95 2zM357 621q-15 -33 -97 -294q3 0 13 -1t13 -1q33 0 56 3t56 18.5t58 43.5q41 46 41 115q0 59 -27.5 89t-78.5 30q-13 0 -34 -3zM-122 -141q0 26 24 26q26 0 26 -26q0 -24 -26 -24q-10 0 -17 6.5t-7 17.5z" />
    <glyph glyph-name="brokenbar" unicode="&#xa6;" horiz-adv-x="427" 
d="M60 8q0 7 7 21t17.5 32.5t13.5 25.5q16 33 33.5 78.5l36 95.5l25.5 69q3 10 30 10q23 0 23 -13q0 -8 -2 -12q-41 -127 -107 -238l-16 -25.5t-27 -33.5t-28 -18q-6 0 -6 8zM330 577q-5 -12 -22 -58.5t-29 -76.5q-6 -13 -25 -13q-25 0 -25 13q0 14 15 53q26 71 80 170
q50 85 77 85q6 0 6 -6q0 -4 -4.5 -13.5t-12.5 -24t-11 -20.5q-31 -61 -49 -109z" />
    <glyph glyph-name="section" unicode="&#xa7;" horiz-adv-x="553" 
d="M275 -258q0 -110 -54.5 -226.5t-171.5 -207.5q-57 -44 -87 -53l-6 -2t-5.5 -2t-3.5 -1q-7 0 -7 7q0 6 14 14q32 19 66 49q178 159 178 384q0 90 -21 233t-21 193t15.5 90t41 63t53 36t55.5 17q-2 9 -8 41l-8.5 45t-6 39t-5 49.5t-1.5 49.5q0 81 40.5 135.5t111.5 54.5
q18 0 38.5 -11t33.5 -31q7 -14 7 -20t-4 -6q-5 0 -9 6q-27 35 -60 35q-90 0 -90 -132q0 -39 27 -172.5t27 -180.5q0 -92 -50 -153.5t-122 -83.5q33 -136 33 -259zM236 26q105 44 105 179q0 43 -14 103q-44 0 -78 -36.5t-34 -99.5q0 -70 21 -146zM28 -451q0 26 24 26
q26 0 26 -26q0 -24 -26 -24q-10 0 -17 6.5t-7 17.5z" />
    <glyph glyph-name="copyright" unicode="&#xa9;" horiz-adv-x="763" 
d="M723 353q0 -151 -103 -252t-268 -101q-139 0 -225.5 82t-86.5 227q0 98 55 177t141 121t182 42q143 0 224 -87t81 -209zM369 28q39 0 78.5 10t80 35t72 62t51.5 95.5t20 130.5q0 119 -71 191.5t-182 72.5q-131 0 -228 -92t-97 -223q0 -132 77.5 -207t198.5 -75zM519 504
q-28 32 -56 32q-54 0 -103.5 -48.5t-75.5 -111t-26 -111.5q0 -69 23.5 -98t74.5 -29q41 0 86 26q20 14 24 14q5 0 5 -6q0 -5 -5 -10q-56 -51 -140 -51q-61 0 -100.5 44t-39.5 112t33.5 135t95.5 112.5t135 45.5q60 0 83 -55q4 -10 -3 -10q-4 0 -11 9z" />
    <glyph glyph-name="guillemotleft" unicode="&#xab;" horiz-adv-x="515" 
d="M43 227q59 37 186 138l19 15t15.5 13t11 9t9 6t6.5 2q9 0 9 -10q0 -3 -2.5 -8.5t-8 -11.5t-10 -11.5t-11 -12.5l-9.5 -10q-19 -22 -43.5 -45t-65 -57t-42.5 -36q53 -44 88 -86t47 -65q6 -10 6 -20q0 -8 -12 -8q-7 0 -16 9.5l-30.5 33t-45.5 45.5q-48 42 -101 75
q-13 8 -13 18q0 9 13 17zM238 230q96 61 173 131q7 6 16.5 15l16 15l13.5 12t11.5 9t7.5 3q9 0 9 -10q0 -16 -40 -56q-65 -67 -156 -142q50 -55 60 -68q47 -63 47 -79q0 -11 -10 -11q-7 0 -14 8l-26.5 31t-43.5 46q-21 20 -64 58q-14 11 -14 19q0 10 14 19z" />
    <glyph glyph-name="logicalnot" unicode="&#xac;" horiz-adv-x="501" 
d="M409 292q-8 -19 -17 -19q-13 0 -13 14q0 26 16 86q10 36 15 49q-58 -12 -137 -12q-44 0 -116 2.5t-106 2.5q-21 0 -21 14q0 13 28 20.5t58 7.5q32 0 90 -2t79 -2q36 0 73.5 4t62 8t28.5 4q22 0 22 -17q0 -10 -23 -65z" />
    <glyph glyph-name="uni00AD" unicode="&#xad;" horiz-adv-x="301" 
d="M30 168q0 14 29.5 33t67.5 19q9 0 38 -5t38 -5q30 0 52 11q6 4 10 4q6 0 6 -6q0 -5 -3 -8q-34 -41 -86 -41q-19 0 -43.5 5t-32.5 5q-19 0 -40 -6q-3 -1 -15 -6t-16 -5q-5 0 -5 5z" />
    <glyph glyph-name="registered" unicode="&#xae;" horiz-adv-x="763" 
d="M203 152q-9 0 -10 5q0 3 2 4.5t7.5 3.5t9.5 4q32 24 66 120q13 35 41 122.5t38 110.5q-11 -3 -56 -27q-5 -5 -12 -5q-3 1 -3 5q0 5 13 15q58 44 127 44q55 0 82.5 -24.5t27.5 -59.5q0 -42 -32 -69t-77 -34q10 -48 43 -106t66 -82q5 -4 11 -8t8.5 -6.5t2.5 -5.5
q0 -4 -8 -4q-14 0 -32 7q-107 42 -157 183q-16 -61 -62 -127t-96 -66zM419 533l-48 -159q45 0 73 28t28 73q0 27 -14 43t-39 15zM723 353q0 -152 -103 -252.5t-268 -100.5q-140 0 -226 82t-86 227q0 98 55 177.5t141 121.5t182 42q142 0 223.5 -88t81.5 -209zM369 28
q38 0 77.5 10t80.5 35t72.5 62t51.5 95.5t20 130.5q0 119 -71 191.5t-182 72.5q-131 0 -228 -92t-97 -223q0 -133 77.5 -207.5t198.5 -74.5z" />
    <glyph glyph-name="degree" unicode="&#xb0;" horiz-adv-x="339" 
d="M190 650q35 0 62 -22.5t27 -64.5q0 -46 -37 -75.5t-86 -29.5q-41 0 -68.5 25t-27.5 69q0 36 37 67t93 31zM118 545q0 -68 41 -68q25 0 43.5 30t18.5 69q0 55 -38 55q-22 0 -43.5 -28.5t-21.5 -57.5z" />
    <glyph glyph-name="plusminus" unicode="&#xb1;" horiz-adv-x="502" 
d="M91 415q8 0 24.5 -3.5t26.5 -4.5q34 -4 100 -6q10 37 19 63q8 25 29 59t39 34q7 0 7 -8q0 -5 -4 -16t-9.5 -24.5t-7.5 -17.5q-17 -49 -25 -90q31 0 48 1q30 1 65 8t38 7q21 0 21 -9q0 -38 -148 -48l-33 -2l-19 -61q-13 -47 -20 -64.5t-17 -17.5q-12 0 -12 21q0 14 4 44
q2 18 15 79q-53 2 -99 11q-55 11 -55 36q0 9 13 9zM223 120q-64 0 -112 -3.5t-50 -3.5q-21 0 -21 13q0 20 52 28q30 5 91 8q29 1 70.5 1.5t48.5 0.5q30 2 64.5 7.5t38.5 5.5q21 0 21 -9q0 -23 -57 -35.5t-146 -12.5z" />
    <glyph glyph-name="mu" unicode="&#xb5;" horiz-adv-x="365" 
d="M266 250h37q9 0 9 -8q0 -7 -4 -21q-3 -14 -14 -50.5t-18 -66t-7 -47.5q0 -31 19 -31q10 0 25 11.5t17 11.5q5 0 5 -6q0 -13 -19.5 -28t-37.5 -15q-36 0 -53 25q-8 13 -13 49q-42 -74 -88 -74q-23 0 -40 30q-24 -54 -82 -128q-28 -36 -72.5 -70.5t-74.5 -34.5q-10 0 -10 7
q0 3 4.5 6t12.5 7t11 6q31 18 61 48q88 88 166 308l19 56q9 25 18 25q10 0 10 -13q0 -25 -10 -63q-14 -57 -38 -123q5 -39 29 -39q58 0 120 207q7 21 18 21z" />
    <glyph glyph-name="paragraph" unicode="&#xb6;" horiz-adv-x="645" 
d="M426 100q-6 -13 -16.5 -32.5t-27 -43.5t-25.5 -24q-8 0 -8 7q0 5 3 9q10 17 39 85q19 46 34 87t27 82l20 68.5t16.5 71t12.5 62.5t13 70l12 69q-46 0 -88 7q-31 -222 -148.5 -515t-259.5 -481q-35 -47 -91.5 -107t-98.5 -85q-27 -15 -30 -15q-10 0 -10 8q0 5 7 10
q96 73 186.5 198t154.5 262t109 263t66 227q-42 7 -68 49.5t-26 83.5q0 65 52.5 103.5t125.5 38.5q18 0 73 -4.5t82 -4.5q78 0 136 11q9 2 22.5 6.5t15.5 4.5q9 0 9 -8q0 -18 -54 -34q-53 -17 -109 -17q-65 -316 -156 -512zM-112 -301q0 26 24 26q26 0 26 -26q0 -24 -26 -24
q-10 0 -17 6.5t-7 17.5z" />
    <glyph glyph-name="periodcentered" unicode="&#xb7;" horiz-adv-x="241" 
d="M80 221q0 17 12 28.5t28 11.5q17 0 29 -11.5t12 -28.5t-12 -29t-29 -12t-28.5 12t-11.5 29z" />
    <glyph glyph-name="guillemotright" unicode="&#xbb;" horiz-adv-x="515" 
d="M472 217q-59 -37 -186 -138l-19 -15t-15.5 -13t-11 -9t-9 -6t-6.5 -2q-9 0 -9 10q0 3 2.5 8.5t8 11.5t10 11.5t11 12.5l9.5 10q19 22 43.5 45t65 57t42.5 36q-53 44 -88 86t-47 65q-6 10 -6 20q0 8 12 8q7 0 16 -9.5l30.5 -33t45.5 -45.5q48 -42 101 -75q13 -8 13 -18
q0 -9 -13 -17zM277 214q-96 -61 -173 -131q-7 -6 -16.5 -15l-16 -15l-13.5 -12t-11.5 -9t-7.5 -3q-9 0 -9 10q0 16 40 56q65 67 156 142q-50 55 -60 68q-47 63 -47 79q0 11 10 11q7 0 14 -8l26.5 -31t43.5 -46q21 -20 64 -58q14 -11 14 -19q0 -10 -14 -19z" />
    <glyph glyph-name="afii10023" unicode="&#x401;" horiz-adv-x="638" 
d="M423 549q-43 0 -89.5 -19t-86.5 -52.5t-66 -87t-26 -115.5q0 -94 60.5 -161.5t165.5 -67.5q66 0 105.5 14.5t92.5 53.5q19 14 22 14q7 0 7 -8q0 -7 -14 -22.5t-21 -20.5q-101 -80 -241 -80q-128 0 -200 81t-72 199q0 84 51 151.5t123.5 103.5t152.5 45q-53 27 -53 86
q0 40 29 64t73 24q37 0 61.5 -23.5t24.5 -43.5q0 -11 -9 -11q-6 0 -9 7q-16 33 -54 33q-22 0 -41 -20t-19 -45q0 -35 25 -56t52 -25q19 -3 19 -12q0 -10 -12 -10q-6 0 -25 2t-26 2zM466 818q0 11 7.5 19t18.5 8t18.5 -8t7.5 -19q0 -10 -8 -17.5t-18 -7.5t-18 7.5t-8 17.5z
M376 818q0 11 7.5 19t18.5 8t18.5 -8t7.5 -19q0 -10 -8 -17.5t-18 -7.5t-18 7.5t-8 17.5z" />
    <glyph glyph-name="afii10053" unicode="&#x404;" horiz-adv-x="558" 
d="M507 755q58 0 91 -27q20 -16 20 -26q0 -8 -12 -8q-4 0 -14.5 8t-30 15.5t-46.5 7.5q-120 0 -215 -100t-132 -233q30 0 78 -9t65 -9q21 0 53 6t33 6q8 0 8 -6q0 -9 -7 -14q-36 -27 -102 -27q-12 0 -46 3.5t-44 3.5q-26 0 -51 -4q-8 -43 -8 -74q0 -120 45.5 -181.5
t123.5 -61.5q69 0 139 48q33 23 36 23q10 0 10 -9q0 -7 -12 -19q-80 -75 -212 -75q-102 0 -164.5 72t-62.5 206q0 75 35.5 160t95 157t146.5 119.5t180 47.5z" />
    <glyph glyph-name="afii10055" unicode="&#x406;" horiz-adv-x="376" 
d="M90 -20q-10 1 -10 9q0 6 7 9q26 10 35 18q30 24 62.5 115.5t57 193.5t58 219.5t62.5 177.5q-20 5 -42 5q-20 0 -46.5 -6t-27.5 -6q-10 0 -10 5t10 11q35 19 80 19q9 0 28.5 -0.5t27.5 -0.5q16 0 40 4l24 4q10 0 10 -7q0 -5 -2 -9.5t-10 -18.5t-14 -27
q-35 -70 -107.5 -348t-108.5 -336q14 -3 32 -3q17 0 35 6q13 5 19 5t6 -5q0 -13 -27 -20t-51 -7q-12 0 -39.5 0.5t-33.5 0.5q-14 0 -38 -4t-27 -4z" />
    <glyph glyph-name="afii10056" unicode="&#x407;" horiz-adv-x="376" 
d="M90 -20q-10 1 -10 9q0 6 7 9q26 10 35 18q30 24 62.5 115.5t57 193.5t58 219.5t62.5 177.5q-20 5 -42 5q-20 0 -46.5 -6t-27.5 -6q-10 0 -10 5t10 11q35 19 80 19q9 0 28.5 -0.5t27.5 -0.5q16 0 40 4l24 4q10 0 10 -7q0 -5 -2 -9.5t-10 -18.5t-14 -27
q-35 -70 -107.5 -348t-108.5 -336q14 -3 32 -3q17 0 35 6q13 5 19 5t6 -5q0 -13 -27 -20t-51 -7q-12 0 -39.5 0.5t-33.5 0.5q-14 0 -38 -4t-27 -4zM456 858q0 11 7.5 19t18.5 8t18.5 -8t7.5 -19q0 -10 -8 -17.5t-18 -7.5t-18 7.5t-8 17.5zM366 858q0 11 7.5 19t18.5 8
t18.5 -8t7.5 -19q0 -10 -8 -17.5t-18 -7.5t-18 7.5t-8 17.5z" />
    <glyph glyph-name="afii10062" unicode="&#x40e;" horiz-adv-x="737" 
d="M314 715q-7 -5 -12 -5q-7 0 -7 6q0 4 3 8q18 26 52.5 45t72.5 19q30 0 52.5 -23t22.5 -64q0 -45 -27.5 -135.5t-27.5 -110.5q0 -46 30 -46q65 0 235 249q83 121 107 141q7 6 14 6q8 0 8 -6q0 -1 -2 -5q-16 -36 -38 -103t-31 -92q-7 -18 -31.5 -85.5t-37.5 -99.5
t-41.5 -90.5t-61.5 -114.5q-71 -119 -192 -205.5t-257 -86.5q-60 0 -111 15q-14 4 -14 15q0 6 11 6l31 -5q31 -4 68 -4q101 0 198 73t174 200q36 60 63.5 116t40.5 90l38 104q-23 -35 -49 -66t-72.5 -63.5t-89.5 -32.5q-77 0 -77 99q0 44 28.5 129t28.5 119q0 38 -28 38
q-27 0 -71 -35zM649 838q-35 0 -54.5 16.5t-19.5 46.5q0 21 14.5 35.5t34.5 14.5q16 0 27.5 -12.5t11.5 -33.5t-11 -37q83 0 137 87q16 25 20 25q8 0 8 -10q0 -15 -19 -45q-28 -43 -70 -65t-79 -22z" />
    <glyph glyph-name="afii10017" unicode="&#x410;" horiz-adv-x="818" 
d="M938 737q0 -15 -41 -129l-214 -592q-5 -16 -17 -16h-72q-9 0 -9 8q0 7 7 23l33 91q-76 3 -140 29q-146 -157 -290 -157q-92 0 -160 68q-25 25 -25 40q0 6 6 6q4 0 14 -12q70 -80 166 -80q132 0 263 144q-39 21 -62 50q-8 11 -8 20q0 6 6 6q2 0 6.5 -4.5l13 -12.5
t15.5 -14q21 -17 44 -26q114 118 220 273t176 283q7 15 38 15q30 0 30 -13zM501 170q56 -26 131 -26q44 98 182 449q-47 -81 -150 -221t-163 -202z" />
    <glyph glyph-name="afii10018" unicode="&#x411;" horiz-adv-x="756" 
d="M550 316q-37 0 -66 -17.5t-61 -65.5l-85 -131q-80 -118 -188 -185q-24 -15 -65 -31.5t-63 -16.5q-12 0 -12 10q0 4 5 6t19 6t24 8q51 20 121 82q71 64 150 230q100 210 168 495q-157 0 -209 -126q-3 -5 -8 -5q-9 0 -9 13q0 23 24 58t68 59q57 31 148 31q43 0 152 -20
t145 -20q76 0 128 24q5 2 13 6.5l13.5 7.5t6.5 3q7 0 7 -5q0 -21 -52 -42t-121 -21q-44 0 -78.5 4.5t-76 12t-71.5 11.5q-19 -95 -56.5 -211.5t-73.5 -191.5q58 52 119 52q67 0 105.5 -41t38.5 -100q0 -81 -60 -145t-154 -64q-76 0 -124 46q-13 13 -13 19q0 8 8 8q6 0 14 -8
q42 -34 90 -34q63 0 108.5 62.5t45.5 131.5q0 39 -19 67t-56 28z" />
    <glyph glyph-name="afii10019" unicode="&#x412;" horiz-adv-x="918" 
d="M651 511q-18 2 -25 2q-11 0 -11 7t8 9q48 12 78 44.5t30 79.5q0 42 -32 62q-21 14 -52 14q-22 0 -31 -2q-29 -195 -106 -413q-25 -71 -56 -136.5t-75 -138t-103.5 -133.5t-126.5 -99q-24 -13 -59.5 -25t-57.5 -12t-22 9q0 4 6 6t24 6t35 10q68 25 124 81q133 130 230 444
q70 226 104 382q-34 -8 -78.5 -42t-82.5 -92q-3 -5 -7 -5q-6 0 -6 8q0 6 11 28q20 37 65.5 74.5t90.5 53.5q59 22 125 22q58 0 95 -24q54 -33 54 -89q0 -53 -54 -90q-17 -13 -59 -25q97 -14 149 -77.5t52 -150.5q0 -109 -86.5 -206t-209.5 -97q-28 0 -42.5 1t-37 9t-47.5 24
q-21 15 -21 25q0 8 7 8q1 0 20 -13q42 -30 104 -30q82 0 156 83.5t74 216.5q0 68 -40 124t-114 67z" />
    <glyph glyph-name="afii10020" unicode="&#x413;" horiz-adv-x="586" 
d="M17 -54q-7 7 -7 10q0 9 7 9q3 0 9 -3q48 -24 114 -24q26 0 64.5 15t66.5 39q86 75 158 221q46 92 94.5 244t65.5 258q-31 7 -71 7q-119 0 -179 -80q-20 -27 -29 -59.5t-11.5 -49.5t-9.5 -17q-11 0 -11 29q0 67 41 120q71 92 227 92q40 0 166 -24.5t196 -24.5
q50 0 91.5 12t63 24t23.5 12q10 0 10 -9q0 -4 -12.5 -15.5t-28.5 -20.5q-65 -36 -154 -36q-86 0 -219 25q-56 -254 -140 -439q-62 -137 -153 -232q-113 -118 -249 -118q-71 0 -123 35z" />
    <glyph glyph-name="afii10021" unicode="&#x414;" horiz-adv-x="968" 
d="M296 2q0 5 7 14.5l21 28t25 34.5q94 146 162 326t86 311q-24 3 -55 3q-133 0 -238 -57l-48 -26q-6 0 -6 8q0 11 32 32q118 78 270 78q34 0 51 -2q5 21 8.5 50.5t6 61.5t3.5 42q0 6 6 6q9 0 11 -11q3 -12 8 -41q7 -46 7 -116q148 -32 226.5 -128.5t78.5 -236.5
q0 -150 -108.5 -260t-266.5 -110q-24 0 -69.5 3t-71.5 3q-41 0 -88.5 -10.5t-50.5 -10.5q-7 0 -7 8zM421 40q24 3 53 3q10 0 44 -1.5t51 -1.5q126 0 211 102.5t85 244.5q0 113 -54.5 199t-157.5 115q-5 -182 -77.5 -368t-154.5 -293z" />
    <glyph glyph-name="afii10022" unicode="&#x415;" horiz-adv-x="722" 
d="M515 560q-45 0 -92 -19t-87.5 -53t-66 -90t-25.5 -122q0 -106 61.5 -175.5t163.5 -69.5q67 0 134 34q16 8 34.5 21.5l31 22.5t16.5 9q7 0 7 -8t-20 -26.5t-38 -30.5q-86 -56 -191 -56q-140 0 -216.5 81t-76.5 202q0 128 95 208.5t231 99.5q-53 27 -53 85q0 36 29 59.5
t77 23.5q38 0 62 -23.5t24 -37.5q0 -9 -6 -9q-3 0 -13 10q-22 25 -52 25q-23 0 -40 -17t-17 -40q0 -36 20.5 -57.5t45.5 -28.5q21 -6 21 -13q0 -9 -11 -9q-5 0 -21 2t-27 2z" />
    <glyph glyph-name="afii10024" unicode="&#x416;" horiz-adv-x="1066" 
d="M974 0q-51 0 -89.5 24.5t-59 64.5t-30 83.5t-9.5 89.5q0 109 29 181q-46 -65 -116 -176.5l-112.5 -175t-56.5 -63.5q-9 0 -9 12q0 7 11.5 39.5t44 132t70.5 227.5q-98 -167 -189 -266t-170 -136t-170 -37q-31 0 -64.5 11t-33.5 24q0 6 6 6q1 0 29.5 -8t70.5 -8
q91 0 175 70t134 179t50 219q0 102 -40 167.5t-112 65.5q-29 0 -55 -6t-41 -11.5t-18 -5.5q-5 0 -5 5t21 17q50 25 116 25q69 0 118 -42q93 -78 93 -249q0 -78 -31 -153q50 66 84 121t71.5 124.5l46.5 85.5q7 12 19 37t19 35.5t13 10.5q10 0 10 -20q0 -23 -57.5 -212
t-76.5 -238q6 9 37.5 60l56 89t66 95t81.5 102q137 154 258 154q44 0 69 -23q18 -18 18 -32q0 -10 -7 -10q-4 0 -12.5 9.5t-24 19.5t-36.5 10q-59 0 -117 -50q-89 -77 -137 -195.5t-48 -262.5q0 -48 10.5 -89t40 -72.5t74.5 -31.5q11 0 25 3t15 3q10 0 10 -6q0 -7 -7 -10
q-25 -13 -58 -13z" />
    <glyph glyph-name="afii10025" unicode="&#x417;" horiz-adv-x="719" 
d="M424 683q-7 0 -7 6q0 8 8 16q49 49 124 49q41 0 68.5 -22.5t27.5 -63.5q0 -37 -26.5 -63.5t-54.5 -35.5t-54 -12q84 -21 136 -89t52 -152q0 -144 -101 -231.5t-266 -87.5q-80 0 -149 38.5t-110 106.5q-12 21 -12 29t8 8q3 0 7.5 -5.5t10.5 -15.5t9 -14q87 -116 234 -116
q65 0 119 27t87 71t51 96.5t18 106.5q0 70 -27.5 126.5t-85.5 79.5q-14 6 -41 11q-10 2 -10 10t14 10q46 5 80.5 30t34.5 69q0 59 -51 59q-28 0 -60 -20.5t-34 -20.5z" />
    <glyph glyph-name="afii10026" unicode="&#x418;" horiz-adv-x="718" 
d="M336 663q51 153 51 247q0 78 -26 150q-4 10 -10.5 22.5l-10.5 20t-4 10.5q0 7 9 7q17 0 42 -51q44 -86 44 -222q0 -119 -47 -286q-12 -43 -49 -159t-59.5 -197t-22.5 -114q0 -30 6.5 -44.5t26.5 -14.5q40 0 98 77.5t108.5 183.5t82.5 207l66 219q6 19 11 25t18 6h54
q14 0 14 -11q0 -12 -10 -47l-29.5 -102l-39 -137.5l-33 -126t-29 -132t-9.5 -91.5q0 -67 25 -95q7 -7 17.5 -11l17 -6.5t6.5 -7.5q0 -10 -19 -10q-55 0 -84.5 50.5t-29.5 119.5q0 80 37 223q-4 -7 -20.5 -43.5t-39 -80.5t-45.5 -82q-104 -167 -197 -167q-44 0 -70 27.5
t-26 82.5q0 35 12.5 83t31 98.5l57.5 160z" />
    <glyph glyph-name="afii10027" unicode="&#x419;" horiz-adv-x="721" 
d="M297 520q46 125 46 203q0 36 -16 76t-16 41q0 7 9 7q8 0 24 -24.5t30 -67t14 -82.5q0 -89 -37 -222q-15 -54 -43.5 -144t-45 -147.5t-16.5 -82.5q0 -22 9 -34t23 -12q39 0 84 47q46 49 96 138q76 138 124 279q16 46 71 224q6 18 11 24.5t18 6.5h54q15 0 15 -10
q0 -8 -13 -53l-40 -129.5l-53 -172t-40 -154.5t-19 -130q0 -69 28 -94q8 -7 17 -11t14.5 -4.5t9 -2.5t3.5 -6q0 -10 -19 -10q-54 0 -88.5 43t-34.5 115q0 96 43 235q-2 -3 -19.5 -42.5t-38 -81.5t-44.5 -81q-101 -168 -200 -168q-44 0 -70.5 28.5t-26.5 83.5q0 29 12 73
t25 80t46.5 121.5zM558 838q-35 0 -54.5 16.5t-19.5 46.5q0 21 14.5 35.5t34.5 14.5q16 0 27.5 -12.5t11.5 -33.5t-11 -37q83 0 137 87q16 25 20 25q8 0 8 -10q0 -15 -19 -45q-28 -43 -70 -65t-79 -22z" />
    <glyph glyph-name="afii10028" unicode="&#x41a;" horiz-adv-x="716" 
d="M934 877q5 0 5 -5q0 -3 -2 -5.5t-6 -5.5l-9 -6.5l-13 -9.5t-15 -12q-65 -53 -137 -160q-6 -8 -33 -51l-44.5 -69t-42.5 -58.5t-42 -47.5q-41 -35 -79 -52q3 -13 14 -65t18 -80t22 -76.5t34 -93.5q58 -139 122 -216q47 -56 99 -87l16.5 -10.5t14.5 -9.5t4 -6q0 -7 -13 -7
q-18 0 -66 29.5t-91 70.5q-93 91 -141 185q-85 165 -126 328q-9 -28 -22 -63t-41 -93t-59 -102.5t-74.5 -78t-88.5 -33.5q-38 0 -66 16.5t-32 33.5q0 8 8 8q2 0 21.5 -15.5t46.5 -15.5q68 0 114 82q26 48 50.5 105.5t39.5 98t36 112.5t27.5 96t27 106.5t22.5 89.5
q-20 2 -67.5 11.5t-59.5 9.5q-61 -1 -97 -35q-9 -7 -17.5 -18t-14 -17.5t-8.5 -6.5q-6 0 -6 8q0 15 21 42q46 55 128 55q18 0 66.5 -8t65.5 -8q21 0 49 5.5t32 5.5q11 0 11 -10q0 -5 -2 -15q-64 -241 -91 -307q35 1 65.5 15t62 47.5t53.5 62.5t62 87q89 131 146 186
q26 26 57.5 44.5t44.5 18.5z" />
    <glyph glyph-name="afii10029" unicode="&#x41b;" horiz-adv-x="874" 
d="M223 -4q-59 0 -114.5 27.5t-92.5 86.5q-6 12 -6 17q0 8 8 8q3 0 11.5 -11.5t24 -27.5t37 -32.5t56.5 -28t76 -11.5q83 0 148.5 36.5t129.5 96.5q70 65 131.5 139t120 163.5t86 135.5l81.5 140q9 15 24 15h31q16 0 16 -9q0 -4 -1 -8q-8 -32 -53 -157l-119.5 -326
l-83.5 -226q-9 -23 -23 -23h-59q-12 0 -12 15q0 11 12 45l37 94l73.5 184l90.5 229q-166 -280 -337 -440q-142 -132 -293 -132z" />
    <glyph glyph-name="afii10030" unicode="&#x41c;" horiz-adv-x="1296" 
d="M1306 747q10 0 10 -12q0 -10 -13 -47q-59 -165 -104 -345q-27 -108 -27 -197q0 -83 22 -134q8 -18 21 -34q11 -13 11 -16q0 -8 -11 -8q-29 0 -59 29q-65 62 -65 195q0 114 40 240q-43 -77 -92 -152q-68 -102 -187 -234q-37 -40 -48 -40q-13 0 -13 17q0 18 3 39
q38 199 99 400q-65 -130 -129.5 -221t-144.5 -177q-122 -131 -240 -201q-105 -64 -234 -64q-74 0 -137 27q-17 7 -37.5 21.5t-20.5 22.5q0 7 7 7q3 0 8.5 -3.5t16.5 -9.5t22 -11q60 -25 135 -25q45 0 103 17t106 45q129 74 246 200q85 94 168 220q70 107 137 230
q25 44 68.5 128t44.5 87q20 38 31 38t11 -12q0 -10 -7 -38q-98 -355 -141 -585q38 42 90 115t87 131l98 162l98 163q19 32 27 32z" />
    <glyph glyph-name="afii10031" unicode="&#x41d;" horiz-adv-x="911" 
d="M45 -5q-15 10 -15 20q0 8 7 8q6 -2 16.5 -10.5t18.5 -12.5q53 -28 99 -28q72 0 123 32t107 109q44 60 90.5 171.5t75.5 199.5t72 231q-25 0 -67 6.5t-62 6.5q-64 0 -118 -47q-43 -38 -59 -101q-3 -11 -12 -11q-8 0 -8 10q0 35 28 79q24 40 71 70t118 30q28 0 66 -3t44 -3
q48 0 83 15q7 7 18 7q9 0 9 -8t-7 -31q-63 -217 -117 -339q10 -1 29 -1q60 0 112 10q63 167 133 303q22 42 46 42h27q18 0 18 -12q0 -11 -39 -94q-121 -254 -177 -469q-12 -45 -12 -99q0 -19 10 -37t30 -18q21 0 37 13q10 7 11 7q7 0 7 -7q0 -6 -10 -16q-25 -26 -63 -26
q-48 0 -72.5 30.5t-24.5 83.5q0 44 18.5 122.5t48.5 148.5q-50 -8 -90 -8q-13 0 -30 0.5t-18 0.5q-24 -71 -84.5 -171t-106.5 -150q-42 -46 -105 -75t-122 -29q-89 0 -154 50z" />
    <glyph glyph-name="afii10032" unicode="&#x41e;" horiz-adv-x="802" 
d="M593 37q-95 -67 -192 -67q-100 0 -150.5 76t-50.5 189q0 131 58.5 253.5t163 201t226.5 78.5q96 0 145 -72.5t49 -176.5q0 -127 -64 -260.5t-185 -221.5zM279 165q0 -70 27.5 -121.5t90.5 -51.5q70 0 135 57q107 95 169.5 258t62.5 285q0 65 -29.5 109.5t-87.5 44.5
q-81 0 -153 -61t-117.5 -151.5t-71.5 -189t-26 -179.5z" />
    <glyph glyph-name="afii10033" unicode="&#x41f;" horiz-adv-x="817" 
d="M579 768q21 0 147 -12.5t211 -12.5q62 0 109.5 8.5t68 18.5t35 18.5t18.5 8.5q9 0 9 -8q0 -12 -26.5 -29.5t-62.5 -28.5q-61 -19 -198 -26q-5 -16 -35 -121l-41 -141l-37.5 -119t-52.5 -150.5t-57 -140.5q-14 -33 -36 -33h-35q-25 0 -25 16q0 11 41 108q108 252 201 591
l-110 7q-29 -123 -98 -300.5t-134 -274.5q-164 -244 -359 -244q-35 0 -62 10q-8 3 -10 11q0 9 11 9q28 -4 42 -4q183 0 304 224q109 201 223 574q-30 6 -84 6q-125 0 -217 -60q-56 -37 -83 -89.5t-27 -105.5q0 -39 7 -62q2 -6 5 -13t4.5 -11.5t1.5 -6.5q0 -7 -5 -7
q-12 0 -25.5 33.5t-13.5 71.5q0 125 115 213q93 72 281 72z" />
    <glyph glyph-name="afii10034" unicode="&#x420;" horiz-adv-x="650" 
d="M602 721q-90 -292 -161 -463q-84 -199 -152 -288q-89 -116 -191 -116q-38 0 -62 17q-26 18 -26 31q0 7 8 7q2 0 6.5 -3t10.5 -7.5t9 -6.5q21 -11 49 -11q92 0 189 213q24 52 67.5 159.5t62.5 162.5q65 186 109 282q-44 -16 -92 -47.5t-79 -62.5q-15 -15 -21 -15
q-5 0 -5 5q0 15 25 38q47 45 85 69q59 37 109 54q18 35 48 81.5t52 69.5q12 14 22 14q7 0 7 -7q0 -4 -4.5 -13t-12 -22.5t-11.5 -23.5q-18 -41 -33 -88q26 5 58 5q34 0 75 -10t64 -27q70 -52 70 -141q0 -71 -39 -126t-94 -84q-80 -42 -182 -42q-41 0 -41 12q0 5 38 7
q87 6 143 59q36 34 56 83.5t20 98.5q0 59 -34.5 100.5t-97.5 41.5q-21 0 -45 -6z" />
    <glyph glyph-name="afii10035" unicode="&#x421;" horiz-adv-x="737" 
d="M853 680q-45 51 -108 51q-101 0 -197 -88t-151.5 -211t-55.5 -231q0 -90 38 -134.5t105 -44.5q93 0 176 51l14.5 10t14 9.5t7.5 3.5q10 0 10 -9q0 -4 -12 -16q-92 -78 -212 -78q-110 0 -171 66.5t-61 186.5q0 90 40 183.5t105.5 167t156.5 120.5t185 47q54 0 89.5 -22.5
t48.5 -60.5q2 -6 2 -9q0 -6 -6 -6q-7 0 -18 14z" />
    <glyph glyph-name="afii10036" unicode="&#x422;" horiz-adv-x="1062" 
d="M148 -106q-44 0 -76 21q-12 8 -12 16q0 7 9 7q2 0 25 -8.5t44 -8.5q55 0 94.5 31.5t75.5 82.5q47 67 88 155t76.5 199t53 173l46.5 172q-121 0 -199 -30q-171 -64 -200 -239q-3 -18 -5 -40.5t-3.5 -30.5t-6.5 -8q-7 0 -11 16.5t-4 33.5q0 192 165 285q58 33 123 45
t155 12q66 0 236 -30t254 -30q51 0 92.5 6.5t66 16t41 19.5t25 16.5t11.5 6.5q10 0 10 -8q0 -11 -38.5 -37.5t-81.5 -38.5q-72 -20 -143 -20q-40 -106 -90 -296q-37 -142 -37 -235q0 -95 37 -133q13 -13 13 -16q0 -9 -15 -9q-25 0 -50 22q-56 52 -56 171q0 116 55 317
q30 111 58 187q-3 0 -114 17q-34 -151 -93.5 -353t-109.5 -320q-14 -31 -42 -31h-30q-20 0 -21 13q0 5 3 12q91 221 210 689q-61 12 -112 16q-77 -291 -164 -486q-86 -194 -181 -279q-77 -71 -172 -71z" />
    <glyph glyph-name="afii10037" unicode="&#x423;" horiz-adv-x="710" 
d="M347 715q-7 -5 -12 -5q-7 0 -7 6q0 4 3 8q18 26 52.5 45t72.5 19q30 0 52.5 -23t22.5 -64q0 -54 -26.5 -148.5t-26.5 -105.5q0 -38 28 -38q65 0 235 249q83 121 107 141q8 6 14 6q8 0 8 -6q0 -1 -2 -5q-16 -36 -38 -103t-31 -92l-36 -96.5l-43 -115t-40.5 -96
t-44.5 -85.5q-214 -336 -510 -336q-50 0 -101 15q-14 4 -14 15q0 6 11 6l27 -5q28 -5 65 -5q119 0 230.5 80.5t197.5 232.5q73 129 136 318q-23 -35 -49 -66t-72.5 -63.5t-89.5 -32.5q-40 0 -60.5 27t-20.5 72q0 44 30.5 129t30.5 119q0 38 -28 38q-27 0 -71 -35z" />
    <glyph glyph-name="afii10038" unicode="&#x424;" horiz-adv-x="788" 
d="M537 927q-22 0 -47.5 -5.5t-28.5 -5.5q-9 0 -9 9q0 6 8 9q42 19 93 19q11 0 50 -6.5t61 -6.5q30 0 65 7q12 3 25.5 7l21.5 6.5t12 2.5q16 0 16 -12q0 -32 -4 -66q-6 -61 -29 -171q50 36 117 36q52 0 87.5 -41t35.5 -108q0 -120 -75 -205.5t-188 -85.5q-57 0 -92 36
q-44 -107 -77.5 -170t-83.5 -122q-155 -186 -332 -186q-94 0 -144 44q-9 9 -9 15q0 7 8 7q1 0 13 -6q46 -30 116 -30q136 0 245 132q59 71 94 137t72 163q-38 -21 -78 -21q-76 0 -114.5 45t-38.5 128q0 101 79 184.5t183 83.5q60 0 88 -31q23 95 33 190q-47 0 -101 9t-72 9z
M417 438q0 -50 21 -77.5t53 -27.5q41 0 78 28q64 169 103 333q-24 31 -64 31q-56 0 -101.5 -47.5t-67.5 -112t-22 -127.5zM844 720q-39 0 -80 -39q-30 -121 -100 -316q27 -29 71 -29q74 0 128 93t54 191q0 100 -73 100z" />
    <glyph glyph-name="afii10039" unicode="&#x425;" horiz-adv-x="842" 
d="M705 -8q-40 0 -72 23.5t-56 70.5t-39.5 90t-35.5 110q-2 7 -3 11l-33 -51.5t-46 -69.5t-49.5 -65.5t-69.5 -77.5t-80 -69q-35 -26 -79 -50t-69 -24q-13 0 -13 5t12 11q67 30 137 93t124.5 135t90.5 127.5t59 98.5q-60 294 -120 349q-25 22 -54 22q-26 0 -48 -15
q-9 -6 -10 -6q-7 0 -7 7q0 6 4 10q32 33 87 33q60 0 107.5 -42t72.5 -130q2 -6 42 -151q162 270 324 352q20 10 30 10q9 0 9 -6t-36 -31q-61 -42 -129 -120q-40 -46 -98 -127.5t-85 -134.5q40 -235 97 -316q30 -42 65 -42q23 0 38 15q4 4 8 4q5 0 5 -6q0 -9 -9 -18
q-24 -25 -71 -25z" />
    <glyph glyph-name="afii10040" unicode="&#x426;" horiz-adv-x="738" 
d="M343 -398q-86 -59 -163 -59q-60 0 -60 20q0 6 10 6q1 0 7.5 -0.5t16 -1.5t19.5 -1q25 0 57.5 15.5t58.5 39.5q19 18 40 42t36.5 44.5l46 61.5l53.5 71q90 118 134 163q-22 -9 -43 -9q-79 0 -79 112q0 98 61 253l-38 -75.5t-72 -127.5q-105 -163 -207 -163q-34 0 -55 24
t-21 64q0 29 13 79.5t28.5 95.5l46 130l47.5 136q71 209 71 294q0 64 -15 115q-3 11 -8 22.5l-8 18.5t-3 10q0 7 10 7q3 0 6.5 -2t7 -8t5.5 -10l7 -14.5t7 -15.5q19 -38 28 -96.5t9 -100.5q0 -124 -64 -316l-21 -62.5t-21 -64l-17.5 -55.5t-17 -55.5l-12 -44.5t-9 -41.5
t-2.5 -29.5q0 -38 29 -38q48 0 138 137q85 130 173 332q70 162 88 215q6 18 12.5 24.5t19.5 6.5h52q13 0 13 -11q0 -7 -14 -47q-10 -30 -68.5 -177t-92.5 -255.5t-34 -172.5q0 -65 37 -65q22 0 48 24q5 4 10.5 9.5l8.5 8.5t6.5 6t6 4.5t4.5 1.5q10 0 10 -9q0 -8 -35 -65
q-5 -8 -38.5 -67.5t-68.5 -113.5q-95 -149 -195 -219z" />
    <glyph glyph-name="afii10041" unicode="&#x427;" horiz-adv-x="611" 
d="M570 34q-1 -11 -23 -26.5t-53 -15.5q-105 0 -105 126q0 48 36 155t90 227q-32 -41 -71.5 -68.5t-73.5 -27.5q-43 0 -67 26.5t-24 70.5q0 41 23 113.5t23 96.5q0 51 -49 51q-51 0 -111 -36.5t-104 -84.5q-9 -9 -15 -9t-6 9q0 6 17 26q44 52 114 90t130 38q52 0 75 -24
t23 -71q0 -28 -22 -109.5t-22 -100.5q0 -51 34 -51q54 0 115 86t108 207q7 18 27 18h38q14 0 14 -11q0 -8 -25 -67l-75 -184t-95 -255q-37 -105 -37 -150q0 -65 48 -65q19 0 37 12t20 12q6 0 6 -8z" />
    <glyph glyph-name="afii10042" unicode="&#x428;" horiz-adv-x="1064" 
d="M1028 61q0 -16 -37 -49q-42 -37 -92 -37q-51 0 -76 33t-25 84q0 93 44 216q-6 -11 -32 -72t-51 -101q-90 -144 -158 -144q-52 0 -73.5 29t-21.5 83q0 93 64 255q-5 -8 -21.5 -42t-40 -78t-49.5 -85q-102 -163 -202 -163q-32 0 -54.5 26.5t-22.5 76.5q0 46 21 117.5
t61.5 183t57.5 164.5l43 139t24.5 100t11.5 100q0 56 -15 116q-3 11 -7.5 23l-7.5 19.5t-3 10.5q0 7 10 7q14 0 34 -50q33 -83 33 -190q0 -132 -51 -305q-16 -55 -54 -172t-55 -180t-17 -93q0 -48 33 -48q25 0 55.5 31t78.5 103q66 98 160 332q50 123 82 217q6 18 12.5 24.5
t19.5 6.5h52q13 0 13 -11q0 -7 -14 -47q-173 -496 -173 -609q0 -59 27 -59q25 0 54 32t68 95q66 108 146 340l31.5 92l28.5 85t17 51q6 18 12.5 24.5t19.5 6.5h52q13 0 13 -11q0 -7 -14 -47q-170 -461 -170 -618q0 -64 47 -64q29 0 59 23q9 7 18.5 17.5t15 16t8.5 5.5
q10 0 10 -10z" />
    <glyph glyph-name="afii10043" unicode="&#x429;" horiz-adv-x="1042" 
d="M630 -413q-76 -39 -151 -39q-61 0 -61 21q0 6 10 6q1 0 7.5 -0.5t16 -1.5t19.5 -1q61 0 116 36q28 18 52 42t38.5 44l44 61.5t52.5 70.5l32.5 43.5l34.5 45.5l30.5 38t31.5 36q-22 -9 -43 -9q-79 0 -79 112q0 65 54 216q-6 -11 -32 -72t-51 -101q-90 -144 -158 -144
q-52 0 -73.5 29t-21.5 83q0 81 68 253q-4 -6 -39.5 -78t-69.5 -125q-105 -163 -195 -163q-36 0 -59.5 27.5t-23.5 77.5q0 41 20.5 110.5t58.5 168.5t44 118q68 201 68 304q0 59 -14 115q-3 11 -7.5 23l-7.5 19.5t-3 10.5q0 7 10 7q13 0 35 -53q36 -89 36 -192
q0 -125 -52 -295l-35 -110.5l-34.5 -108t-23 -80t-10.5 -60.5q0 -40 25 -40t57 32.5t82 104.5q14 20 28 45.5l24 45t26.5 57.5l23 54l26.5 66t26 64l54.5 140t28.5 77q7 18 13 24.5t19 6.5h54q13 0 13 -11q0 -7 -14 -47q-172 -493 -172 -609q0 -33 5 -45.5t21 -12.5
q25 0 54 31.5t68 94.5q17 27 32 57t30.5 67.5l25.5 63.5l29 76.5l28 75.5l34 92l31 85.5l18 50.5q6 18 12.5 24.5t19.5 6.5h52q13 0 13 -11q0 -7 -14 -47q-6 -19 -47 -131l-65 -182.5t-48 -163t-24 -141.5q0 -65 36 -65q22 0 48 24q5 4 10.5 9.5l8.5 8.5t6.5 6t6 4.5
t4.5 1.5q10 0 10 -9q0 -8 -35 -65q-4 -6 -38.5 -66.5t-69.5 -114.5q-57 -87 -102 -137t-109 -83z" />
    <glyph glyph-name="afii10044" unicode="&#x42a;" horiz-adv-x="642" 
d="M189 714q-32 -13 -52 -47q-4 -7 -10 -7q-7 0 -7 12q0 17 24 41q43 40 119 40q23 0 70 -5.5t74 -5.5q21 0 53.5 5t36.5 5t7.5 -3.5t3.5 -6.5q0 -9 -7 -16q-66 -89 -129.5 -208t-91.5 -224q63 67 166 67q65 0 110.5 -42t45.5 -120q0 -79 -69.5 -143t-178.5 -64
q-72 0 -126 53t-54 165q0 102 63.5 235t162.5 262q-6 -1 -18 -1q-22 0 -69 8.5t-70 8.5q-31 0 -54 -9zM272 252q-16 -47 -16 -100q0 -60 26 -98t77 -38q54 0 99.5 51.5t45.5 127.5q0 56 -24.5 91.5t-73.5 35.5q-37 0 -73.5 -19t-60.5 -51z" />
    <glyph glyph-name="afii10045" unicode="&#x42b;" horiz-adv-x="835" 
d="M796 426q-65 -203 -65 -306q0 -74 8 -104q3 -11 7 -22.5t6 -18t2 -8.5q0 -7 -8 -7q-7 1 -18.5 12.5t-18.5 23.5q-37 61 -37 170q0 190 104 424q54 119 80 150q9 10 28 10h40q12 -1 12 -12q0 -7 -23.5 -50t-59 -117.5t-57.5 -144.5zM249 444q50 123 127 234q28 40 66 78
t54 38q8 0 8 -5q0 -6 -7 -13q-25 -26 -61 -86q-41 -68 -80 -180.5t-58 -216.5q59 72 145 72q60 0 100 -48.5t40 -115.5q0 -78 -62 -141.5t-152 -63.5q-76 0 -123.5 54t-47.5 148q0 122 51 246zM338 300q-57 -56 -57 -157q0 -51 22 -86t60 -35q62 0 95.5 59.5t33.5 139.5
q0 52 -21 83.5t-58 31.5q-39 0 -75 -36z" />
    <glyph glyph-name="afii10046" unicode="&#x42c;" horiz-adv-x="617" 
d="M246 498q57 131 115 217q33 49 92 112t77 63q7 0 7 -6q0 -3 -7 -10q-41 -41 -92 -126q-110 -179 -154 -454q61 73 146 73q65 0 106 -48t41 -118q0 -72 -64.5 -138.5t-157.5 -66.5q-87 0 -131 57.5t-44 146.5q0 147 66 298zM322 301q-27 -27 -42.5 -71t-15.5 -87
q0 -50 23.5 -85.5t61.5 -35.5q62 0 97.5 56t35.5 143q0 51 -23.5 82t-61.5 31q-42 0 -75 -33z" />
    <glyph glyph-name="afii10047" unicode="&#x42d;" horiz-adv-x="680" 
d="M394 306q-16 1 -16 19t22 18q4 0 44 -4t61 -4q42 0 64 6q41 113 41 206q0 81 -39.5 132t-117.5 51q-103 0 -203 -79q-11 -9 -25.5 -23l-23 -22t-12.5 -8q-7 0 -7 6q0 11 23 37q115 117 253 117q124 0 183 -79.5t59 -201.5q0 -114 -52 -225t-149.5 -186.5t-213.5 -75.5
q-68 0 -126 33t-91 92q-8 16 -8 21q0 16 10 16q5 0 19.5 -19.5t34.5 -43t61 -43t92 -19.5q68 0 130.5 48.5t104.5 119.5q19 30 44 103q-16 -1 -53 -1t-109 9z" />
    <glyph glyph-name="afii10048" unicode="&#x42e;" horiz-adv-x="1177" 
d="M40 -187q-18 -3 -21 -3q-9 0 -9 6q0 3 2 5t5.5 3.5t7.5 3l10.5 4l11.5 4.5q76 34 147 106q80 82 146.5 207t104.5 246.5t57.5 199t25.5 120.5q-16 2 -45.5 10t-64.5 8q-48 0 -84 -20q-9 -5 -18.5 -11.5t-13.5 -8.5t-8 -2q-7 0 -7 7q0 9 21 24q55 41 127 41
q20 0 60.5 -6.5t58.5 -6.5q8 0 33.5 1t31.5 1q11 0 11 -13q0 -27 -12 -77q-38 -155 -82 -282h115q21 61 54.5 120t79.5 113t108 87t128 33q89 0 142.5 -66t53.5 -167q0 -127 -53.5 -242.5t-146 -186.5t-197.5 -71q-80 0 -134.5 65t-54.5 173q0 51 14 112h-118
q-47 -121 -130 -251q-67 -103 -195 -202q-43 -33 -89 -55.5t-73 -28.5zM727 211q0 -31 4.5 -59t15.5 -57.5t35 -47.5t58 -18q74 0 140.5 78.5t104.5 197t38 238.5q0 30 -4.5 56t-15.5 51t-32.5 39.5t-52.5 14.5q-59 0 -109.5 -36.5t-83 -92.5t-55.5 -124.5t-33 -129.5
t-10 -110z" />
    <glyph glyph-name="afii10049" unicode="&#x42f;" horiz-adv-x="910" 
d="M680 578q0 -68 59 -105q17 -9 39 -13q12 -2 12 -10q0 -5 -10 -10q-67 -38 -126 -80q-137 -97 -298.5 -246.5t-292.5 -312.5q-40 -51 -50 -51q-8 0 -8 10q0 28 146 228q97 134 257 283.5t266 206.5q-84 38 -84 126q0 78 68 123t169 45q94 0 171 -25q22 -7 22 -18
q0 -5 -11 -35q-132 -353 -225 -665q-9 -29 -26 -29h-54q-18 0 -18 18q0 50 156 463l99 253q-24 9 -74 9q-82 -1 -134.5 -50.5t-52.5 -114.5z" />
    <glyph glyph-name="afii10065" unicode="&#x430;" horiz-adv-x="372" 
d="M30 92q0 46 24.5 86.5t67.5 62.5q36 19 86 19q51 0 63 -49q5 19 11 30q5 9 17 9h44q9 0 9 -6q0 -4 -8 -28q-34 -102 -34 -161q0 -40 18 -58q7 -7 7 -11q0 -8 -16 -8q-9 0 -25 6.5t-26 17.5q-28 33 -30 65q-41 -75 -107 -75q-44 0 -72.5 29.5t-28.5 70.5zM144 185
q-37 -52 -37 -107q0 -62 38 -62q31 0 62 41q19 25 32.5 64t13.5 63q0 52 -34 52q-39 0 -75 -51z" />
    <glyph glyph-name="afii10066" unicode="&#x431;" horiz-adv-x="345" 
d="M316 133q0 -47 -25.5 -80.5t-62.5 -49.5q-25 -11 -64 -11q-36 0 -61 9q-34 12 -53.5 42.5t-19.5 70.5q0 55 45 95.5t106 40.5q63 0 95 -40q-10 32 -30.5 92l-32.5 96.5t-22 86t-10 89.5q0 166 147 269q62 43 143 66t145 23q9 0 9 -7t-13 -9.5l-50 -10t-78 -24.5
q-76 -31 -128 -84q-102 -105 -102 -273q0 -39 5.5 -82.5t11.5 -70l18.5 -79l16.5 -69.5q10 -43 10 -90zM197 226q-39 0 -64.5 -40.5t-25.5 -91.5q0 -39 14.5 -61.5t39.5 -22.5q38 0 63.5 44t25.5 100q0 33 -13.5 52.5t-39.5 19.5z" />
    <glyph glyph-name="afii10067" unicode="&#x432;" horiz-adv-x="351" 
d="M144 428q30 53 71 106t93.5 103t115.5 81.5t123 31.5q40 0 62 -24t22 -59q0 -59 -41.5 -110t-106 -84t-136.5 -53t-139 -22q-44 -80 -71 -182q38 38 101 38q27 0 54.5 -24.5t27.5 -78.5q0 -68 -48.5 -113.5t-114.5 -45.5q-50 0 -81 36.5t-31 103.5q0 53 25.5 134
t60.5 139q-141 9 -259 61t-163 99q-9 9 -9 14q0 6 8 6q2 0 13.5 -8.5t33.5 -23.5t43 -27q82 -44 162.5 -68.5t183.5 -29.5zM605 665q0 28 -17 45t-51 17q-44 0 -100 -40.5t-99 -92.5q-78 -93 -119 -172q91 6 178.5 37t147.5 86.5t60 119.5zM110 78q0 -27 12.5 -45.5
t34.5 -18.5q40 0 65.5 48t25.5 92q0 72 -45 72q-38 0 -65.5 -44.5t-27.5 -103.5zM-102 579q0 26 24 26q26 0 26 -26q0 -24 -26 -24q-10 0 -17 6.5t-7 17.5z" />
    <glyph glyph-name="afii10068" unicode="&#x433;" horiz-adv-x="251" 
d="M122 228q-27 0 -61 -29q-14 -12 -15 -12q-6 0 -6 8q0 6 11.5 18.5t19.5 17.5q32 22 76 22q32 0 47 -18t15 -39q0 -25 -20.5 -53t-41.5 -52.5t-21 -41.5q0 -13 6.5 -21t17.5 -8q17 0 36 12q7 5 16 13l14.5 13t8.5 5q6 0 6 -5q0 -19 -37 -46q-28 -20 -65 -20
q-36 0 -54.5 17.5t-18.5 47.5t43 81t43 67q0 23 -20 23z" />
    <glyph glyph-name="afii10069" unicode="&#x434;" horiz-adv-x="354" 
d="M177 252q54 0 73 -39l6 28q4 16 25 16h29q20 0 20 -15q0 -62 -21 -162.5t-48 -185.5q75 5 129 51q2 1 5 1q9 0 9 -9q0 -8 -7 -13q-61 -50 -144 -55q-22 -64 -49 -116t-45.5 -79t-50.5 -67q-126 -157 -299 -157q-56 0 -96 18.5t-58.5 47.5t-26.5 55.5t-8 52.5
q0 132 177 209q119 52 385 56q23 64 47 162q-2 -2 -8.5 -10t-10.5 -12.5t-13 -12t-18 -11.5t-22.5 -7t-28.5 -3q-37 0 -67.5 25.5t-30.5 77.5q0 64 45.5 109t101.5 45zM-351 -378q0 -14 2.5 -29.5t12 -38t25.5 -39t47.5 -29t73.5 -12.5q127 0 212 98t153 290
q-223 0 -345 -46q-88 -33 -134.5 -83.5t-46.5 -110.5zM192 227q-35 0 -60.5 -38.5t-25.5 -87.5q0 -78 46 -78q39 0 64 41.5t25 93.5q0 69 -49 69z" />
    <glyph glyph-name="afii10070" unicode="&#x435;" horiz-adv-x="299" 
d="M30 116q0 58 47.5 100t119.5 42q35 0 58.5 -16t23.5 -48q0 -24 -17.5 -41.5t-46 -27t-55.5 -13.5t-55 -5q0 -39 19 -63t58 -24q30 0 57 16q21 13 22 13q8 0 8 -8q0 -6 -13 -17q-38 -32 -97 -32q-55 0 -92 31.5t-37 92.5zM192 235q-29 0 -53.5 -29.5t-31.5 -77.5
q29 0 50 7q30 9 48 27.5t18 39.5q0 33 -31 33z" />
    <glyph glyph-name="afii10072" unicode="&#x436;" horiz-adv-x="455" 
d="M292 142l-8 -10q-7 -9 -10.5 -15l-10.5 -18.5t-13 -29t-12 -36.5q-45 -162 -120 -304q-28 -53 -68 -101t-55 -48q-5 0 -5 6q0 3 7.5 11t23.5 28t31 44q41 64 72.5 142.5t47.5 150.5t22.5 108.5t9.5 65.5q-43 -87 -93 -118q-36 -23 -80 -23q-16 0 -28 4t-12 11q0 5 7 5
q1 0 9.5 -2t14.5 -2q37 0 63.5 38.5t26.5 97.5q0 43 -14.5 65t-36.5 22q-6 0 -15 -2.5t-10 -2.5q-6 0 -6 6t16 11.5t33 5.5q95 0 95 -136q26 41 40 101q1 5 3 17.5t4 17.5q2 8 14 8h33q13 0 13 -11q0 -19 -24 -128q25 45 65 85q45 45 101 47q18 0 30 -5t12 -12t-5 -7
q-2 0 -9.5 2.5t-13.5 2.5q-33 0 -58 -44.5t-25 -99.5q0 -71 42 -71q8 0 15 3q2 1 5.5 3t6.5 3t5 1q5 0 5 -5q0 -7 -11 -14q-18 -12 -41 -12q-43 0 -69 28q-25 27 -25 75q0 23 5 41zM-17 -226q0 26 24 26q26 0 26 -26q0 -24 -26 -24q-11 0 -17.5 7t-6.5 17z" />
    <glyph glyph-name="afii10073" unicode="&#x437;" horiz-adv-x="251" 
d="M33 184q-9 -11 -14 -11q-6 0 -6 9q0 7 13 23t31 28q35 23 71 23q45 0 64.5 -22.5t19.5 -49.5q0 -74 -98 -116q65 -1 108.5 -45.5t43.5 -109.5q0 -120 -110 -221q-98 -91 -251 -135q-84 -23 -181 -23q-17 0 -17 9q0 8 13 10q113 10 168 28q129 41 214 134q89 98 89 206
q0 73 -39 104q-25 19 -58 19q-14 0 -32 -5t-19 -5q-9 0 -9 7q0 4 11 12l15 9q16 10 27 18.5t26 22.5t23 32.5t8 39.5q0 17 -10.5 31.5t-29.5 14.5q-38 0 -71 -37zM-181 -327q0 26 24 26q26 0 26 -26q0 -24 -26 -24q-11 0 -17.5 6.5t-6.5 17.5z" />
    <glyph glyph-name="afii10074" unicode="&#x438;" horiz-adv-x="360" 
d="M283 62q0 -47 31 -47q3 0 8 0.5t6 0.5q7 0 7 -6q0 -7 -11.5 -10.5t-21.5 -3.5q-33 0 -54.5 18t-28 37t-8.5 41q-49 -92 -117 -92q-28 0 -46 25t-18 65q0 49 17.5 93t29.5 59q6 8 16 8h44q10 0 10 -10q0 -2 -10.5 -31t-21.5 -67t-11 -63q0 -43 23 -43q16 0 35 20t36 59
l19 45.5l21 49.5t13 29q5 11 17 11h43q10 0 10 -11q0 -4 -2 -9t-5.5 -14.5t-6.5 -18.5q-24 -74 -24 -135z" />
    <glyph glyph-name="afii10075" unicode="&#x439;" horiz-adv-x="369" 
d="M139 238q0 -2 -9.5 -28.5t-19 -66t-9.5 -71.5q0 -45 27 -45q34 0 70 80q8 19 16.5 46.5t15.5 54t8 31.5q4 11 17 11h46q10 0 10 -11q0 -7 -16.5 -69.5t-16.5 -91.5q0 -57 35 -57q4 0 12.5 2.5t10.5 2.5q8 0 8 -7q0 -5 -5 -9q-18 -15 -50 -15q-43 0 -60.5 29.5t-17.5 62.5
q-44 -92 -112 -92q-26 0 -47.5 26.5t-21.5 65.5q0 48 9.5 86t18 53t14.5 18q6 6 16 6h40q11 0 11 -12zM214 340q32 0 64 29q28 25 48 69q5 11 11 11t6 -10q0 -31 -40 -75q-27 -32 -61 -44q-26 -9 -45 -9q-22 0 -36.5 12t-14.5 30q0 17 11 27.5t27 10.5q13 0 22.5 -9.5
t9.5 -25.5q0 -8 -2 -16z" />
    <glyph glyph-name="afii10076" unicode="&#x43a;" horiz-adv-x="303" 
d="M187 148q16 -81 61 -126q10 -10 16 -14q9 -7 9 -10q0 -7 -14 -7q-41 0 -81 33q-22 17 -41 43.5t-24 49.5l-22 -99q-5 -18 -19 -18h-40q-12 0 -12 13q0 7 26 120q9 38 15 66.5l8 37.5q4 13 23 13h31q17 0 17 -13q0 -5 -15 -82q52 13 126.5 76t125.5 143q39 60 59 115
q6 15 10 15q7 0 7 -11q0 -8 -6 -26q-28 -89 -99.5 -175t-160.5 -144zM276 413q0 26 24 26q26 0 26 -26q0 -24 -26 -24q-10 0 -17 6.5t-7 17.5z" />
    <glyph glyph-name="afii10077" unicode="&#x43b;" horiz-adv-x="264" 
d="M244 26q0 -7 -18 -19q-15 -10 -40 -10q-59 0 -59 77q0 24 21 102q-147 -280 -304 -457q-191 -219 -400 -219q-88 0 -139 53t-51 128q0 53 28 95q9 14 22.5 26.5t19.5 12.5t6 -8q0 -2 -2.5 -5l-7.5 -9t-8 -11q-31 -44 -31 -97q0 -70 45 -113.5t120 -43.5q180 0 366 208
q184 205 337 500q7 14 23 14h38q16 0 16 -12q0 -5 -2.5 -18t-7.5 -35t-8 -44q-11 -61 -11 -81q0 -35 23 -35q4 0 10.5 3t8.5 3q5 0 5 -5z" />
    <glyph glyph-name="afii10078" unicode="&#x43c;" horiz-adv-x="461" 
d="M214 250h32q21 0 21 -11q0 -2 -16 -105q-2 -9 -3.5 -23t-2.5 -18q28 37 47 58q56 68 84 92q8 7 20 7h32q8 0 8 -11q0 -5 -13 -57q-16 -66 -16 -109q0 -48 22 -48q12 0 12 -7q0 -8 -9 -13q-13 -9 -38 -9q-30 0 -47 21.5t-17 54.5q0 42 18 100q-83 -103 -113 -143
q-21 -29 -32 -29h-28q-20 0 -20 19q0 21 34 175q-65 -101 -94 -140q-169 -225 -356 -225q-124 0 -183 96q-11 17 -11 27q0 11 7 11q3 0 8 -7q13 -24 32 -43q33 -33 67 -45t80 -12q194 0 433 359q24 35 42 35z" />
    <glyph glyph-name="afii10079" unicode="&#x43d;" horiz-adv-x="362" 
d="M156 238q0 -2 -23 -101q63 3 93 10q14 59 25 84q9 19 24 19h37q15 0 15 -12q0 -3 -3 -13.5l-9 -30t-10 -36.5q-16 -60 -16 -100t22 -40q7 0 15 4.5t10 4.5q6 0 6 -6q0 -5 -11 -14q-16 -13 -52 -13q-29 0 -45.5 22t-16.5 54q0 19 5 51q-42 -7 -94 -9q-24 -92 -26 -96
q-7 -16 -22 -16h-34q-16 0 -16 15q0 7 25 113l13.5 61.5t9.5 42.5q5 18 19 18h43q16 0 16 -12z" />
    <glyph glyph-name="afii10080" unicode="&#x43e;" horiz-adv-x="353" 
d="M201 256q57 -1 92 -31t35 -86q0 -59 -46 -101.5t-117 -42.5q-59 0 -97 29t-38 88q0 54 43.5 99t127.5 45zM108 103q0 -84 56 -84q36 0 60 40.5t24 98.5q0 33 -14 53t-40 20q-37 0 -61.5 -38t-24.5 -90z" />
    <glyph glyph-name="afii10081" unicode="&#x43f;" horiz-adv-x="393" 
d="M375 37q0 -6 -9 -16t-25 -17q-18 -9 -48 -9q-23 0 -40 16t-17 41q0 26 10 83t10 61q0 23 -20 23q-17 0 -39 -23.5t-37 -59.5q-8 -20 -20 -64.5l-16 -59.5q-3 -12 -14 -12h-54q-8 0 -8 9q0 6 2 12q41 171 41 183q0 25 -16 25q-13 0 -30 -11t-18 -11q-7 0 -7 8q0 5 10 14
t30 17.5t41 8.5q58 0 60 -78q19 35 50.5 56.5t64.5 21.5q53 0 53 -55q0 -26 -9 -75.5t-9 -68.5q0 -33 15 -33q14 0 27.5 11t15.5 11q6 0 6 -8z" />
    <glyph glyph-name="afii10082" unicode="&#x440;" horiz-adv-x="362" 
d="M-402 -750q-8 0 -8 6q0 7 11 12q47 20 99 63q164 138 257 375q51 130 88 337q9 49 15 91.5t8.5 69t3.5 30.5q3 16 25 16h24q12 0 15.5 -7.5t4.5 -24.5q35 38 94 38q45 0 75 -34.5t30 -84.5q0 -67 -47 -104t-92 -37q-57 0 -83 31q-32 -156 -104 -338q-20 -51 -61 -118.5
t-117 -152t-159 -133.5q-60 -35 -79 -35zM141 187q-7 -69 -18 -133q24 -32 57 -32q36 0 56.5 39.5t20.5 83.5q0 41 -14.5 63t-35.5 22q-41 0 -66 -43zM-369 -566q0 26 24 26q26 0 26 -26q0 -24 -26 -24q-11 0 -17.5 7t-6.5 17z" />
    <glyph glyph-name="afii10083" unicode="&#x441;" horiz-adv-x="280" 
d="M256 205q0 -8 -7 -8q-3 0 -17.5 13.5t-36.5 13.5q-35 0 -60.5 -34.5t-25.5 -83.5q0 -43 18.5 -63.5t47.5 -20.5q27 0 53 14q24 13 25 13q7 0 7 -7q0 -9 -15 -20q-39 -26 -91 -26q-35 0 -65 15q-59 29 -59 104q0 54 44 95t108 41q35 0 54.5 -15.5t19.5 -30.5z" />
    <glyph glyph-name="afii10084" unicode="&#x442;" horiz-adv-x="305" 
d="M146 250q47 0 79 2.5t47 5t20 2.5q11 0 11 -7q0 -15 -22 -23q-31 -12 -91 -14q-7 -52 -30 -138t-50 -153q-16 -41 -39 -83.5t-60.5 -98t-93.5 -108t-121 -89.5q-25 -14 -57 -26t-44 -12q-9 0 -9 6t11 12q8 3 21 8.5t21.5 9.5t23 12t31.5 20q82 56 144.5 147.5t98.5 193.5
q48 135 70 299q-68 4 -89 18q-8 5 -8 13q0 13 17 13q4 0 18.5 -2.5t41 -5t59.5 -2.5zM-242 -321q0 26 24 26q26 0 26 -26q0 -24 -26 -24q-10 0 -17 6.5t-7 17.5z" />
    <glyph glyph-name="afii10085" unicode="&#x443;" horiz-adv-x="360" 
d="M109 250q35 0 46.5 -2.5t11.5 -12.5q0 -4 -31 -77t-31 -101q0 -22 16 -22q31 0 71.5 56.5t64.5 139.5q5 19 23 19h29q21 0 21 -15q0 -66 -55.5 -219.5t-146.5 -299.5q33 -14 93 -14q10 0 10 -9q0 -6 -6 -9q-15 -7 -47 -7q-22 0 -66 12q-24 -35 -57 -71.5t-82 -76.5
t-102 -70.5t-121 -50.5t-137 -20q-139 0 -221 61t-82 171q0 78 48 134t121.5 81t162.5 25q36 0 71.5 -4t72 -14l62.5 -17.5t63.5 -23.5l53 -23t53.5 -25.5t45 -21.5q110 180 150 337q-24 -28 -37.5 -41.5t-36.5 -26t-49 -12.5q-57 0 -57 66q0 59 36 137q22 47 40 47z
M-359 -155q-136 0 -219 -59.5t-83 -156.5q0 -86 73 -139.5t181 -53.5q83 0 160.5 29.5t134.5 77t94.5 89t64.5 84.5q-232 129 -406 129z" />
    <glyph glyph-name="afii10086" unicode="&#x444;" horiz-adv-x="504" 
d="M-3 -437q45 72 101 215.5t81 234.5q-33 -13 -51 -13q-40 0 -67 27.5t-27 77.5q0 45 26.5 82t66.5 53q29 12 58 12q40 0 62 -28q36 90 56 125q38 73 67 112q23 33 32 33q8 0 8 -7l-12 -22q-16 -30 -32 -68q-30 -70 -55 -170q30 23 80 23q36 0 59.5 -27t23.5 -74
q0 -66 -47 -107.5t-96 -41.5q-47 0 -74 24q-90 -315 -239 -504q-41 -52 -81 -88.5t-98 -66.5q-54 -29 -97 -29q-12 0 -12 5q0 7 10 9q45 10 72 25q30 16 50 30t58.5 56t76.5 102zM356 225q-18 0 -48 -17q-8 -26 -21 -77t-22 -83q17 -27 44 -27q38 0 65 48t27 99q0 23 -12 40
t-33 17zM203 227q-23 0 -50.5 -26t-38.5 -67q-8 -27 -8 -55q0 -59 40 -59q16 0 38 14l56 169q-13 24 -37 24zM-181 -465q0 26 24 26q26 0 26 -26q0 -24 -26 -24q-11 0 -17.5 6.5t-6.5 17.5z" />
    <glyph glyph-name="afii10087" unicode="&#x445;" horiz-adv-x="300" 
d="M171 179q61 71 101 71q18 0 18 -8q0 -6 -12 -9q-15 -4 -30 -17q-29 -25 -63 -68q32 -84 64 -116q5 -5 10.5 -8.5t8.5 -4t5 -2.5t2 -5q0 -7 -11.5 -11.5t-28.5 -4.5q-34 0 -55 18t-47 65q-87 -109 -191 -180q-115 -80 -250 -80q-32 0 -57 9q-20 7 -20 17q0 5 5 5h2l4 -2
t4 -1q24 -7 51 -7q125 0 240 84q119 87 191 198q-17 56 -34 79q-9 13 -25 13q-4 0 -12 -3t-11 -3q-6 0 -6 5q0 6 9 15q22 22 56 22q21 0 34 -9q24 -15 48 -62z" />
    <glyph glyph-name="afii10088" unicode="&#x446;" horiz-adv-x="356" 
d="M284 43q9 6 22 11t28 5q12 0 12 -7q0 -2 -1 -3.5t-3.5 -3.5t-5 -3t-6 -3t-6.5 -3q-24 -13 -29 -17q22 -50 22 -104q0 -53 -26 -88.5t-71 -35.5q-31 0 -50 23t-19 61q0 74 89 137q-7 12 -45 50q-48 -67 -107 -67q-68 0 -68 81q0 31 14.5 81.5t29.5 77.5q8 15 25 15h40
q13 0 13 -13q0 -5 -24 -69q-30 -78 -30 -115q0 -29 20 -29q36 0 72 62q18 31 60 150q5 14 21 14h39q13 0 13 -12q0 -17 -18.5 -68t-37.5 -88q15 -18 27 -39zM177 -124q0 -27 11.5 -46.5t32.5 -19.5q30 0 46.5 25.5t16.5 61.5q0 52 -29 95q-26 -15 -52 -47.5t-26 -68.5z" />
    <glyph glyph-name="afii10089" unicode="&#x447;" horiz-adv-x="284" 
d="M195 24q22 0 53 18q6 4 9 4q7 0 7 -7q0 -4 -5 -9q-37 -35 -89 -35q-43 0 -63 22.5t-20 55.5t13.5 59.5t49.5 74.5q-15 2 -37 16q-21 14 -29 14q-20 0 -48 -47q-13 -22 -19 -22q-7 0 -7 7q0 22 29 59t55 37q5 0 31 -14t54 -14q17 0 43.5 9.5t29.5 9.5q11 0 11 -10
q0 -5 -5.5 -12.5t-19.5 -24t-27 -33.5q-51 -70 -51 -115q0 -43 35 -43z" />
    <glyph glyph-name="afii10090" unicode="&#x448;" horiz-adv-x="503" 
d="M456 242q0 -3 -8 -33.5t-16 -74t-8 -76.5q0 -38 24 -38q8 0 17.5 6t12.5 6q5 0 5 -7q0 -6 -12 -16q-17 -14 -39 -14q-74 0 -74 97q-14 -38 -43.5 -67.5t-68.5 -29.5q-23 0 -38.5 18.5t-16.5 53.5q-39 -72 -106 -72q-55 0 -55 77q0 27 12 74.5t28 80.5q10 23 26 23h38
q16 0 16 -14q0 -5 -3 -14t-8.5 -23t-8.5 -26q-29 -92 -29 -114q0 -31 18 -31q39 0 79 113q24 68 36 99q3 10 16 10h35q19 0 19 -11q0 -4 -26 -90q-18 -60 -18 -82q0 -34 20 -34q16 0 33.5 24.5t31.5 61.5q12 32 24 72.5t14 45.5q5 13 16 13h43q14 0 14 -8z" />
    <glyph glyph-name="afii10091" unicode="&#x449;" horiz-adv-x="504" 
d="M257 250h30q13 0 13 -10q0 -8 -26 -81t-27 -104q0 -26 14 -26q16 0 32.5 18t34 56t27 62.5l26.5 70.5q5 14 21 14h27q13 0 13 -16q0 -18 -17.5 -67.5t-32.5 -80.5q4 -6 28 -46q34 24 66 24q10 0 10 -7q0 -3 -1.5 -4.5t-7 -4t-7.5 -3.5q-3 -2 -12.5 -5.5t-18.5 -8
t-19 -12.5q30 -56 30 -111q0 -57 -29 -88q-27 -27 -59 -27q-34 0 -53.5 22t-19.5 62q0 63 73 133q-30 45 -34 50q-22 -29 -42.5 -43.5t-31 -16.5t-26.5 -2q-28 0 -39.5 22.5t-11.5 50.5q-44 -73 -107 -73q-21 0 -35.5 19t-14.5 57q0 37 14.5 85t32.5 77q9 14 27 14h31
q15 0 15 -8q0 -11 -9 -30q-46 -95 -47 -154q0 -35 19 -35q15 0 35.5 24t34.5 58q11 27 23 59.5l19 51t11 24.5q7 10 21 10zM325 -127q0 -26 13 -43.5t36 -17.5t36 23t13 58q0 34 -37 95q-21 -16 -41 -49.5t-20 -65.5z" />
    <glyph glyph-name="afii10092" unicode="&#x44a;" horiz-adv-x="311" 
d="M83 79q0 28 11.5 57.5t22.5 46t32 43.5q-10 -2 -30 -2q-11 0 -25 4t-20 4q-12 0 -33 -39q-17 -35 -23 -35q-8 0 -8 12q0 15 15 43t25 36q14 12 28 12q4 0 24 -6.5t44 -6.5q16 0 43.5 7t31.5 7q11 0 11 -10q0 -2 -4.5 -8l-13.5 -18t-17 -26q-18 -34 -30 -67q24 15 60 15
q31 0 49.5 -19t18.5 -50q0 -21 -16.5 -40.5t-41.5 -32.5q-22 -11 -66 -11t-66 23.5t-22 60.5zM200 123q-20 0 -37 -15q-13 -22 -13 -52q0 -46 34 -46q20 0 35.5 18.5t15.5 47.5q0 47 -35 47z" />
    <glyph glyph-name="afii10093" unicode="&#x44b;" horiz-adv-x="416" 
d="M95 250h36q15 -1 15 -10q0 -5 -4.5 -16l-13.5 -33t-16 -46q25 13 59 13q39 0 56.5 -21t17.5 -45q0 -62 -76 -89q-21 -8 -50 -8q-34 0 -54 14q-35 23 -35 79q0 78 42 148q8 14 23 14zM293 25q-16 23 -16 65q0 82 42 150q6 10 19 10h37q13 -1 13 -14q0 -4 -5 -15.5t-13 -33
t-13 -43.5q-9 -39 -9 -79q0 -44 24 -44q5 0 11 2.5t8 2.5q5 0 5 -7t-15.5 -14.5t-31.5 -7.5q-36 0 -56 28zM92 58q0 -46 32 -46q20 0 39 21t19 50q0 20 -9 36t-26 16q-24 0 -41 -13q-14 -37 -14 -64z" />
    <glyph glyph-name="afii10094" unicode="&#x44c;" horiz-adv-x="263" 
d="M151 242q0 -3 -16 -34q-16 -30 -29 -74q27 23 65 23q10 0 20.5 -2.5t23 -9t20.5 -21t8 -34.5q0 -45 -37.5 -70.5t-83.5 -25.5q-44 0 -69.5 24.5t-25.5 71.5q0 76 42 140q13 20 30 20h36q16 0 16 -8zM179 84q0 46 -33 46q-22 0 -45 -20q-11 -22 -11 -56q0 -19 9 -31.5
t26 -12.5q22 0 38 24t16 50z" />
    <glyph glyph-name="afii10095" unicode="&#x44d;" horiz-adv-x="289" 
d="M52 214q0 14 41 30q30 11 60 11q23 0 47 -8q27 -9 45.5 -37.5t18.5 -60.5q0 -72 -46.5 -113t-114.5 -41q-42 0 -73 31q-20 20 -20 32q0 9 7 9q3 0 6.5 -4.5t10 -12t14.5 -12.5q24 -17 53 -17q25 0 46 13q36 24 43 84q-8 1 -45 1q-10 0 -29.5 -1.5t-22.5 -1.5
q-12 0 -12 11q0 15 70 21q13 1 41 1q0 47 -23 65q-17 14 -40 14q-22 0 -44.5 -11t-23.5 -11q-9 0 -9 8z" />
    <glyph glyph-name="afii10096" unicode="&#x44e;" horiz-adv-x="468" 
d="M150 237q0 -26 -22 -106h45q10 51 48 86t105 35q53 0 85 -30t32 -85t-42.5 -99t-107.5 -44q-56 0 -88 31t-34 83h-48q-16 -59 -29 -92q-6 -16 -25 -16h-35q-14 0 -14 14q0 7 7.5 31t21.5 75.5t26 110.5q4 19 24 19h35q6 0 9 -0.5t5 -3.5t2 -9zM236 83q0 -69 46 -69
q40 0 66 49.5t26 102.5q0 64 -46 64q-40 0 -66 -50.5t-26 -96.5z" />
    <glyph glyph-name="afii10097" unicode="&#x44f;" horiz-adv-x="326" 
d="M260 52q0 -34 17 -34q3 0 8 1l5 1q6 0 6 -5q0 -8 -13.5 -13.5t-28.5 -5.5q-24 0 -41 19.5t-17 51.5q0 23 3 42q-29 -19 -66 -49q-134 -111 -251 -267q-24 -32 -78 -110q-4 -4 -8 -4t-4 6q0 8 7 20q59 114 164 253q67 88 168 171q-22 4 -38.5 21t-16.5 42q0 29 23 46
t53 17q43 0 77 -20q7 15 26 15h25q14 0 14 -11q0 -4 -8.5 -33t-17 -72t-8.5 -82zM224 219q-19 11 -38 11q-21 0 -35.5 -16.5t-14.5 -37.5q0 -49 52 -49q10 0 15 1q11 69 21 91z" />
    <glyph glyph-name="afii10071" unicode="&#x451;" horiz-adv-x="299" 
d="M30 109q0 60 50.5 103t121.5 43q33 0 55 -16t22 -45q0 -32 -30.5 -52.5t-66 -27t-73.5 -6.5q0 -42 18.5 -64.5t52.5 -22.5q26 0 54 15q4 2 8.5 5t7 5t5 3.5t3.5 1.5q8 0 8 -8q0 -7 -15 -20q-40 -31 -95 -31q-52 0 -89 27.5t-37 89.5zM195 235q-28 0 -52.5 -29t-30.5 -77
q24 0 46 6q31 9 49.5 27.5t18.5 38.5q0 34 -31 34zM218 328q0 11 7.5 19t18.5 8t18.5 -8t7.5 -19q0 -10 -8 -17.5t-18 -7.5t-18 7.5t-8 17.5zM128 328q0 11 7.5 19t18.5 8t18.5 -8t7.5 -19q0 -10 -8 -17.5t-18 -7.5t-18 7.5t-8 17.5z" />
    <glyph glyph-name="afii10101" unicode="&#x454;" horiz-adv-x="280" 
d="M246 214q0 -7 -6 -7q-2 0 -17.5 8.5t-37.5 8.5q-29 0 -53 -22t-32 -58q15 0 39.5 -7t32.5 -7q9 0 17 1t13 2.5t6 1.5q6 0 6 -5q0 -7 -15.5 -13.5t-32.5 -6.5q-10 0 -31.5 3.5t-38.5 3.5q0 -3 -0.5 -8t-0.5 -7q0 -43 21.5 -61.5t52.5 -18.5q25 0 50 14q21 13 24 13
q7 0 7 -7q0 -9 -15 -20q-39 -26 -91 -26q-35 0 -65 15q-59 29 -59 104q0 54 44 95t108 41q24 0 42 -7.5t25 -15.5t7 -14z" />
    <glyph glyph-name="afii10103" unicode="&#x456;" horiz-adv-x="183" 
d="M93 -4q-25 0 -44 21.5t-19 60.5q0 67 32 153q7 19 23 19h41q14 0 14 -12q0 -10 -10 -42q-28 -97 -28 -131q0 -44 24 -44q9 0 19.5 7.5t11.5 7.5q6 0 6 -6q0 -9 -17 -22q-17 -12 -53 -12zM88 347q0 14 10 24.5t24 10.5q15 0 25.5 -10.5t10.5 -24.5q0 -15 -10.5 -25
t-25.5 -10q-14 0 -24 10t-10 25z" />
    <glyph glyph-name="afii10104" unicode="&#x457;" horiz-adv-x="183" 
d="M93 -4q-25 0 -44 21.5t-19 60.5q0 67 32 153q7 19 23 19h41q14 0 14 -12q0 -10 -10 -42q-28 -97 -28 -131q0 -44 24 -44q9 0 19.5 7.5t11.5 7.5q6 0 6 -6q0 -9 -17 -22q-17 -12 -53 -12zM156 348q0 11 7.5 19t18.5 8t18.5 -8t7.5 -19q0 -10 -8 -17.5t-18 -7.5t-18 7.5
t-8 17.5zM66 348q0 11 7.5 19t18.5 8t18.5 -8t7.5 -19q0 -10 -8 -17.5t-18 -7.5t-18 7.5t-8 17.5z" />
    <glyph glyph-name="afii10110" unicode="&#x45e;" horiz-adv-x="385" 
d="M-297 -751q-58 0 -90.5 36.5t-32.5 94.5q0 68 46 137.5t113.5 123t146.5 99t144 72.5t107 37q59 157 82 230q-50 -79 -125 -79q-63 0 -63 82q0 56 28 117q24 51 44 51h29q16 0 21 -3t5 -12q0 -2 -27.5 -65t-27.5 -103q0 -34 22 -34q26 0 58.5 34.5t60.5 92.5l16.5 37.5
l18.5 41.5q5 11 30 11h30q19 0 19 -14q0 -7 -14 -49q-13 -41 -105 -309q92 21 184 25q12 0 12 -10q0 -9 -10 -10q-82 -11 -198 -41q-27 -78 -76 -184q-31 -68 -76.5 -136t-103.5 -131t-129 -102.5t-139 -39.5zM128 -182q-58 -20 -121.5 -48.5t-135.5 -72t-128 -91t-93 -108
t-37 -120.5q0 -46 24.5 -73.5t65.5 -27.5q96 0 200 113q49 52 92.5 129t69 137.5t63.5 161.5zM254 360q32 0 64 29q28 25 48 69q5 11 11 11t6 -10q0 -31 -40 -75q-27 -32 -61 -44q-26 -9 -45 -9q-22 0 -36.5 12t-14.5 30q0 17 11 27.5t27 10.5q13 0 22.5 -9.5t9.5 -25.5
q0 -8 -2 -16z" />
    <glyph glyph-name="afii10050" unicode="&#x490;" horiz-adv-x="574" 
d="M793 609q-3 -7 -8 -7q-8 0 -8 11q0 13 17 62q-83 0 -210 25q-51 -250 -137 -439q-58 -129 -158 -229q-64 -65 -132.5 -94.5t-117.5 -29.5q-19 0 -19 8q0 3 1.5 4.5t5 2.5t6.5 2t8.5 1.5t8.5 1.5q27 5 70 24q30 15 61 40q90 77 156 210q45 91 94.5 252.5t62.5 260.5
q-32 7 -71 7q-119 0 -179 -80q-20 -27 -29 -59.5t-11.5 -49.5t-9.5 -17q-11 0 -11 29q0 67 41 120q71 92 227 92q40 0 163 -24.5t194 -24.5q27 48 65 90t52 42q9 0 9 -6t-10 -17q-47 -54 -72 -97q-6 -10 -59 -111zM123 69q0 10 6.5 16.5t15.5 6.5q10 0 16.5 -6.5t6.5 -16.5
q0 -9 -6.5 -15.5t-16.5 -6.5q-9 0 -15.5 6.5t-6.5 15.5z" />
    <glyph glyph-name="afii10098" unicode="&#x491;" horiz-adv-x="255" 
d="M54 187q-20 -19 -27 -19t-7 8q0 4 5.5 12.5t14.5 25.5t15 36q3 8 12 43q6 24 16 24q7 0 7 -11q0 -28 -12 -73q32 20 73 20q32 0 47 -18t15 -39q0 -25 -20.5 -53t-41.5 -52.5t-21 -41.5q0 -13 6.5 -21t17.5 -8q17 0 36 12q7 5 16 13l14.5 13t8.5 5q6 0 6 -5q0 -19 -37 -46
q-28 -20 -65 -20q-36 0 -54.5 17.5t-18.5 47.5t43 81t43 67q0 23 -20 23q-30 0 -72 -41z" />
    <glyph glyph-name="endash" unicode="&#x2013;" horiz-adv-x="570" 
d="M350 206q61 0 102 5q12 1 36 5t30 4q12 0 12 -10q0 -12 -27 -25q-55 -27 -219 -27q-96 0 -185 -23q-44 -11 -49 -11q-10 0 -10 10q0 29 112 55q76 17 198 17z" />
    <glyph glyph-name="emdash" unicode="&#x2014;" horiz-adv-x="679" 
d="M40 162q0 29 94 49q42 9 117 9q60 0 155.5 -8.5t112.5 -8.5q34 0 68.5 7t39.5 7q12 0 12 -8t-7 -13q-46 -36 -153 -36q-37 0 -129.5 7.5t-127.5 7.5q-63 0 -114 -10q-58 -11 -60 -11q-8 0 -8 8z" />
    <glyph glyph-name="quoteleft" unicode="&#x2018;" horiz-adv-x="229" 
d="M130 350q0 -18 -14.5 -31.5t-34.5 -13.5q-22 0 -36.5 16.5t-14.5 37.5q0 47 31.5 89.5t77.5 73.5q15 10 29 10q11 0 11 -8q0 -4 -3 -6.5t-9 -6.5t-10 -7q-58 -51 -70 -108q21 -1 32 -14t11 -32z" />
    <glyph glyph-name="quoteright" unicode="&#x2019;" horiz-adv-x="229" 
d="M109 485q0 18 14.5 31.5t34.5 13.5q22 0 36.5 -16.5t14.5 -37.5q0 -47 -31.5 -89.5t-77.5 -73.5q-15 -10 -29 -10q-11 0 -11 8q0 4 3 6.5t9 6.5t10 7q58 51 70 108q-21 1 -32 14t-11 32z" />
    <glyph glyph-name="quotesinglbase" unicode="&#x201a;" horiz-adv-x="209" 
d="M59 46q0 18 14.5 31.5t34.5 13.5q22 0 36.5 -16.5t14.5 -37.5q0 -47 -31.5 -89.5t-77.5 -73.5q-15 -10 -29 -10q-11 0 -11 8q0 4 3 6.5t9 6.5t10 7q58 51 70 108q-21 1 -32 14t-11 32z" />
    <glyph glyph-name="quotedblleft" unicode="&#x201c;" horiz-adv-x="342" 
d="M259 344q0 -17 -12.5 -29.5t-31.5 -12.5q-22 0 -34 17t-12 42q0 44 30 85t73 65q28 17 49 17q11 0 11 -6q0 -5 -8 -9q-22 -9 -47 -29q-49 -38 -61 -98q43 -3 43 -42zM131 341q0 -16 -13.5 -28.5t-30.5 -12.5q-20 0 -33.5 15t-13.5 34q0 79 102 149q14 9 24 9t10 -7
q0 -2 -2 -4.5t-4.5 -4t-6.5 -4.5t-7 -5q-54 -47 -64 -99q19 -1 29 -13t10 -29z" />
    <glyph glyph-name="quotedblright" unicode="&#x201d;" horiz-adv-x="372" 
d="M113 484q0 17 12.5 29.5t31.5 12.5q22 0 34 -17t12 -42q0 -44 -30 -85t-73 -65q-28 -17 -49 -17q-11 0 -11 6q0 5 8 9q22 9 47 29q49 38 61 98q-43 3 -43 42zM241 487q0 16 13.5 28.5t30.5 12.5q20 0 33.5 -15t13.5 -34q0 -79 -102 -149q-14 -9 -24 -9t-10 7q0 2 2 4.5
t4.5 4t6.5 4.5t7 5q54 47 64 99q-19 1 -29 13t-10 29z" />
    <glyph glyph-name="quotedblbase" unicode="&#x201e;" horiz-adv-x="362" 
d="M93 40q0 17 12.5 29.5t31.5 12.5q22 0 34 -17t12 -42q0 -44 -30 -85t-73 -65q-28 -17 -49 -17q-11 0 -11 6q0 5 8 9q22 9 47 29q49 38 61 98q-43 3 -43 42zM221 43q0 16 13.5 28.5t30.5 12.5q20 0 33.5 -15t13.5 -34q0 -79 -102 -149q-14 -9 -24 -9t-10 7q0 2 2 4.5
t4.5 4t6.5 4.5t7 5q54 47 64 99q-19 1 -29 13t-10 29z" />
    <glyph glyph-name="dagger" unicode="&#x2020;" horiz-adv-x="449" 
d="M96 471q-5 3 -5 8q0 7 9 7q2 0 26 -4q44 -9 84 -10q14 58 32 156q5 25 25 25h33q7 0 11.5 -5t4.5 -11q0 -34 -31 -166q40 1 90 11q15 3 17 3q7 0 7 -7q0 -12 -30 -21q-33 -10 -90 -14q-57 -215 -119 -374q-30 -76 -60 -130t-44 -54q-6 0 -6 13q0 7 23 76q47 138 82 271
q24 93 49 200q-81 7 -108 26z" />
    <glyph glyph-name="daggerdbl" unicode="&#x2021;" horiz-adv-x="454" 
d="M56 235q-6 4 -6 10q0 7 9 7q2 0 26 -4q42 -6 72 -7q23 82 52 204q-81 7 -108 26q-5 3 -5 8q0 7 9 7q2 0 26 -4q44 -9 84 -10q18 76 33 156q5 25 25 25h33q7 0 11.5 -5t4.5 -11q0 -30 -32 -166q40 1 90 11q15 3 17 3q7 0 7 -7q0 -12 -30 -21q-33 -10 -90 -14
q-38 -137 -60 -203q43 0 80 8q15 3 17 3q7 0 7 -7q0 -11 -33 -21q-27 -9 -78 -11q-18 -51 -54 -142q-31 -77 -61 -131t-44 -54q-7 0 -7 10q0 12 24 79q42 121 74 240q-76 7 -93 21z" />
    <glyph glyph-name="bullet" unicode="&#x2022;" horiz-adv-x="276" 
d="M148 404q29 0 48.5 -21t19.5 -50q0 -36 -26 -59.5t-61 -23.5q-31 0 -50 20t-19 52t26 57t62 25z" />
    <glyph glyph-name="ellipsis" unicode="&#x2026;" horiz-adv-x="530" 
d="M70 43q0 17 12 28.5t28 11.5q17 0 29 -11.5t12 -28.5t-12 -29t-29 -12t-28.5 12t-11.5 29zM245 33q0 14 11 25t25 11q15 0 26 -11t11 -25q0 -15 -11 -26t-26 -11q-14 0 -25 11t-11 26zM394 47q0 13 9.5 23t22.5 10q14 0 24 -9.5t10 -23.5t-10 -23.5t-24 -9.5
q-13 0 -22.5 10t-9.5 23z" />
    <glyph glyph-name="perthousand" unicode="&#x2030;" horiz-adv-x="819" 
d="M44 -6q36 37 79 90t66.5 84.5l73.5 100.5t58 79q106 144 186 234q16 18 48.5 46.5t44.5 28.5q8 0 8 -8q0 -3 -8 -12t-19.5 -20.5t-15.5 -16.5q-59 -68 -203 -266q-140 -193 -231 -291q-61 -65 -83 -65q-8 0 -8 6q0 5 4 10zM256 650q35 0 62 -22.5t27 -64.5
q0 -46 -37 -75.5t-86 -29.5q-41 0 -68.5 25t-27.5 69q0 36 37 67t93 31zM184 545q0 -68 41 -68q25 0 43.5 30t18.5 69q0 55 -38 55q-22 0 -43.5 -28.5t-21.5 -57.5zM429 192q42 -1 67.5 -23.5t25.5 -63.5q0 -45 -37.5 -75t-85.5 -30q-45 0 -70.5 25t-25.5 66q0 42 34.5 71.5
t91.5 29.5zM361 79q0 -60 37 -60q27 0 46.5 27.5t19.5 71.5q0 55 -38 55q-28 0 -46.5 -29t-18.5 -65zM655 0q-38 0 -63.5 25t-25.5 66q0 45 35.5 74.5t83.5 29.5q40 0 67 -28t27 -69q0 -39 -33.5 -68.5t-90.5 -29.5zM725 116q0 23 -10.5 41.5t-27.5 18.5q-28 0 -47.5 -27.5
t-19.5 -70.5q0 -24 10.5 -40t30.5 -16q28 0 46 28.5t18 65.5z" />
    <glyph glyph-name="guilsinglleft" unicode="&#x2039;" horiz-adv-x="386" 
d="M74 295q95 53 201 143l29.5 26.5t22 19.5t10.5 5q9 0 9 -11q0 -15 -43 -58q-86 -86 -173 -142q40 -34 90 -95q37 -45 52 -70q10 -17 10 -24q0 -9 -11 -9q-5 0 -14.5 10.5l-32.5 36.5t-50 51q-61 56 -100 80q-14 8 -14 19q0 10 14 18z" />
    <glyph glyph-name="guilsinglright" unicode="&#x203a;" horiz-adv-x="366" 
d="M312 273q-95 -53 -201 -143l-29.5 -26.5t-22 -19.5t-10.5 -5q-9 0 -9 11q0 15 43 58q86 86 173 142q-34 29 -83 93q-30 41 -49 72q-10 17 -10 24q0 9 11 9q5 0 14.5 -11l32 -38t48.5 -53l13 -12.5l12.5 -12l10.5 -10t12 -10.5l12 -9.5t15 -10.5l17 -11q14 -8 14 -19
q0 -10 -14 -18z" />
    <glyph glyph-name="Euro" unicode="&#x20ac;" 
d="M41 387q-12 0 -12 7q0 12 24 22q26 16 69 21q27 82 70.5 138.5t116.5 109.5q89 65 169 65q49 0 75 -26q21 -21 21 -46q0 -9 -7 -9q-2 0 -7.5 7.5t-14 17t-17.5 14.5q-21 11 -47 11q-56 0 -113.5 -49.5t-93.5 -112t-52 -119.5q25 -3 60 -9t64 -9.5t64 -3.5q25 0 46 4
t33 8.5t14 4.5q14 0 14 -10q0 -12 -15 -18q-46 -23 -119 -23q-31 0 -89 8t-83 10q-13 -39 -17 -90q18 0 67.5 -6t69.5 -6q21 0 41 2t31.5 4t13.5 2q12 0 12 -9q0 -7 -11 -12q-40 -20 -99 -20q-27 0 -70 3.5t-59 4.5q1 -131 41 -191t100 -60q76 0 131 74q7 8 12 8t5 -8
q0 -23 -28 -51q-55 -55 -143 -55q-97 0 -155 78.5t-59 211.5q-32 -3 -54 -11q-15 -5 -20 -5q-10 0 -10 7q0 10 17 19q37 19 70 21q5 56 16 92q-25 -2 -46 -8q-5 -1 -11 -3.5t-9.5 -3.5t-5.5 -1zM381 495q0 10 6.5 16.5t15.5 6.5q10 0 16.5 -6.5t6.5 -16.5q0 -9 -6.5 -15.5
t-16.5 -6.5q-9 0 -15.5 6.5t-6.5 15.5z" />
    <glyph glyph-name="uni20B4" unicode="&#x20b4;" 
d="M76 262q-9 0 -9 9q0 18 77 29q33 5 54 5q12 12 26 23.5l28.5 23.5l21.5 18q-38 0 -116 -16q-42 -8 -43 -8q-13 0 -13 9q0 8 25.5 17.5t53.5 14.5q72 14 125 14q60 60 88 102t28 87q0 33 -16.5 56.5t-48.5 23.5q-21 0 -47.5 -15.5t-47.5 -44.5q-7 -11 -14 -11q-6 0 -6 12
q0 9 14 27t33 32q47 35 104 35q50 0 82.5 -30t32.5 -83q0 -58 -33.5 -98.5t-103.5 -91.5q30 0 58.5 3t46.5 5.5t21 2.5q14 0 14 -8q0 -13 -44 -21q-75 -13 -131 -13q-65 -52 -80 -68q40 0 76.5 3.5t58.5 7t27 3.5q11 0 11 -10q0 -13 -62.5 -24t-131.5 -11q-45 -62 -45 -124
q0 -47 25 -80.5t76 -33.5q34 0 68 21.5t57 52.5q3 4 8.5 12.5t9 12t5.5 3.5q8 0 8 -8q0 -11 -9 -26q-66 -107 -189 -107q-63 0 -104 35.5t-41 101.5q0 70 67 142q-26 0 -59 -6t-36 -6z" />
    <glyph glyph-name="afii61352" unicode="&#x2116;" horiz-adv-x="890" 
d="M-8 -211q-77 -87 -225.5 -226.5t-262.5 -208.5q-9 -5 -23 -14.5t-22.5 -14.5l-18.5 -10.5t-18 -8t-14 -2.5q-8 0 -8 8t7 12q128 83 231 172t222 218q305 327 483 663q34 63 90.5 185.5t61.5 132.5q2 6 10 6q10 0 10 -11q-22 -170 -22 -281q0 -109 3 -217q18 32 58.5 112
t56.5 107q105 187 209 304q34 38 75.5 65t59.5 31q6 2 9 2q6 0 6 -5q0 -4 -7 -8q-36 -20 -70 -54q-123 -129 -243 -352q-68 -127 -190 -404q-8 -16 -21 -16q-12 0 -12 7q-25 212 -25 382q-72 -138 -165 -270t-245 -304zM757 251q31 -1 51 -18t20 -51q0 -38 -29.5 -61.5
t-68.5 -23.5q-37 0 -57.5 18t-20.5 50q0 34 30 60t75 26zM699 160q0 -48 30 -48q22 0 37 22.5t15 57.5q0 44 -30 44q-22 0 -37 -23.5t-15 -52.5zM713 22q-19 -2 -40 -6l-34 -6.5t-16 -2.5q-13 0 -13 9q0 11 26 18q60 18 128 18q28 0 36 -4q6 -4 6 -8q0 -11 -21 -11
q-16 -1 -72 -7z" />
    <glyph glyph-name="trademark" unicode="&#x2122;" horiz-adv-x="766" 
d="M147 231q-20 0 -31 6.5t-11 13.5t7 7q1 0 12 -1.5t19 -1.5q70 0 164 104q33 37 82 114.5t69 129.5q12 30 17 40q3 7 13 7q9 0 9 -12t-0.5 -41t-0.5 -45q0 -116 13 -174q64 92 127 246q13 31 22 31q12 0 12 -13q0 -5 -1.5 -47t-1.5 -72q0 -128 25 -186q8 -18 16 -24t8 -12
q0 -10 -26 -10q-19 0 -33 10q-19 12 -30 27t-19 43q-10 35 -13 97q-19 -43 -64 -108q-41 -59 -63 -59q-11 0 -14 10q-19 55 -24 146q-34 -61 -86 -117.5t-114 -87.5q-42 -21 -83 -21zM185 355q-53 -57 -114 -57q-11 0 -11 8q0 5 11 9q46 17 77 60q59 82 77 250
q-41 0 -70 -10q-12 -4 -24 -9l-18 -7.5t-9 -2.5q-10 0 -10 7q0 14 53 36q41 16 84 16q25 0 62 -3.5t49 -3.5q13 0 38 3t27 3q10 0 10 -6q0 -12 -26.5 -20.5t-55.5 -8.5q-7 0 -20 0.5t-18 0.5q-9 -50 -19 -82q-39 -125 -93 -183z" />
    <glyph glyph-name="A_dot" unicode="&#xe000;" horiz-adv-x="925" 
d="M34 69q-24 24 -24 36q0 9 7 9q3 0 11 -7t19.5 -18t17.5 -16q69 -54 173 -54q108 0 208 74q81 60 135 128q-36 3 -75 18q-48 17 -48 33q0 7 7 7q3 0 9 -3l15.5 -7.5t19.5 -7.5q50 -16 91 -16q27 30 61 76q167 228 272 416q8 13 19 13h41q12 0 12 -10q0 -3 -20 -70
l-52 -165l-64 -204q-17 -56 -73 -283q-4 -18 -18 -18h-51q-19 0 -19 17q0 13 17 75q18 64 39 130q-42 -6 -90 -6q-31 0 -56 3q-1 -1 -20.5 -24.5t-46.5 -51.5t-59 -56q-115 -99 -253 -99q-123 0 -205 81zM916 662q-124 -222 -279 -420q19 -2 44 -2q56 0 90 9zM176 139
q0 26 24 26q26 0 26 -26q0 -24 -26 -24q-10 0 -17 6.5t-7 17.5z" />
    <glyph glyph-name="B_dot" unicode="&#xe001;" horiz-adv-x="864" 
d="M334 40q-34 -47 -88 -92.5t-110 -68.5q-60 -24 -111 -24q-15 0 -15 8q0 7 15 10q2 0 12 1.5t17.5 2.5t21 4.5t24.5 7.5t26 11.5t28 17.5q78 56 136 155q63 107 122 268q30 82 63 200t43 184q-36 -10 -76 -34q-10 -6 -21.5 -14.5t-17.5 -13.5t-9 -5q-8 0 -8 6q0 9 20 26
q97 80 223 80q54 0 94.5 -30t40.5 -82q0 -44 -43 -79t-104 -40q35 -4 78.5 -26t79.5 -59q63 -66 63 -180q0 -111 -88 -196.5t-218 -85.5q-70 0 -119 26q-20 10 -20 19q0 6 6 6q3 0 9.5 -2.5t15.5 -6.5t15 -6q29 -10 70 -10q104 0 170 78t66 197q0 103 -55.5 169t-140.5 68
q-24 -106 -76.5 -239t-138.5 -251zM555 552q61 0 99 34.5t38 78.5q0 79 -70 79q-11 0 -23 -2q-38 -169 -44 -190zM88 49q0 26 24 26q26 0 26 -26q0 -24 -26 -24q-10 0 -17 6.5t-7 17.5z" />
    <glyph glyph-name="C_dot" unicode="&#xe002;" horiz-adv-x="660" 
d="M200 289q0 113 61.5 225t165.5 182q102 70 217 70q64 0 100 -36q25 -25 25 -37q0 -10 -8 -10q-3 0 -8 6.5t-16 17t-24 16.5q-31 15 -70 15q-160 0 -280 -213q-33 -59 -51.5 -129.5t-18.5 -132.5q0 -115 48.5 -180t126.5 -65q25 0 48 6t41 16t30 18.5t24 18.5t13 11
q4 3 8 3q5 0 5 -8q0 -18 -37 -46q-61 -47 -146 -47t-144 45t-84.5 110.5t-25.5 143.5zM618 649q0 26 24 26q26 0 26 -26q0 -24 -26 -24q-10 0 -17 6.5t-7 17.5z" />
    <glyph glyph-name="D_dot" unicode="&#xe003;" horiz-adv-x="918" 
d="M189 -4q118 155 223.5 362.5t147.5 349.5q-29 8 -71 8q-113 0 -221 -68q-44 -28 -76.5 -60t-46.5 -49.5t-18 -17.5q-7 0 -7 11q0 19 42 65t84 74q127 83 276 83q28 0 51 -4q16 48 35 156q2 6 7 6q8 0 10 -11q3 -15 3 -41q0 -54 -11 -118q116 -31 198.5 -129.5
t82.5 -239.5q0 -92 -40.5 -178t-122.5 -144.5t-186 -58.5q-30 0 -92 11.5t-81 11.5q-56 0 -108 -21q-22 -9 -43 -22.5t-32.5 -22t-16.5 -8.5q-11 0 -11 11q0 12 24 44zM310 38q36 7 82 7q17 0 71 -8t70 -8q79 0 141.5 54t93 132t30.5 162q0 69 -18 130.5t-62 113.5t-108 72
q-34 -160 -136.5 -372t-163.5 -283zM258 519q0 26 24 26q26 0 26 -26q0 -24 -26 -24q-10 0 -17 6.5t-7 17.5z" />
    <glyph glyph-name="E_dot" unicode="&#xe004;" horiz-adv-x="680" 
d="M120 239q0 135 97.5 218.5t255.5 86.5q-75 39 -75 111q0 52 42 82.5t94 30.5q53 0 90 -30q17 -15 17 -27q0 -9 -8 -9q-3 0 -7 3.5l-11.5 10t-15.5 11.5q-14 8 -45 8q-34 0 -57.5 -23.5t-23.5 -66.5q0 -64 60 -97l38 -19q10 -5 10 -12q0 -10 -12 -10q-6 0 -12 2
q-34 8 -60 8q-118 0 -198.5 -85t-80.5 -214q0 -85 51.5 -142.5t147.5 -57.5q36 0 77.5 17t74.5 46q30 27 68 73q13 15 18 15t5 -6q0 -4 -3 -10q-33 -60 -82 -100t-95 -55t-92 -15q-122 0 -195 69t-73 187zM448 139q0 26 24 26q26 0 26 -26q0 -24 -26 -24q-10 0 -17 6.5
t-7 17.5z" />
    <glyph glyph-name="F_dot" unicode="&#xe005;" horiz-adv-x="529" 
d="M221 26q78 112 141 326q31 104 91 366q-26 4 -49 4q-64 0 -118 -14q-72 -19 -125 -70t-53 -126q0 -51 27 -86q2 -2 5 -5.5t5 -5.5t3.5 -4.5t1.5 -4.5q0 -5 -8 -5q-12 0 -31 25q-31 41 -31 94q0 86 67.5 147.5t158.5 78.5q57 10 97 10q31 0 132 -12.5t135 -12.5
q60 0 106.5 8.5t68.5 17.5t23 9q11 0 11 -9q0 -4 -15 -12t-39 -16.5t-44 -11.5q-81 -12 -115 -12q-58 0 -127 8q-32 -160 -61 -258q33 2 65.5 8t51.5 11t21 5q12 0 12 -7t-8 -11q-58 -24 -149 -36q-19 -62 -53 -149q-25 -62 -73.5 -147.5t-91.5 -131.5q-92 -99 -173 -99
q-20 0 -20 7q0 5 17 9q78 16 144 112zM128 119q0 26 24 26q26 0 26 -26q0 -24 -26 -24q-10 0 -17 6.5t-7 17.5z" />
    <glyph glyph-name="G_dot" unicode="&#xe006;" horiz-adv-x="808" 
d="M514 256q-10 0 -10 7t20 18q23 14 62 14q18 0 57.5 -7t58.5 -7q11 0 31 2.5t22 2.5q10 0 10 -13q0 -18 -13.5 -54.5t-30.5 -63.5q-45 -73 -115 -118t-153 -45q-121 0 -187 87t-66 223q0 110 58.5 215t164 173t227.5 68q114 0 166 -64q4 -4 4 -10t-6 -6q-2 0 -20 13
t-51.5 25.5t-74.5 12.5q-67 0 -128 -28.5t-106 -76t-78 -108t-49.5 -125.5t-16.5 -127q0 -114 45 -181.5t120 -67.5q47 0 85.5 21t64.5 56.5t43 75.5t26 84q-17 2 -44.5 11t-48.5 9q-22 0 -45 -8zM678 639q0 26 24 26q26 0 26 -26q0 -24 -26 -24q-10 0 -17 6.5t-7 17.5z" />
    <glyph glyph-name="H_dot" unicode="&#xe007;" horiz-adv-x="669" 
d="M125 736q-11 -3 -27 -10.5l-27.5 -13t-14.5 -5.5q-8 0 -8 7q0 6 8 11q32 27 86.5 39.5t94.5 12.5q37 0 94 -10.5t86 -10.5q15 0 29.5 1t23 2.5t10.5 1.5q9 0 9 -9q0 -24 -19 -113q-22 -102 -49 -193q28 -2 34 -2q55 0 108 14q35 115 56 162q59 134 151 191q32 20 53 20
q6 0 6 -6q0 -3 -10 -10t-26 -21t-28 -29q-36 -49 -69 -130q-31 -79 -52 -171.5t-48 -252.5q-8 -49 -14 -93.5l-9 -67.5t-5 -31q-4 -19 -19 -19h-52q-17 0 -17 15q0 35 23 166.5t55 245.5q-55 -11 -102 -11q-26 0 -41 2q-55 -188 -122 -299q-58 -96 -149 -120q-17 -4 -35 -4
q-24 0 -45 9q-8 3 -16 10t-8 12q0 7 8 7l16 -7q15 -8 33 -8q78 0 143 144q80 176 164 562q-25 3 -82.5 15.5t-92.5 12.5q-49 0 -104 -16zM98 139q0 26 24 26q26 0 26 -26q0 -24 -26 -24q-10 0 -17 6.5t-7 17.5z" />
    <glyph glyph-name="J_dot" unicode="&#xe008;" horiz-adv-x="614" 
d="M644 736q0 -10 -5.5 -65.5t-8.5 -72.5q-38 -202 -98 -383q-35 -105 -92.5 -202.5t-114.5 -154.5q-123 -123 -249 -123q-21 0 -43.5 5.5t-22.5 15.5q0 6 9 6q3 0 20.5 -2t34.5 -2q87 0 173 86q107 106 190 345q54 155 95 405q10 62 15 118q-29 0 -88 12.5t-71 12.5
q-47 0 -93 -24q-12 -6 -18 -6t-6 5q0 11 24 26q40 27 103 27q21 0 73.5 -9.5t75.5 -9.5q17 0 48 4t36 4q13 0 13 -18zM88 -131q0 26 24 26q26 0 26 -26q0 -24 -26 -24q-10 0 -17 6.5t-7 17.5z" />
    <glyph glyph-name="K_dot" unicode="&#xe009;" horiz-adv-x="891" 
d="M1004 866q7 0 7 -5q0 -20 -45 -92.5t-100 -136.5q-127 -146 -316 -236q18 -55 33 -95t40.5 -97t50.5 -93.5t58.5 -63t68.5 -26.5q17 0 37 5l20 5q7 0 7 -7q0 -3 -8 -10q-24 -20 -84 -20q-36 0 -68 12t-57.5 29.5t-50 48.5t-42 58.5t-37.5 70.5t-32 73.5l-30 77.5
q-29 -88 -73 -174q-46 -90 -109 -146.5t-127 -56.5q-59 0 -94 35q-13 13 -13 20q0 9 7 9q2 0 7 -3.5t12.5 -9.5t14.5 -10q22 -12 45 -12q71 0 125 96q75 134 122 276.5t87 315.5q-19 2 -72 11.5t-65 9.5q-61 -1 -97 -35q-9 -7 -17.5 -18t-14 -17.5t-8.5 -6.5q-6 0 -6 8
q0 15 21 42q46 55 128 55q18 0 66.5 -8t65.5 -8q21 0 55.5 5.5t38.5 5.5q11 0 11 -10q0 -5 -2 -15q-59 -224 -90 -302q92 8 244 129q148 118 222 226l39 60q19 30 25 30zM778 769q0 26 24 26q26 0 26 -26q0 -24 -26 -24q-10 0 -17 6.5t-7 17.5z" />
    <glyph glyph-name="L_dot" unicode="&#xe00a;" horiz-adv-x="648" 
d="M40 25q0 34 30 61.5t82 27.5q22 0 43 -9q40 84 80.5 209.5t58.5 201.5q-38 -22 -113.5 -41.5t-107.5 -19.5q-17 0 -17 8t19 11q89 19 148 40q60 22 85 42q22 63 61 123q53 81 119 81q44 0 44 -48q0 -40 -39 -80t-96 -69q-37 -153 -77.5 -264.5t-104.5 -214.5
q116 -68 219 -68q32 0 59.5 5.5t40 11t29.5 15.5t22 12q10 4 12 4q6 0 6 -5q0 -11 -23 -27t-65.5 -29t-87.5 -13q-90 0 -238 63q-63 -79 -121 -79q-28 0 -48 14t-20 37zM529 737q-27 0 -50 -42.5t-35 -101.5q40 20 73.5 54t33.5 63q0 27 -22 27zM181 77q-16 8 -36 8
q-34 0 -52.5 -18.5t-18.5 -38.5q0 -12 8 -20t22 -8q50 0 77 77zM575 109q0 26 24 26q26 0 26 -26q0 -24 -26 -24q-11 0 -17.5 6.5t-6.5 17.5z" />
    <glyph glyph-name="M_dot" unicode="&#xe00b;" horiz-adv-x="1133" 
d="M551 233q86 105 125 172l201 361q19 35 31 35q9 0 9 -11q0 -8 -8 -34l-30.5 -106l-42.5 -147.5t-41 -153t-41 -170.5q127 131 317 477q55 99 66 110q5 4 8 4q8 0 8 -7q0 -9 -3 -19q-50 -154 -101 -409q-23 -114 -23 -186q0 -75 18 -131q5 -14 12 -27t11.5 -19.5t4.5 -9.5
q0 -7 -10 -7q-9 0 -28.5 9.5t-33.5 24.5q-62 65 -62 202q0 112 45 261q-49 -93 -107 -173t-171 -217q-15 -17 -40 -40t-34 -23q-11 0 -11 16t7 40q7 29 21.5 98t28 121t39.5 139q-81 -130 -143 -205q-38 -46 -72 -79.5t-84 -71.5t-110 -58.5t-126 -20.5q-61 0 -117 23
q-19 8 -36.5 20.5t-17.5 21.5q0 11 7 11q3 0 9 -3.5l17 -10t22 -11.5q52 -22 116 -22q96 0 192 63.5t178 162.5zM217 129q0 26 24 26q26 0 26 -26q0 -24 -26 -24q-11 0 -17.5 6.5t-6.5 17.5z" />
    <glyph glyph-name="N_dot" unicode="&#xe00c;" horiz-adv-x="983" 
d="M830 243q187 349 328 505q79 87 152 91q13 0 13 -7q0 -8 -11 -11q-74 -21 -132 -91q-62 -76 -79 -102q-184 -272 -317 -566q-32 -72 -49 -72q-14 0 -14 34q1 51 15 192t35 251q-89 -167 -228 -358q-90 -122 -197 -202q-36 -27 -62 -43.5t-67.5 -37t-90 -31t-102.5 -10.5
q-148 0 -219 71q-5 5 -5 11t6 6q8 0 39 -17q37 -20 85.5 -30.5t80.5 -10.5q130 0 274 97q148 99 317 348q33 49 62 96.5l41.5 69l41 73.5l34.5 63q21 39 52.5 104.5t33.5 70.5q11 20 18 20q9 0 9 -15q0 -8 -33 -247q-3 -21 -11 -72.5t-13 -92t-7 -87.5zM128 -1q0 26 24 26
q26 0 26 -26q0 -24 -26 -24q-10 0 -17 6.5t-7 17.5z" />
    <glyph glyph-name="P_dot" unicode="&#xe00d;" horiz-adv-x="699" 
d="M597 696q-15 -46 -73.5 -248t-96.5 -304q-34 -93 -81 -176q-68 -122 -154 -179q-42 -27 -85.5 -38.5t-67.5 -11.5q-19 0 -19 9q0 2 1.5 4t5.5 3l8 2l10.5 2.5t11.5 2.5q75 20 124 73q50 53 93 165q37 96 116.5 340.5t125.5 333.5q-81 -29 -163 -111q-15 -15 -21 -15
q-5 0 -5 5q0 11 25 36q44 44 85 70q65 41 98 53q56 97 92 128q18 14 21 14q7 0 7 -7q0 -2 -3 -7.5l-9.5 -17.5t-12.5 -25q-16 -36 -28 -75q32 7 76 7q65 0 114 -31q77 -48 77 -146q0 -71 -39 -126t-94 -84q-80 -42 -174 -42q-41 0 -41 12q0 5 38 7q87 6 143 59
q36 34 56 83.5t20 98.5q0 61 -31 101.5t-97 40.5q-29 0 -53 -6zM88 -51q0 26 24 26q26 0 26 -26q0 -24 -26 -24q-10 0 -17 6.5t-7 17.5z" />
    <glyph glyph-name="Q_dot" unicode="&#xe00e;" horiz-adv-x="841" 
d="M352 -3q-65 15 -108.5 74t-43.5 146q0 123 65 247t174 205t224 81q87 0 142.5 -62.5t55.5 -170.5q0 -116 -52.5 -228.5t-148.5 -194t-212 -102.5q31 -170 107 -301q22 -37 44 -65t32 -39.5t10 -14.5q0 -9 -13 -9q-7 0 -23.5 11.5t-44 39t-53.5 63.5q-61 83 -92 151
t-63 169zM292 164q0 -61 24 -103.5t71 -42.5q75 0 148 57t122.5 139.5t80.5 173.5t31 160q0 39 -4 67.5t-14.5 55t-32.5 40.5t-54 14q-72 0 -142.5 -58t-119.5 -143.5t-79.5 -183t-30.5 -176.5zM608 -251q0 26 24 26q26 0 26 -26q0 -24 -26 -24q-10 0 -17 6.5t-7 17.5z" />
    <glyph glyph-name="R_dot" unicode="&#xe00f;" horiz-adv-x="827" 
d="M17 -297q-7 0 -7 6q0 2 3 4.5t11 7.5t14 10q47 37 85 93q67 98 127 252q30 76 122 327.5t103 278.5q-66 -16 -132 -61q-20 -14 -27 -14q-5 0 -5 5t10 17t21 19q78 55 152 74q32 65 62 97q18 20 35 31t24 11q6 0 6 -6q0 -1 -4 -7.5l-11.5 -19.5t-13.5 -25q-12 -22 -29 -74
q21 3 38 3q62 0 108 -23q83 -41 83 -131q0 -82 -74 -132q-69 -47 -149 -50q26 -134 51 -194q49 -118 113 -167q18 -14 58 -31q16 -6 16 -11q0 -7 -16 -7q-22 2 -47 10q-73 22 -127 81q-58 61 -98 149.5t-57 177.5q-11 -41 -52.5 -150t-73.5 -180q-29 -62 -93.5 -158.5
t-130.5 -153.5q-69 -59 -95 -59zM557 701q-28 -100 -88 -276q31 -7 61 -7q71 0 125 56q42 43 42 111q0 57 -30 88t-75 31q-14 0 -35 -3zM48 -71q0 26 24 26q26 0 26 -26q0 -24 -26 -24q-10 0 -17 6.5t-7 17.5z" />
    <glyph glyph-name="S_dot" unicode="&#xe010;" horiz-adv-x="522" 
d="M236 -9q-47 0 -92 18.5t-75 50.5q-38 41 -56 91q-8 20 -8 31t6 11q9 0 13 -9q31 -76 71 -110q62 -53 126 -53q68 0 103.5 46t35.5 109q0 52 -30.5 122l-61 145t-30.5 138q0 67 49.5 119t133.5 52q62 0 95 -43q16 -21 16 -36q0 -7 -7 -7t-10 7q-33 52 -80 52
q-109 0 -109 -134q0 -45 20 -100.5t43.5 -100t43.5 -100t20 -99.5q0 -86 -58.5 -143t-158.5 -57zM118 169q0 26 24 26q26 0 26 -26q0 -24 -26 -24q-10 0 -17 6.5t-7 17.5z" />
    <glyph glyph-name="T_dot" unicode="&#xe011;" horiz-adv-x="589" 
d="M395 725q-99 0 -167 -59q-62 -54 -62 -138q0 -12 1 -24.5t2.5 -20t1.5 -8.5q0 -9 -5 -9q-6 0 -10 7q-12 22 -12 61q0 92 65 154q79 76 218 76q29 0 135 -16.5t164 -16.5q37 0 84.5 9t78.5 25q8 4 13 4q7 0 7 -5q0 -10 -7 -15q-32 -27 -88 -40.5t-106 -13.5q-59 0 -90 2
q-60 -404 -200 -675q-17 -33 -41.5 -68.5t-60 -77t-82.5 -77t-96 -53.5q-57 -22 -96 -22q-32 0 -32 10q0 9 25 10q60 4 123 46q106 72 189 257q105 234 169 663q-84 15 -121 15zM88 -101q0 26 24 26q26 0 26 -26q0 -24 -26 -24q-10 0 -17 6.5t-7 17.5z" />
    <glyph glyph-name="U_dot" unicode="&#xe012;" horiz-adv-x="751" 
d="M321 591q51 146 51 236q0 45 -8 80.5t-16.5 54t-8.5 21.5q0 7 9 7q7 0 23 -25t27 -58q23 -66 23 -135q0 -90 -36 -220q-22 -80 -45 -152.5l-46.5 -141.5t-32.5 -98q-16 -50 -16 -76q0 -20 8.5 -32.5t24.5 -12.5q43 0 127 111q111 147 186 336q8 20 84 233q4 10 5.5 14.5
t5 9t7.5 6t11 1.5h53q14 0 14 -10q0 -11 -12 -45q-57 -158 -93 -286q-57 -199 -57 -288q0 -76 26 -97q9 -8 21 -10t18.5 -2.5t6.5 -5.5q0 -13 -37 -13q-39 0 -66 25q-48 44 -48 130q0 78 33 208q-12 -27 -50 -91.5t-70 -110.5q-113 -159 -201 -159q-38 0 -60 27.5t-22 76.5
q0 30 8 62t21.5 68l52 140zM233 799q0 26 24 26q26 0 26 -26q0 -24 -26 -24q-11 0 -17.5 6.5t-6.5 17.5z" />
    <glyph glyph-name="V_dot" unicode="&#xe013;" horiz-adv-x="616" 
d="M356 605q77 -147 90 -396q51 93 115 192q173 267 325 410q55 51 98 72q12 6 17 6t5 -5q0 -3 -23 -21q-31 -25 -83 -76q-84 -83 -253 -339q-91 -138 -251 -426q-16 -28 -30 -28q-10 0 -12 19q-2 16 -3 62t-4 86q-24 305 -72 434q-36 94 -63 132q-11 15 -12 21q0 7 10 7
q22 0 68.5 -45.5t77.5 -104.5zM918 669q0 26 24 26q26 0 26 -26q0 -24 -26 -24q-10 0 -17 6.5t-7 17.5z" />
    <glyph glyph-name="W_dot" unicode="&#xe014;" horiz-adv-x="833" 
d="M685 564q31 -140 31 -234q0 -47 -4 -84q35 66 94 163q69 113 152 225.5t147 176.5q50 50 96 72q12 6 17 6t5 -5q0 -3 -23 -21q-51 -40 -83 -73q-90 -93 -238 -330l-43 -72l-38 -67l-40 -74l-36.5 -69l-40 -78.5l-39.5 -77.5q-14 -28 -30 -28q-12 0 -12 19q0 8 6 73.5
t8 112.5q4 94 4 186q0 90 -7 137q-148 -228 -257 -499q-12 -29 -24 -29q-9 0 -9 29q0 8 2 57t2 97q0 325 -111 550q-13 26 -14 31q0 7 10 7q19 0 59 -48t67 -109q80 -181 80 -365q39 86 76.5 149.5t113.5 179.5q-7 73 -37 171q-1 3 -6 16t-6 18q0 7 9 7q12 0 34 -27.5
t47 -80.5t38 -112zM1128 679q0 26 24 26q26 0 26 -26q0 -24 -26 -24q-10 0 -17 6.5t-7 17.5z" />
    <glyph glyph-name="X_dot" unicode="&#xe015;" horiz-adv-x="887" 
d="M51 -122q86 34 181 107q175 135 308 380q-31 122 -59 199.5t-71 137.5q-15 20 -30 33t-15 17q0 7 12 7q46 0 103.5 -47.5t97.5 -143.5q17 -41 47 -127q76 115 138.5 187.5t133.5 116.5q18 11 28 11q9 0 9 -7q0 -3 -3 -6t-12.5 -10l-16.5 -12q-1 -1 -9 -7.5t-12 -9.5
t-13 -11t-16 -16t-18 -19.5t-23.5 -27l-26.5 -33.5q-83 -107 -138 -209q77 -296 155 -365q24 -21 33 -26l6 -3q21 -10 21 -19t-40 -9q-13 0 -38.5 6.5t-40.5 15.5q-60 35 -109 129t-74 187q-179 -284 -388 -399q-86 -47 -118 -47q-13 0 -13 9q0 7 11 11zM158 59q0 26 24 26
q26 0 26 -26q0 -24 -26 -24q-10 0 -17 6.5t-7 17.5z" />
    <glyph glyph-name="Y_dot" unicode="&#xe016;" horiz-adv-x="500" 
d="M326 15q-4 -15 -18 -15h-58q-14 0 -14 13q0 5 14 72q30 143 64 280q-7 47 -35 130q-13 38 -29.5 78.5t-49.5 97t-66 86.5q-14 13 -14 17q0 6 13 6q44 0 90 -37.5t79 -91.5q29 -46 55.5 -109.5t36.5 -103.5q77 164 168 289q42 59 95.5 109t96.5 77q27 16 36 16q10 0 10 -7
q0 -5 -10 -12q-114 -81 -217 -229q-117 -168 -180 -397q-12 -44 -34 -134zM708 729q0 26 24 26q26 0 26 -26q0 -24 -26 -24q-10 0 -17 6.5t-7 17.5z" />
    <glyph glyph-name="Z_dot" unicode="&#xe017;" horiz-adv-x="674" 
d="M148 0q-16 0 -16 16q0 14 29 62q182 304 450 641q-47 0 -133 20.5t-138 20.5q-51 0 -98 -12t-76.5 -24.5t-37.5 -12.5t-8 8q0 7 7 12q15 10 46 25q75 36 176 36q60 0 151.5 -15t125.5 -15q20 0 56 4.5t38 4.5q14 0 14 -12q0 -9 -20 -36q-9 -13 -67 -91l-114 -158
q-190 -269 -270 -413q102 0 208 -37q40 -14 90 -14q21 0 54 10t35 10q10 0 10 -9q0 -7 -8 -12q-46 -30 -112 -30q-25 0 -78 11q-126 27 -173 27q-35 0 -86.5 -8.5t-54.5 -8.5zM278 659q0 26 24 26q26 0 26 -26q0 -24 -26 -24q-10 0 -17 6.5t-7 17.5z" />
    <glyph glyph-name="afii10017_dot" unicode="&#xe020;" horiz-adv-x="828" 
d="M948 737q0 -15 -41 -129l-214 -592q-5 -16 -17 -16h-72q-9 0 -9 8q0 7 7 23l33 91q-76 3 -140 29q-146 -157 -290 -157q-92 0 -160 68q-25 25 -25 40q0 6 6 6q4 0 14 -12q70 -80 166 -80q132 0 263 144q-39 21 -62 50q-8 11 -8 20q0 6 6 6q2 0 6.5 -4.5l13 -12.5
t15.5 -14q21 -17 44 -26q114 118 220 273t176 283q7 15 38 15q30 0 30 -13zM511 170q56 -26 131 -26q44 98 182 449q-47 -81 -150 -221t-163 -202zM128 119q0 26 24 26q26 0 26 -26q0 -24 -26 -24q-10 0 -17 6.5t-7 17.5z" />
    <glyph glyph-name="afii10018_dot" unicode="&#xe021;" horiz-adv-x="756" 
d="M550 316q-37 0 -66 -17.5t-61 -65.5l-85 -131q-80 -118 -188 -185q-24 -15 -65 -31.5t-63 -16.5q-12 0 -12 10q0 4 5 6t19 6t24 8q51 20 121 82q71 64 150 230q100 210 168 495q-157 0 -209 -126q-3 -5 -8 -5q-9 0 -9 13q0 23 24 58t68 59q57 31 148 31q43 0 152 -20
t145 -20q76 0 128 24q5 2 13 6.5l13.5 7.5t6.5 3q7 0 7 -5q0 -21 -52 -42t-121 -21q-44 0 -78.5 4.5t-76 12t-71.5 11.5q-19 -95 -56.5 -211.5t-73.5 -191.5q58 52 119 52q67 0 105.5 -41t38.5 -100q0 -81 -60 -145t-154 -64q-76 0 -124 46q-13 13 -13 19q0 8 8 8q6 0 14 -8
q42 -34 90 -34q63 0 108.5 62.5t45.5 131.5q0 39 -19 67t-56 28zM89 69q0 26 24 26q26 0 26 -26q0 -24 -26 -24q-11 0 -17.5 6.5t-6.5 17.5z" />
    <glyph glyph-name="afii10019_dot" unicode="&#xe022;" horiz-adv-x="918" 
d="M651 511q-18 2 -25 2q-11 0 -11 7t8 9q48 12 78 44.5t30 79.5q0 42 -32 62q-21 14 -52 14q-22 0 -31 -2q-29 -195 -106 -413q-25 -71 -56 -136.5t-75 -138t-103.5 -133.5t-126.5 -99q-24 -13 -59.5 -25t-57.5 -12t-22 9q0 4 6 6t24 6t35 10q68 25 124 81q133 130 230 444
q70 226 104 382q-34 -8 -78.5 -42t-82.5 -92q-3 -5 -7 -5q-6 0 -6 8q0 6 11 28q20 37 65.5 74.5t90.5 53.5q59 22 125 22q58 0 95 -24q54 -33 54 -89q0 -53 -54 -90q-17 -13 -59 -25q97 -14 149 -77.5t52 -150.5q0 -109 -86.5 -206t-209.5 -97q-28 0 -42.5 1t-37 9t-47.5 24
q-21 15 -21 25q0 8 7 8q1 0 20 -13q42 -30 104 -30q82 0 156 83.5t74 216.5q0 68 -40 124t-114 67zM102 -41q0 26 24 26q26 0 26 -26q0 -24 -26 -24q-10 0 -17 6.5t-7 17.5z" />
    <glyph glyph-name="afii10020_dot" unicode="&#xe023;" horiz-adv-x="586" 
d="M17 -54q-7 7 -7 10q0 9 7 9q3 0 9 -3q48 -24 114 -24q26 0 64.5 15t66.5 39q86 75 158 221q46 92 94.5 244t65.5 258q-31 7 -71 7q-119 0 -179 -80q-20 -27 -29 -59.5t-11.5 -49.5t-9.5 -17q-11 0 -11 29q0 67 41 120q71 92 227 92q40 0 166 -24.5t196 -24.5
q50 0 91.5 12t63 24t23.5 12q10 0 10 -9q0 -4 -12.5 -15.5t-28.5 -20.5q-65 -36 -154 -36q-86 0 -219 25q-56 -254 -140 -439q-62 -137 -153 -232q-113 -118 -249 -118q-71 0 -123 35zM911 794q0 26 24 26q26 0 26 -26q0 -24 -26 -24q-11 0 -17.5 7t-6.5 17z" />
    <glyph glyph-name="afii10021_dot" unicode="&#xe024;" horiz-adv-x="968" 
d="M296 2q0 5 7 14.5l21 28t25 34.5q94 146 162 326t86 311q-24 3 -55 3q-133 0 -238 -57l-48 -26q-6 0 -6 8q0 11 32 32q118 78 270 78q34 0 51 -2q5 21 8.5 50.5t6 61.5t3.5 42q0 6 6 6q9 0 11 -11q3 -12 8 -41q7 -46 7 -116q148 -32 226.5 -128.5t78.5 -236.5
q0 -150 -108.5 -260t-266.5 -110q-24 0 -69.5 3t-71.5 3q-41 0 -88.5 -10.5t-50.5 -10.5q-7 0 -7 8zM421 40q24 3 53 3q10 0 44 -1.5t51 -1.5q126 0 211 102.5t85 244.5q0 113 -54.5 199t-157.5 115q-5 -182 -77.5 -368t-154.5 -293zM419 616q0 26 24 26q26 0 26 -26
q0 -24 -26 -24q-11 0 -17.5 7t-6.5 17z" />
    <glyph glyph-name="afii10022_dot" unicode="&#xe025;" horiz-adv-x="722" 
d="M515 560q-45 0 -92 -19t-87.5 -53t-66 -90t-25.5 -122q0 -106 61.5 -175.5t163.5 -69.5q67 0 134 34q16 8 34.5 21.5l31 22.5t16.5 9q7 0 7 -8t-20 -26.5t-38 -30.5q-86 -56 -191 -56q-140 0 -216.5 81t-76.5 202q0 128 95 208.5t231 99.5q-53 27 -53 85q0 36 29 59.5
t77 23.5q38 0 62 -23.5t24 -37.5q0 -9 -6 -9q-3 0 -13 10q-22 25 -52 25q-23 0 -40 -17t-17 -40q0 -36 20.5 -57.5t45.5 -28.5q21 -6 21 -13q0 -9 -11 -9q-5 0 -21 2t-27 2zM502 133q0 26 24 26q26 0 26 -26q0 -24 -26 -24q-10 0 -17 6.5t-7 17.5z" />
    <glyph glyph-name="afii10024_dot" unicode="&#xe026;" horiz-adv-x="1066" 
d="M974 0q-51 0 -89.5 24.5t-59 64.5t-30 83.5t-9.5 89.5q0 109 29 181q-46 -65 -116 -176.5l-112.5 -175t-56.5 -63.5q-9 0 -9 12q0 7 11.5 39.5t44 132t70.5 227.5q-98 -167 -189 -266t-170 -136t-170 -37q-31 0 -64.5 11t-33.5 24q0 6 6 6q1 0 29.5 -8t70.5 -8
q91 0 175 70t134 179t50 219q0 102 -40 167.5t-112 65.5q-29 0 -55 -6t-41 -11.5t-18 -5.5q-5 0 -5 5t21 17q50 25 116 25q69 0 118 -42q93 -78 93 -249q0 -78 -31 -153q50 66 84 121t71.5 124.5l46.5 85.5q7 12 19 37t19 35.5t13 10.5q10 0 10 -20q0 -23 -57.5 -212
t-76.5 -238q6 9 37.5 60l56 89t66 95t81.5 102q137 154 258 154q44 0 69 -23q18 -18 18 -32q0 -10 -7 -10q-4 0 -12.5 9.5t-24 19.5t-36.5 10q-59 0 -117 -50q-89 -77 -137 -195.5t-48 -262.5q0 -48 10.5 -89t40 -72.5t74.5 -31.5q11 0 25 3t15 3q10 0 10 -6q0 -7 -7 -10
q-25 -13 -58 -13zM131 145q0 26 24 26q26 0 26 -26q0 -24 -26 -24q-11 0 -17.5 6.5t-6.5 17.5z" />
    <glyph glyph-name="afii10025_dot" unicode="&#xe027;" horiz-adv-x="719" 
d="M424 683q-7 0 -7 6q0 8 8 16q49 49 124 49q41 0 68.5 -22.5t27.5 -63.5q0 -37 -26.5 -63.5t-54.5 -35.5t-54 -12q84 -21 136 -89t52 -152q0 -144 -101 -231.5t-266 -87.5q-80 0 -149 38.5t-110 106.5q-12 21 -12 29t8 8q3 0 7.5 -5.5t10.5 -15.5t9 -14q87 -116 234 -116
q65 0 119 27t87 71t51 96.5t18 106.5q0 70 -27.5 126.5t-85.5 79.5q-14 6 -41 11q-10 2 -10 10t14 10q46 5 80.5 30t34.5 69q0 59 -51 59q-28 0 -60 -20.5t-34 -20.5zM231 166q0 26 24 26q26 0 26 -26q0 -24 -26 -24q-11 0 -17.5 7t-6.5 17z" />
    <glyph glyph-name="afii10026_dot" unicode="&#xe028;" horiz-adv-x="718" 
d="M336 663q51 153 51 247q0 78 -26 150q-4 10 -10.5 22.5l-10.5 20t-4 10.5q0 7 9 7q17 0 42 -51q44 -86 44 -222q0 -119 -47 -286q-12 -43 -49 -159t-59.5 -197t-22.5 -114q0 -30 6.5 -44.5t26.5 -14.5q40 0 98 77.5t108.5 183.5t82.5 207l66 219q6 19 11 25t18 6h54
q14 0 14 -11q0 -12 -10 -47l-29.5 -102l-39 -137.5l-33 -126t-29 -132t-9.5 -91.5q0 -67 25 -95q7 -7 17.5 -11l17 -6.5t6.5 -7.5q0 -10 -19 -10q-55 0 -84.5 50.5t-29.5 119.5q0 80 37 223q-4 -7 -20.5 -43.5t-39 -80.5t-45.5 -82q-104 -167 -197 -167q-44 0 -70 27.5
t-26 82.5q0 35 12.5 83t31 98.5l57.5 160zM269 905q0 26 24 26q26 0 26 -26q0 -24 -26 -24q-11 0 -17.5 6.5t-6.5 17.5z" />
    <glyph glyph-name="afii10028_dot" unicode="&#xe029;" horiz-adv-x="716" 
d="M934 877q5 0 5 -5q0 -3 -2 -5.5t-6 -5.5l-9 -6.5l-13 -9.5t-15 -12q-65 -53 -137 -160q-6 -8 -33 -51l-44.5 -69t-42.5 -58.5t-42 -47.5q-41 -35 -79 -52q3 -13 14 -65t18 -80t22 -76.5t34 -93.5q58 -139 122 -216q47 -56 99 -87l16.5 -10.5t14.5 -9.5t4 -6q0 -7 -13 -7
q-18 0 -66 29.5t-91 70.5q-93 91 -141 185q-85 165 -126 328q-9 -28 -22 -63t-41 -93t-59 -102.5t-74.5 -78t-88.5 -33.5q-38 0 -66 16.5t-32 33.5q0 8 8 8q2 0 21.5 -15.5t46.5 -15.5q68 0 114 82q26 48 50.5 105.5t39.5 98t36 112.5t27.5 96t27 106.5t22.5 89.5
q-20 2 -67.5 11.5t-59.5 9.5q-61 -1 -97 -35q-9 -7 -17.5 -18t-14 -17.5t-8.5 -6.5q-6 0 -6 8q0 15 21 42q46 55 128 55q18 0 66.5 -8t65.5 -8q21 0 49 5.5t32 5.5q11 0 11 -10q0 -5 -2 -15q-64 -241 -91 -307q35 1 65.5 15t62 47.5t53.5 62.5t62 87q89 131 146 186
q26 26 57.5 44.5t44.5 18.5zM881 724q0 26 24 26q26 0 26 -26q0 -24 -26 -24q-11 0 -17.5 7t-6.5 17z" />
    <glyph glyph-name="afii10029_dot" unicode="&#xe02a;" horiz-adv-x="874" 
d="M223 -4q-59 0 -114.5 27.5t-92.5 86.5q-6 12 -6 17q0 8 8 8q3 0 11.5 -11.5t24 -27.5t37 -32.5t56.5 -28t76 -11.5q83 0 148.5 36.5t129.5 96.5q70 65 131.5 139t120 163.5t86 135.5l81.5 140q9 15 24 15h31q16 0 16 -9q0 -4 -1 -8q-8 -32 -53 -157l-119.5 -326
l-83.5 -226q-9 -23 -23 -23h-59q-12 0 -12 15q0 11 12 45l37 94l73.5 184l90.5 229q-166 -280 -337 -440q-142 -132 -293 -132zM176 129q0 26 24 26q26 0 26 -26q0 -24 -26 -24q-10 0 -17 6.5t-7 17.5z" />
    <glyph glyph-name="afii10030_dot" unicode="&#xe02b;" horiz-adv-x="1296" 
d="M1306 747q10 0 10 -12q0 -10 -13 -47q-59 -165 -104 -345q-27 -108 -27 -197q0 -83 22 -134q8 -18 21 -34q11 -13 11 -16q0 -8 -11 -8q-29 0 -59 29q-65 62 -65 195q0 114 40 240q-43 -77 -92 -152q-68 -102 -187 -234q-37 -40 -48 -40q-13 0 -13 17q0 18 3 39
q38 199 99 400q-65 -130 -129.5 -221t-144.5 -177q-122 -131 -240 -201q-105 -64 -234 -64q-74 0 -137 27q-17 7 -37.5 21.5t-20.5 22.5q0 7 7 7q3 0 8.5 -3.5t16.5 -9.5t22 -11q60 -25 135 -25q45 0 103 17t106 45q129 74 246 200q85 94 168 220q70 107 137 230
q25 44 68.5 128t44.5 87q20 38 31 38t11 -12q0 -10 -7 -38q-98 -355 -141 -585q38 42 90 115t87 131l98 162l98 163q19 32 27 32zM200 -25q0 26 24 26q26 0 26 -26q0 -24 -26 -24q-10 0 -17 6.5t-7 17.5z" />
    <glyph glyph-name="afii10031_dot" unicode="&#xe02c;" horiz-adv-x="911" 
d="M37 -5q-15 10 -15 20q0 8 7 8q6 -2 16.5 -10.5t18.5 -12.5q53 -28 99 -28q72 0 123 32t107 109q44 60 90.5 171.5t75.5 199.5t72 231q-25 0 -67 6.5t-62 6.5q-64 0 -118 -47q-43 -38 -59 -101q-3 -11 -12 -11q-8 0 -8 10q0 35 28 79q24 40 71 70t118 30q28 0 66 -3t44 -3
q48 0 83 15q7 7 18 7q9 0 9 -8t-7 -31q-63 -217 -117 -339q10 -1 29 -1q60 0 112 10q63 167 133 303q22 42 46 42h27q18 0 18 -12q0 -11 -39 -94q-121 -254 -177 -469q-12 -45 -12 -99q0 -19 10 -37t30 -18q21 0 37 13q10 7 11 7q7 0 7 -7q0 -6 -10 -16q-25 -26 -63 -26
q-48 0 -72.5 30.5t-24.5 83.5q0 44 18.5 122.5t48.5 148.5q-50 -8 -90 -8q-13 0 -30 0.5t-18 0.5q-24 -71 -84.5 -171t-106.5 -150q-42 -46 -105 -75t-122 -29q-89 0 -154 50zM162 106q0 26 24 26q26 0 26 -26q0 -24 -26 -24q-10 0 -17 7t-7 17z" />
    <glyph glyph-name="afii10033_dot" unicode="&#xe02d;" horiz-adv-x="817" 
d="M579 768q21 0 147 -12.5t211 -12.5q62 0 109.5 8.5t68 18.5t35 18.5t18.5 8.5q9 0 9 -8q0 -12 -26.5 -29.5t-62.5 -28.5q-61 -19 -198 -26q-5 -16 -35 -121l-41 -141l-37.5 -119t-52.5 -150.5t-57 -140.5q-14 -33 -36 -33h-35q-25 0 -25 16q0 11 41 108q108 252 201 591
l-110 7q-29 -123 -98 -300.5t-134 -274.5q-164 -244 -359 -244q-35 0 -62 10q-8 3 -10 11q0 9 11 9q28 -4 42 -4q183 0 304 224q109 201 223 574q-30 6 -84 6q-125 0 -217 -60q-56 -37 -83 -89.5t-27 -105.5q0 -39 7 -62q2 -6 5 -13t4.5 -11.5t1.5 -6.5q0 -7 -5 -7
q-12 0 -25.5 33.5t-13.5 71.5q0 125 115 213q93 72 281 72zM183 103q0 26 24 26q26 0 26 -26q0 -24 -26 -24q-11 0 -17.5 6.5t-6.5 17.5z" />
    <glyph glyph-name="afii10034_dot" unicode="&#xe02e;" horiz-adv-x="650" 
d="M602 721q-90 -292 -161 -463q-84 -199 -152 -288q-89 -116 -191 -116q-38 0 -62 17q-26 18 -26 31q0 7 8 7q2 0 6.5 -3t10.5 -7.5t9 -6.5q21 -11 49 -11q92 0 189 213q24 52 67.5 159.5t62.5 162.5q65 186 109 282q-44 -16 -92 -47.5t-79 -62.5q-15 -15 -21 -15
q-5 0 -5 5q0 15 25 38q47 45 85 69q59 37 109 54q18 35 48 81.5t52 69.5q12 14 22 14q7 0 7 -7q0 -4 -4.5 -13t-12 -22.5t-11.5 -23.5q-18 -41 -33 -88q26 5 58 5q34 0 75 -10t64 -27q70 -52 70 -141q0 -71 -39 -126t-94 -84q-80 -42 -182 -42q-41 0 -41 12q0 5 38 7
q87 6 143 59q36 34 56 83.5t20 98.5q0 59 -34.5 100.5t-97.5 41.5q-21 0 -45 -6zM75 -1q0 26 24 26q26 0 26 -26q0 -24 -26 -24q-11 0 -17.5 6.5t-6.5 17.5z" />
    <glyph glyph-name="afii10035_dot" unicode="&#xe02f;" horiz-adv-x="737" 
d="M868 680q-45 51 -108 51q-101 0 -197 -88t-151.5 -211t-55.5 -231q0 -90 38 -134.5t105 -44.5q93 0 176 51l14.5 10t14 9.5t7.5 3.5q10 0 10 -9q0 -4 -12 -16q-92 -78 -212 -78q-110 0 -171 66.5t-61 186.5q0 90 40 183.5t105.5 167t156.5 120.5t185 47q54 0 89.5 -22.5
t48.5 -60.5q2 -6 2 -9q0 -6 -6 -6q-7 0 -18 14zM711 619q0 26 24 26q26 0 26 -26q0 -24 -26 -24q-11 0 -17.5 6.5t-6.5 17.5z" />
    <glyph glyph-name="afii10036_dot" unicode="&#xe030;" horiz-adv-x="1022" 
d="M108 -106q-44 0 -76 21q-12 8 -12 16q0 7 9 7q2 0 25 -8.5t44 -8.5q55 0 94.5 31.5t75.5 82.5q47 67 88 155t76.5 199t53 173l46.5 172q-121 0 -199 -30q-171 -64 -200 -239q-3 -18 -5 -40.5t-3.5 -30.5t-6.5 -8q-7 0 -11 16.5t-4 33.5q0 192 165 285q58 33 123 45
t155 12q66 0 236 -30t254 -30q51 0 92.5 6.5t66 16t41 19.5t25 16.5t11.5 6.5q10 0 10 -8q0 -11 -38.5 -37.5t-81.5 -38.5q-72 -20 -143 -20q-40 -106 -90 -296q-37 -142 -37 -235q0 -95 37 -133q13 -13 13 -16q0 -9 -15 -9q-25 0 -50 22q-56 52 -56 171q0 116 55 317
q30 111 58 187q-3 0 -114 17q-34 -151 -93.5 -353t-109.5 -320q-14 -31 -42 -31h-30q-20 0 -21 13q0 5 3 12q91 221 210 689q-61 12 -112 16q-77 -291 -164 -486q-86 -194 -181 -279q-77 -71 -172 -71zM264 524q0 26 24 26q26 0 26 -26q0 -24 -26 -24q-10 0 -17 7t-7 17z
" />
    <glyph glyph-name="afii10037_dot" unicode="&#xe031;" horiz-adv-x="710" 
d="M347 715q-7 -5 -12 -5q-7 0 -7 6q0 4 3 8q18 26 52.5 45t72.5 19q30 0 52.5 -23t22.5 -64q0 -54 -26.5 -148.5t-26.5 -105.5q0 -38 28 -38q65 0 235 249q83 121 107 141q8 6 14 6q8 0 8 -6q0 -1 -2 -5q-16 -36 -38 -103t-31 -92l-36 -96.5l-43 -115t-40.5 -96
t-44.5 -85.5q-214 -336 -510 -336q-50 0 -101 15q-14 4 -14 15q0 6 11 6l27 -5q28 -5 65 -5q119 0 230.5 80.5t197.5 232.5q73 129 136 318q-23 -35 -49 -66t-72.5 -63.5t-89.5 -32.5q-40 0 -60.5 27t-20.5 72q0 44 30.5 129t30.5 119q0 38 -28 38q-27 0 -71 -35zM204 34
q0 26 24 26q26 0 26 -26q0 -24 -26 -24q-10 0 -17 7t-7 17z" />
    <glyph glyph-name="afii10038_dot" unicode="&#xe032;" horiz-adv-x="788" 
d="M537 927q-22 0 -47.5 -5.5t-28.5 -5.5q-9 0 -9 9q0 6 8 9q42 19 93 19q11 0 50 -6.5t61 -6.5q30 0 65 7q12 3 25.5 7l21.5 6.5t12 2.5q16 0 16 -12q0 -32 -4 -66q-6 -61 -29 -171q50 36 117 36q52 0 87.5 -41t35.5 -108q0 -120 -75 -205.5t-188 -85.5q-57 0 -92 36
q-44 -107 -77.5 -170t-83.5 -122q-155 -186 -332 -186q-94 0 -144 44q-9 9 -9 15q0 7 8 7q1 0 13 -6q46 -30 116 -30q136 0 245 132q59 71 94 137t72 163q-38 -21 -78 -21q-76 0 -114.5 45t-38.5 128q0 101 79 184.5t183 83.5q60 0 88 -31q23 95 33 190q-47 0 -101 9t-72 9z
M417 438q0 -50 21 -77.5t53 -27.5q41 0 78 28q64 169 103 333q-24 31 -64 31q-56 0 -101.5 -47.5t-67.5 -112t-22 -127.5zM844 720q-39 0 -80 -39q-30 -121 -100 -316q27 -29 71 -29q74 0 128 93t54 191q0 100 -73 100zM201 25q0 26 24 26q26 0 26 -26q0 -24 -26 -24
q-11 0 -17.5 6.5t-6.5 17.5z" />
    <glyph glyph-name="afii10039_dot" unicode="&#xe033;" horiz-adv-x="842" 
d="M705 -8q-40 0 -72 23.5t-56 70.5t-39.5 90t-35.5 110q-2 7 -3 11l-33 -51.5t-46 -69.5t-49.5 -65.5t-69.5 -77.5t-80 -69q-35 -26 -79 -50t-69 -24q-13 0 -13 5t12 11q67 30 137 93t124.5 135t90.5 127.5t59 98.5q-60 294 -120 349q-25 22 -54 22q-26 0 -48 -15
q-9 -6 -10 -6q-7 0 -7 7q0 6 4 10q32 33 87 33q60 0 107.5 -42t72.5 -130q2 -6 42 -151q162 270 324 352q20 10 30 10q9 0 9 -6t-36 -31q-61 -42 -129 -120q-40 -46 -98 -127.5t-85 -134.5q40 -235 97 -316q30 -42 65 -42q23 0 38 15q4 4 8 4q5 0 5 -6q0 -9 -9 -18
q-24 -25 -71 -25zM134 93q0 26 24 26q26 0 26 -26q0 -24 -26 -24q-10 0 -17 6.5t-7 17.5z" />
    <glyph glyph-name="afii10040_dot" unicode="&#xe034;" horiz-adv-x="718" 
d="M343 -398q-86 -59 -163 -59q-60 0 -60 20q0 6 10 6q1 0 7.5 -0.5t16 -1.5t19.5 -1q25 0 57.5 15.5t58.5 39.5q19 18 40 42t36.5 44.5l46 61.5l53.5 71q90 118 134 163q-22 -9 -43 -9q-79 0 -79 112q0 98 61 253l-38 -75.5t-72 -127.5q-105 -163 -207 -163q-34 0 -55 24
t-21 64q0 29 13 79.5t28.5 95.5l46 130l47.5 136q71 209 71 294q0 64 -15 115q-3 11 -8 22.5l-8 18.5t-3 10q0 7 10 7q3 0 6.5 -2t7 -8t5.5 -10l7 -14.5t7 -15.5q19 -38 28 -96.5t9 -100.5q0 -124 -64 -316l-21 -62.5t-21 -64l-17.5 -55.5t-17 -55.5l-12 -44.5t-9 -41.5
t-2.5 -29.5q0 -38 29 -38q48 0 138 137q85 130 173 332q70 162 88 215q6 18 12.5 24.5t19.5 6.5h52q13 0 13 -11q0 -7 -14 -47q-10 -30 -68.5 -177t-92.5 -255.5t-34 -172.5q0 -65 37 -65q22 0 48 24q5 4 10.5 9.5l8.5 8.5t6.5 6t6 4.5t4.5 1.5q10 0 10 -9q0 -8 -35 -65
q-5 -8 -38.5 -67.5t-68.5 -113.5q-95 -149 -195 -219zM211 786q0 26 24 26q26 0 26 -26q0 -24 -26 -24q-11 0 -17.5 7t-6.5 17z" />
    <glyph glyph-name="afii10041_dot" unicode="&#xe035;" horiz-adv-x="611" 
d="M570 34q-1 -11 -23 -26.5t-53 -15.5q-105 0 -105 126q0 48 36 155t90 227q-32 -41 -71.5 -68.5t-73.5 -27.5q-43 0 -67 26.5t-24 70.5q0 41 23 113.5t23 96.5q0 51 -49 51q-51 0 -111 -36.5t-104 -84.5q-9 -9 -15 -9t-6 9q0 6 17 26q44 52 114 90t130 38q52 0 75 -24
t23 -71q0 -28 -22 -109.5t-22 -100.5q0 -51 34 -51q54 0 115 86t108 207q7 18 27 18h38q14 0 14 -11q0 -8 -25 -67l-75 -184t-95 -255q-37 -105 -37 -150q0 -65 48 -65q19 0 37 12t20 12q6 0 6 -8zM149 635q0 26 24 26q26 0 26 -26q0 -24 -26 -24q-11 0 -17.5 6.5t-6.5 17.5
z" />
    <glyph glyph-name="afii10042_dot" unicode="&#xe036;" horiz-adv-x="1064" 
d="M1028 61q0 -16 -37 -49q-42 -37 -92 -37q-51 0 -76 33t-25 84q0 93 44 216q-6 -11 -32 -72t-51 -101q-90 -144 -158 -144q-52 0 -73.5 29t-21.5 83q0 93 64 255q-5 -8 -21.5 -42t-40 -78t-49.5 -85q-102 -163 -202 -163q-32 0 -54.5 26.5t-22.5 76.5q0 46 21 117.5
t61.5 183t57.5 164.5l43 139t24.5 100t11.5 100q0 56 -15 116q-3 11 -7.5 23l-7.5 19.5t-3 10.5q0 7 10 7q14 0 34 -50q33 -83 33 -190q0 -132 -51 -305q-16 -55 -54 -172t-55 -180t-17 -93q0 -48 33 -48q25 0 55.5 31t78.5 103q66 98 160 332q50 123 82 217q6 18 12.5 24.5
t19.5 6.5h52q13 0 13 -11q0 -7 -14 -47q-173 -496 -173 -609q0 -59 27 -59q25 0 54 32t68 95q66 108 146 340l31.5 92l28.5 85t17 51q6 18 12.5 24.5t19.5 6.5h52q13 0 13 -11q0 -7 -14 -47q-170 -461 -170 -618q0 -64 47 -64q29 0 59 23q9 7 18.5 17.5t15 16t8.5 5.5
q10 0 10 -10zM260 877q0 26 24 26q26 0 26 -26q0 -24 -26 -24q-10 0 -17 6.5t-7 17.5z" />
    <glyph glyph-name="afii10043_dot" unicode="&#xe037;" horiz-adv-x="1022" 
d="M630 -413q-76 -39 -151 -39q-61 0 -61 21q0 6 10 6q1 0 7.5 -0.5t16 -1.5t19.5 -1q61 0 116 36q28 18 52 42t38.5 44l44 61.5t52.5 70.5l32.5 43.5l34.5 45.5l30.5 38t31.5 36q-22 -9 -43 -9q-79 0 -79 112q0 65 54 216q-6 -11 -32 -72t-51 -101q-90 -144 -158 -144
q-52 0 -73.5 29t-21.5 83q0 81 68 253q-4 -6 -39.5 -78t-69.5 -125q-105 -163 -195 -163q-36 0 -59.5 27.5t-23.5 77.5q0 41 20.5 110.5t58.5 168.5t44 118q68 201 68 304q0 59 -14 115q-3 11 -7.5 23l-7.5 19.5t-3 10.5q0 7 10 7q13 0 35 -53q36 -89 36 -192
q0 -125 -52 -295l-35 -110.5l-34.5 -108t-23 -80t-10.5 -60.5q0 -40 25 -40t57 32.5t82 104.5q14 20 28 45.5l24 45t26.5 57.5l23 54l26.5 66t26 64l54.5 140t28.5 77q7 18 13 24.5t19 6.5h54q13 0 13 -11q0 -7 -14 -47q-172 -493 -172 -609q0 -33 5 -45.5t21 -12.5
q25 0 54 31.5t68 94.5q17 27 32 57t30.5 67.5l25.5 63.5l29 76.5l28 75.5l34 92l31 85.5l18 50.5q6 18 12.5 24.5t19.5 6.5h52q13 0 13 -11q0 -7 -14 -47q-6 -19 -47 -131l-65 -182.5t-48 -163t-24 -141.5q0 -65 36 -65q22 0 48 24q5 4 10.5 9.5l8.5 8.5t6.5 6t6 4.5
t4.5 1.5q10 0 10 -9q0 -8 -35 -65q-4 -6 -38.5 -66.5t-69.5 -114.5q-57 -87 -102 -137t-109 -83zM231 748q0 26 24 26q26 0 26 -26q0 -24 -26 -24q-11 0 -17.5 7t-6.5 17z" />
    <glyph glyph-name="afii10046_dot" unicode="&#xe038;" horiz-adv-x="617" 
d="M246 498q57 131 115 217q33 49 92 112t77 63q7 0 7 -6q0 -3 -7 -10q-41 -41 -92 -126q-110 -179 -154 -454q61 73 146 73q65 0 106 -48t41 -118q0 -72 -64.5 -138.5t-157.5 -66.5q-87 0 -131 57.5t-44 146.5q0 147 66 298zM322 301q-27 -27 -42.5 -71t-15.5 -87
q0 -50 23.5 -85.5t61.5 -35.5q62 0 97.5 56t35.5 143q0 51 -23.5 82t-61.5 31q-42 0 -75 -33zM492 724q0 26 24 26q26 0 26 -26q0 -24 -26 -24q-10 0 -17 7t-7 17z" />
    <glyph glyph-name="afii10047_dot" unicode="&#xe039;" horiz-adv-x="680" 
d="M394 306q-16 1 -16 19t22 18q4 0 44 -4t61 -4q42 0 64 6q41 113 41 206q0 81 -39.5 132t-117.5 51q-103 0 -203 -79q-11 -9 -25.5 -23l-23 -22t-12.5 -8q-7 0 -7 6q0 11 23 37q115 117 253 117q124 0 183 -79.5t59 -201.5q0 -114 -52 -225t-149.5 -186.5t-213.5 -75.5
q-68 0 -126 33t-91 92q-8 16 -8 21q0 16 10 16q5 0 19.5 -19.5t34.5 -43t61 -43t92 -19.5q68 0 130.5 48.5t104.5 119.5q19 30 44 103q-16 -1 -53 -1t-109 9zM334 591q0 26 24 26q26 0 26 -26q0 -24 -26 -24q-10 0 -17 6.5t-7 17.5z" />
    <glyph glyph-name="afii10048_dot" unicode="&#xe03a;" horiz-adv-x="1177" 
d="M40 -187q-18 -3 -21 -3q-9 0 -9 6q0 3 2 5t5.5 3.5t7.5 3l10.5 4l11.5 4.5q76 34 147 106q80 82 146.5 207t104.5 246.5t57.5 199t25.5 120.5q-16 2 -45.5 10t-64.5 8q-48 0 -84 -20q-9 -5 -18.5 -11.5t-13.5 -8.5t-8 -2q-7 0 -7 7q0 9 21 24q55 41 127 41
q20 0 60.5 -6.5t58.5 -6.5q8 0 33.5 1t31.5 1q11 0 11 -13q0 -27 -12 -77q-38 -155 -82 -282h115q21 61 54.5 120t79.5 113t108 87t128 33q89 0 142.5 -66t53.5 -167q0 -127 -53.5 -242.5t-146 -186.5t-197.5 -71q-80 0 -134.5 65t-54.5 173q0 51 14 112h-118
q-47 -121 -130 -251q-67 -103 -195 -202q-43 -33 -89 -55.5t-73 -28.5zM727 211q0 -31 4.5 -59t15.5 -57.5t35 -47.5t58 -18q74 0 140.5 78.5t104.5 197t38 238.5q0 30 -4.5 56t-15.5 51t-32.5 39.5t-52.5 14.5q-59 0 -109.5 -36.5t-83 -92.5t-55.5 -124.5t-33 -129.5
t-10 -110zM88 19q0 26 24 26q26 0 26 -26q0 -24 -26 -24q-10 0 -17 6.5t-7 17.5z" />
    <glyph glyph-name="afii10049_dot" unicode="&#xe03b;" horiz-adv-x="910" 
d="M680 578q0 -68 59 -105q17 -9 39 -13q12 -2 12 -10q0 -5 -10 -10q-67 -38 -126 -80q-137 -97 -298.5 -246.5t-292.5 -312.5q-40 -51 -50 -51q-8 0 -8 10q0 28 146 228q97 134 257 283.5t266 206.5q-84 38 -84 126q0 78 68 123t169 45q94 0 171 -25q22 -7 22 -18
q0 -5 -11 -35q-132 -353 -225 -665q-9 -29 -26 -29h-54q-18 0 -18 18q0 50 156 463l99 253q-24 9 -74 9q-82 -1 -134.5 -50.5t-52.5 -114.5zM-50 -91q0 26 24 26q26 0 26 -26q0 -24 -26 -24q-10 0 -17 6.5t-7 17.5z" />
    <glyph glyph-name="b_dotless" unicode="&#xe040;" horiz-adv-x="349" 
d="M45 144q0 104 54 255.5t137 272.5q19 28 40 53t29 25q6 0 6 -4q0 -2 -15 -26q-42 -66 -65 -118q-48 -107 -75 -218q-10 -41 -21 -104t-13 -89q42 62 101 62q46 0 73.5 -28t27.5 -79q0 -58 -49 -104.5t-112 -46.5q-118 0 -118 149zM249 153q0 33 -12 53t-33 20
q-34 0 -60 -40t-26 -88q0 -83 49 -83q30 0 56 40t26 98z" />
    <glyph glyph-name="d_dotless" unicode="&#xe041;" horiz-adv-x="351" 
d="M292 -14q-27 0 -45 14.5t-34 50.5q-36 -59 -94 -59q-46 0 -75 30.5t-29 84.5q0 58 44 103t108 45q41 0 62 -30q25 130 89 296q29 75 63.5 141t56.5 97.5t33 40.5q6 5 11 5q3 0 3 -4q0 -3 -12 -23q-27 -51 -67 -158q-48 -128 -88.5 -298.5t-40.5 -265.5q0 -19 6.5 -36
t19.5 -17q6 0 12.5 3t7.5 3q3 0 3 -4q0 -6 -11 -12.5t-23 -6.5zM185 229q-38 0 -65.5 -45.5t-27.5 -97.5q0 -28 10 -48t31 -20q37 0 62.5 49t25.5 103q0 29 -10 44t-26 15z" />
    <glyph glyph-name="f_dotless" unicode="&#xe042;" horiz-adv-x="212" 
d="M37 275q26 21 70 28l58 183q-34 -15 -83 -29q-24 -6 -35 -6q-10 0 -10 10q0 6 18 11q60 18 120 50q37 101 89.5 164.5t110.5 63.5q21 0 34 -14t13 -37q0 -50 -55 -100.5t-119 -80.5q-17 -73 -57 -217q52 0 77 8q9 3 14 3q7 0 7 -7q0 -13 -20 -21q-40 -15 -85 -15
q-7 -23 -23.5 -82.5l-37.5 -130.5q-56 -187 -157.5 -392t-197.5 -308q-44 -47 -69 -68q-44 -36 -65 -36q-8 0 -8 6q0 4 21 19q47 37 115 125q87 115 180 354q98 253 158 514q-29 -2 -50 -12q-1 0 -3.5 -1.5t-5 -2t-3.5 -0.5q-9 0 -9 7q0 8 8 14zM392 699q0 28 -21 28
q-66 0 -113 -168q49 23 91.5 64t42.5 76z" />
    <glyph glyph-name="h_dotless" unicode="&#xe043;" horiz-adv-x="387" 
d="M320 809q52 57 76 57q6 0 6 -5q0 -2 -24 -26q-41 -44 -66 -93q-36 -71 -66 -164.5t-46 -165.5t-41 -199q43 43 103 43q33 0 51 -20t18 -57q0 -17 -8.5 -65t-8.5 -63q0 -28 17 -28q7 0 14.5 3.5t10.5 3.5q5 0 5 -5q0 -9 -19 -19.5t-44 -10.5q-32 0 -48 22q-13 17 -13 54
q0 23 9 66t9 49q0 35 -26 35q-42 0 -76 -50q-5 -17 -34 -157q-2 -14 -14 -14h-55q-10 0 -10 12q0 8 6 43q47 266 114 457q24 69 68.5 156.5t91.5 140.5z" />
    <glyph glyph-name="j_dotless" unicode="&#xe044;" horiz-adv-x="215" 
d="M-449 -750q-31 0 -45 8q-6 4 -6 10q0 3 5 3q2 0 16 -1t23 -1q25 0 62.5 14.5t66.5 36.5q114 88 213 286q76 151 156 442q39 143 46 177q5 25 26 25h40q7 0 11.5 -5t4.5 -11q0 -25 -23 -114q-60 -238 -153 -439q-20 -44 -47.5 -93t-72.5 -111.5t-92.5 -111t-109 -82
t-121.5 -33.5zM115 347q0 14 10 24.5t24 10.5q15 0 25.5 -10.5t10.5 -24.5q0 -15 -10.5 -25t-25.5 -10q-14 0 -24 10t-10 25z" />
    <glyph glyph-name="k_dotless" unicode="&#xe045;" horiz-adv-x="320" 
d="M196 441q-42 -145 -66 -258q78 11 157 64q59 39 102 87q7 8 16 20.5t14.5 18.5t7.5 6q5 0 5 -8t-17 -33.5t-41 -50.5q-55 -55 -92 -78q-41 -26 -88 -44q25 -110 79 -154q10 -8 10 -10q0 -8 -17 -8q-90 0 -145 143q0 -2 -29 -122q-4 -14 -15 -14h-48q-9 0 -9 7q0 1 1 10.5
t1 10.5q21 112 56.5 240t61.5 199q10 29 29.5 72t49 98.5t67.5 102t72 63.5q6 3 10 3q5 0 5 -3q0 -5 -7 -10q-44 -33 -86 -124q-49 -104 -84 -228z" />
    <glyph glyph-name="p_dotless" unicode="&#xe046;" horiz-adv-x="355" 
d="M-361 -750q-7 0 -7 8q0 3 12 11q48 30 89 75q143 156 230 418q36 103 52 184q31 153 47 278q3 26 22 26h35q14 0 14 -13q0 -14 -1 -23q33 41 88 41q50 0 77.5 -32.5t27.5 -77.5q0 -66 -39.5 -109.5t-88.5 -43.5q-62 0 -88 43q-40 -188 -109 -354q-39 -95 -119 -211.5
t-178 -186.5q-47 -33 -64 -33zM115 68q9 -23 26.5 -36t33.5 -13q34 0 53 38t19 86q0 85 -52 85q-39 0 -63 -43q-4 -37 -17 -117z" />
    <glyph glyph-name="afii10067_dotless" unicode="&#xe050;" horiz-adv-x="351" 
d="M144 428q30 53 71 106t93.5 103t115.5 81.5t123 31.5q40 0 62 -24t22 -59q0 -59 -41.5 -110t-106 -84t-136.5 -53t-139 -22q-44 -80 -71 -182q38 38 101 38q27 0 54.5 -24.5t27.5 -78.5q0 -68 -48.5 -113.5t-114.5 -45.5q-50 0 -81 36.5t-31 103.5q0 53 25.5 134
t60.5 139q-141 9 -259 61t-163 99q-9 9 -9 14q0 6 8 6q2 0 13.5 -8.5t33.5 -23.5t43 -27q82 -44 162.5 -68.5t183.5 -29.5zM605 665q0 28 -17 45t-51 17q-44 0 -100 -40.5t-99 -92.5q-78 -93 -119 -172q91 6 178.5 37t147.5 86.5t60 119.5zM110 78q0 -27 12.5 -45.5
t34.5 -18.5q40 0 65.5 48t25.5 92q0 72 -45 72q-38 0 -65.5 -44.5t-27.5 -103.5z" />
    <glyph glyph-name="afii10072_dotless" unicode="&#xe051;" horiz-adv-x="455" 
d="M292 142l-8 -10q-7 -9 -10.5 -15l-10.5 -18.5t-13 -29t-12 -36.5q-45 -162 -120 -304q-28 -53 -68 -101t-55 -48q-5 0 -5 6q0 3 7.5 11t23.5 28t31 44q41 64 72.5 142.5t47.5 150.5t22.5 108.5t9.5 65.5q-43 -87 -93 -118q-36 -23 -80 -23q-16 0 -28 4t-12 11q0 5 7 5
q1 0 9.5 -2t14.5 -2q37 0 63.5 38.5t26.5 97.5q0 43 -14.5 65t-36.5 22q-6 0 -15 -2.5t-10 -2.5q-6 0 -6 6t16 11.5t33 5.5q95 0 95 -136q26 41 40 101q1 5 3 17.5t4 17.5q2 8 14 8h33q13 0 13 -11q0 -19 -24 -128q25 45 65 85q45 45 101 47q18 0 30 -5t12 -12t-5 -7
q-2 0 -9.5 2.5t-13.5 2.5q-33 0 -58 -44.5t-25 -99.5q0 -71 42 -71q8 0 15 3q2 1 5.5 3t6.5 3t5 1q5 0 5 -5q0 -7 -11 -14q-18 -12 -41 -12q-43 0 -69 28q-25 27 -25 75q0 23 5 41z" />
    <glyph glyph-name="afii10073_dotless" unicode="&#xe052;" horiz-adv-x="251" 
d="M33 184q-9 -11 -14 -11q-6 0 -6 9q0 7 13 23t31 28q35 23 71 23q45 0 64.5 -22.5t19.5 -49.5q0 -74 -98 -116q65 -1 108.5 -45.5t43.5 -109.5q0 -120 -110 -221q-98 -91 -251 -135q-84 -23 -181 -23q-17 0 -17 9q0 8 13 10q113 10 168 28q129 41 214 134q89 98 89 206
q0 73 -39 104q-25 19 -58 19q-14 0 -32 -5t-19 -5q-9 0 -9 7q0 4 11 12l15 9q16 10 27 18.5t26 22.5t23 32.5t8 39.5q0 17 -10.5 31.5t-29.5 14.5q-38 0 -71 -37z" />
    <glyph glyph-name="afii10076_dotless" unicode="&#xe053;" horiz-adv-x="303" 
d="M187 148q16 -81 61 -126q10 -10 16 -14q9 -7 9 -10q0 -7 -14 -7q-41 0 -81 33q-22 17 -41 43.5t-24 49.5l-22 -99q-5 -18 -19 -18h-40q-12 0 -12 13q0 7 26 120q9 38 15 66.5l8 37.5q4 13 23 13h31q17 0 17 -13q0 -5 -15 -82q52 13 126.5 76t125.5 143q39 60 59 115
q6 15 10 15q7 0 7 -11q0 -8 -6 -26q-28 -89 -99.5 -175t-160.5 -144z" />
    <glyph glyph-name="afii10082_dotless" unicode="&#xe054;" horiz-adv-x="362" 
d="M-424 -680q-8 0 -8 6q0 7 11 12q61 23 96 44q87 51 158 142t115 192q62 145 94 304q10 49 17.5 97t12 81.5t4.5 35.5q3 16 25 16h25q12 0 15.5 -6.5t4.5 -22.5q34 35 90 35q43 0 73.5 -30.5t30.5 -78.5q0 -75 -47.5 -113t-97.5 -38q-49 0 -76 31q-15 -62 -24.5 -95
t-32 -93t-56.5 -133q-17 -36 -43.5 -78t-66.5 -93t-97.5 -99t-120.5 -80q-70 -36 -102 -36zM145 187q-2 -16 -10 -63t-11 -69q18 -33 53 -33q37 0 61 39.5t24 83.5q0 39 -14.5 62t-35.5 23q-42 0 -67 -43z" />
    <glyph glyph-name="afii10086_dotless" unicode="&#xe055;" horiz-adv-x="504" 
d="M-3 -437q45 72 101 215.5t81 234.5q-33 -13 -51 -13q-40 0 -67 27.5t-27 77.5q0 45 26.5 82t66.5 53q29 12 58 12q40 0 62 -28q36 90 56 125q38 73 67 112q23 33 32 33q8 0 8 -7l-12 -22q-16 -30 -32 -68q-30 -70 -55 -170q30 23 80 23q36 0 59.5 -27t23.5 -74
q0 -66 -47 -107.5t-96 -41.5q-47 0 -74 24q-90 -315 -239 -504q-41 -52 -81 -88.5t-98 -66.5q-54 -29 -97 -29q-12 0 -12 5q0 7 10 9q45 10 72 25q30 16 50 30t58.5 56t76.5 102zM356 225q-18 0 -48 -17q-8 -26 -21 -77t-22 -83q17 -27 44 -27q38 0 65 48t27 99q0 23 -12 40
t-33 17zM203 227q-23 0 -50.5 -26t-38.5 -67q-8 -27 -8 -55q0 -59 40 -59q16 0 38 14l56 169q-13 24 -37 24z" />
    <glyph glyph-name="afii10084_dotless" unicode="&#xe056;" horiz-adv-x="305" 
d="M146 250q47 0 79 2.5t47 5t20 2.5q11 0 11 -7q0 -15 -22 -23q-31 -12 -91 -14q-7 -52 -30 -138t-50 -153q-16 -41 -39 -83.5t-60.5 -98t-93.5 -108t-121 -89.5q-25 -14 -57 -26t-44 -12q-9 0 -9 6t11 12q8 3 21 8.5t21.5 9.5t23 12t31.5 20q82 56 144.5 147.5t98.5 193.5
q48 135 70 299q-68 4 -89 18q-8 5 -8 13q0 13 17 13q4 0 18.5 -2.5t41 -5t59.5 -2.5z" />
    <glyph glyph-name="f_1" unicode="&#xe060;" horiz-adv-x="174" 
d="M-338 -610q-9 0 -9 7q0 8 9 11q53 16 87 38q63 40 108 116q64 106 130 305q52 157 115 406q-29 -2 -50 -12q-1 0 -3.5 -1.5t-5 -2t-3.5 -0.5q-9 0 -9 7q0 6 8 12q30 24 70 27l31 104q-66 -28 -87 -34q-21 -7 -41 -7q-10 0 -10 10q0 6 18 11q70 19 131 52
q48 165 116.5 282t135.5 117q49 0 49 -60q0 -93 -65.5 -191t-162.5 -157l-33 -129h6q39 0 71 10q6 2 14 2q7 0 7 -7q0 -12 -24 -21q-35 -13 -81 -13q-25 -104 -82 -286q-28 -90 -48 -145.5t-63.5 -143t-98.5 -164.5q-39 -54 -106.5 -98.5t-123.5 -44.5zM428 772
q0 24 -6 35.5t-24 11.5q-39 0 -78.5 -91t-90.5 -272q87 58 143 152t56 164z" />
    <glyph glyph-name="g_1" unicode="&#xe061;" horiz-adv-x="400" 
d="M-302 -699q-81 0 -146 34q-37 19 -62.5 45t-25.5 37q0 6 5 6q4 0 17.5 -10.5l31 -24.5t28.5 -20q70 -39 157 -39q65 0 123 26t104 73.5t75.5 88t62.5 96.5q47 79 100.5 219t70.5 226q-46 -66 -123 -66q-39 0 -60.5 26t-21.5 67q0 70 50 120t111 50q56 0 86 -32
q9 27 29 27h37q15 0 15 -16q0 -22 -22 -109q-71 -288 -166 -462q-197 -362 -476 -362zM116 77q0 -53 38 -53q21 0 48 24t40 51q18 36 30 102q-20 25 -43 25q-44 0 -78.5 -47.5t-34.5 -101.5z" />
    <glyph glyph-name="h_1" unicode="&#xe062;" horiz-adv-x="399" 
d="M44 52q32 164 104 429q-22 -10 -51 -19q-51 -16 -79 -17q-13 0 -13 8q0 3 19 8q46 12 61 17q39 13 71 28q11 33 29 70.5t44.5 79t62 68t70.5 26.5q23 0 39.5 -14t16.5 -41q0 -57 -59.5 -107.5t-131.5 -84.5q-20 -60 -69 -300q16 22 44.5 38t54.5 16q33 0 52 -18.5
t19 -46.5q0 -18 -9 -75.5t-9 -70.5q0 -25 15 -25q11 0 23 9q12 10 15 10q5 0 5 -5q0 -7 -11.5 -18.5t-21.5 -16.5q-16 -8 -34 -8q-25 0 -44 17.5t-19 56.5q0 24 9 72t9 58q0 29 -28 29q-14 0 -36.5 -15.5t-41.5 -42.5q-3 -11 -32 -153q-2 -14 -14 -14h-55q-9 0 -9 10
q0 19 4 42zM369 733q-79 0 -137 -206q65 29 116 78t51 91q0 37 -30 37z" />
    <glyph glyph-name="k_1" unicode="&#xe063;" horiz-adv-x="320" 
d="M196 441q-42 -145 -66 -258q78 11 157 64q59 39 102 87q7 8 16 20.5t14.5 18.5t7.5 6q5 0 5 -8t-17 -33.5t-41 -50.5q-55 -55 -92 -78q-41 -26 -88 -44q25 -110 79 -154q10 -8 10 -10q0 -8 -17 -8q-90 0 -145 143q0 -2 -29 -122q-4 -14 -15 -14h-48q-9 0 -9 7q0 1 1 10.5
t1 10.5q21 112 56.5 240t61.5 199q10 29 29.5 72t49 98.5t67.5 102t72 63.5q6 3 10 3q5 0 5 -3q0 -5 -7 -10q-44 -33 -86 -124q-49 -104 -84 -228zM348 619q0 26 24 26q26 0 26 -26q0 -24 -26 -24q-10 0 -17 6.5t-7 17.5z" />
    <glyph glyph-name="k_2" unicode="&#xe064;" horiz-adv-x="356" 
d="M266 243q51 40 90 101l6.5 10.5t5.5 9l4 7t4 5t3 1.5q5 0 5 -8q0 -22 -28 -62q-40 -59 -89 -95q-42 -30 -81 -46q13 -55 50 -101t74 -54q16 -3 16 -7t-9 -8q-9 -3 -29 -3q-49 0 -95 35.5t-70 108.5q-3 -11 -14 -55.5t-18 -67.5q-4 -14 -14 -14h-49q-7 0 -7 7q0 20 3 26
q40 175 125 436q-12 -7 -45 -20q-13 -5 -29 -10q-8 -2 -13 -2t-5 4q0 2 1 4t4 3.5t6 2.5t8.5 3t9.5 4q54 23 73 37q105 270 203 270q46 0 46 -55q0 -53 -56.5 -112t-131.5 -100q-40 -134 -86 -316q69 13 132 61zM361 748q-65 0 -135 -228q62 33 112.5 91t50.5 100
q0 37 -28 37z" />
    <glyph glyph-name="l_1" unicode="&#xe065;" horiz-adv-x="227" 
d="M48 126q0 131 59 264q-63 -36 -128 -49t-82 -13q-16 0 -21 1q-13 2 -13 8q0 5 11.5 7t43.5 7t66 14q90 25 138 62q57 115 84 155q74 112 124 112q19 0 29.5 -9.5t10.5 -26.5q0 -34 -27 -78q-52 -83 -157 -150q-70 -187 -70 -327q0 -36 12 -56.5t33 -20.5q15 0 29 9
q4 2 9 5.5l8.5 6t4.5 2.5q6 0 6 -6q0 -10 -23 -26q-24 -17 -53 -17q-94 0 -94 126zM316 581q30 44 30 69q0 24 -17 24q-28 0 -67.5 -70t-63.5 -138q30 19 63.5 51.5t54.5 63.5zM-50 455q0 26 24 26q26 0 26 -26q0 -24 -26 -24q-10 0 -17 6.5t-7 17.5z" />
    <glyph glyph-name="p_1" unicode="&#xe066;" horiz-adv-x="345" 
d="M-285 -750q-8 0 -8 7q0 4 13 13q55 35 94 85q43 56 75 121.5t55.5 152.5t37 151t33.5 180q21 121 35 254q2 20 8 28t21 8h35q12 0 12 -12q0 -7 -2 -21q33 38 88 38q42 0 72 -30.5t30 -79.5q0 -71 -39.5 -112t-87.5 -41q-32 0 -50.5 8.5t-34.5 31.5q-25 -255 -71 -379
l-21.5 -57t-32 -70t-48.5 -86t-64 -79t-86 -76q-50 -35 -64 -35zM107 64q17 -48 60 -48q30 0 51 41.5t21 94.5q0 38 -15 57.5t-37 19.5q-35 0 -65 -41q-2 -11 -5 -33.5t-6 -51.5z" />
    <glyph glyph-name="q_1" unicode="&#xe067;" horiz-adv-x="350" 
d="M171 13q-30 -19 -59 -19q-42 0 -69.5 28.5t-27.5 74.5q0 65 50 111.5t106 46.5q63 0 86 -42q9 23 16 30t17 7h38q13 0 13 -10q0 -8 -24 -70q-2 -6 -42.5 -102.5l-70.5 -173.5t-68 -197.5t-56 -219.5q-29 -156 -29 -229q0 -26 3 -61t3 -38q0 -19 -8 -19q-4 0 -10.5 22.5
t-12 66.5t-5.5 92q0 183 40 342q40 161 110 360zM93 77q0 -26 11 -43t28 -17q13 0 24 4t21 15t16.5 19.5t15.5 28.5t13 30.5t13.5 37.5l13.5 38q-17 40 -54 40q-39 0 -70.5 -49.5t-31.5 -103.5zM123 -662q0 26 24 26q26 0 26 -26q0 -24 -26 -24q-11 0 -17.5 7t-6.5 17z" />
    <glyph glyph-name="t_1" unicode="&#xe068;" horiz-adv-x="217" 
d="M94 458q-18 6 -38 19.5t-20 25.5q0 6 5 6q3 0 7 -2t10 -5.5t9 -5.5q23 -12 38 -15q57 134 89 190q50 88 61 88q8 0 8 -9q0 -6 -21 -54q-42 -100 -77 -233q46 -13 88 -13q52 0 97.5 11t66.5 20.5t51 27.5q1 1 5 3.5t7 4t5 1.5q5 0 5 -5t-8.5 -15.5t-17.5 -16.5
q-86 -56 -204 -56q-44 0 -101 11q-54 -184 -54 -310q0 -108 60 -108q15 0 33 9q5 2 8 2q4 0 4 -4q0 -7 -12 -18q-20 -16 -50 -16q-51 0 -84.5 40t-33.5 122q0 45 16 131t48 174zM298 539q0 26 24 26q26 0 26 -26q0 -24 -26 -24q-10 0 -17 6.5t-7 17.5z" />
    <glyph glyph-name="x_1" unicode="&#xe069;" horiz-adv-x="302" 
d="M121 127q-15 55 -47 105q-12 18 -12 21q0 9 15 9q23 0 44 -11q30 -16 57 -69q27 39 56 61.5t42 22.5q8 0 8 -7q0 -3 -18 -21q-42 -42 -69 -92q16 -57 59 -115q18 -24 18 -27q0 -10 -19 -10q-36 0 -64 21q-35 25 -52 69q-20 -31 -55.5 -63t-60.5 -32q-12 0 -12 6q0 2 1 4
t3.5 4t5 3.5t6 4l6.5 4.5q47 35 88 112z" />
    <glyph glyph-name="y_1" unicode="&#xe06a;" horiz-adv-x="381" 
d="M102 -426q-95 -131 -224.5 -202.5t-255.5 -71.5q-80 0 -138 25q-13 6 -13 12q0 7 11 7q4 0 12.5 -2t20.5 -4.5t18 -3.5q34 -6 76 -6q86 0 185.5 46.5t183.5 146.5q101 120 170 267.5t90 277.5q-41 -71 -111 -71q-28 0 -48.5 18.5t-20.5 46.5q0 27 18.5 86t18.5 74
q0 20 -17 20q-16 0 -39 -19q-14 -10 -16 -10q-5 0 -5 7q0 3 8 14q28 33 78 33q25 0 43 -13t18 -38q0 -29 -19 -97q-15 -52 -15 -69q0 -23 20 -23q37 0 70 56t54 158q2 11 19 11h47q10 0 10 -12q0 -44 -30 -170q-67 -283 -219 -494z" />
    <glyph glyph-name="z_1" unicode="&#xe06b;" horiz-adv-x="369" 
d="M251 12q34 -15 67 -25q6 -2 16 -3.5t14.5 -3.5t4.5 -5q0 -9 -24 -9q-22 0 -42 5q-17 4 -53 15t-63.5 16.5t-54.5 5.5q-29 0 -56 -4l-27 -5q-13 0 -13 13q0 11 26 42l32 37.5l38.5 45.5l36.5 41t40 41q-36 9 -63 9q-28 0 -54 -8q-18 -5 -22 -5q-8 0 -8 7q0 6 19 15
q35 18 84 18q10 0 37 -2.5t35 -2.5q17 0 37 2.5t22 2.5q10 0 10 -9q0 -14 -19 -34q-50 -54 -141 -166q51 -4 121 -34z" />
    <glyph glyph-name="z_2" unicode="&#xe06c;" horiz-adv-x="315" 
d="M84 222q-1 0 -12.5 -4.5t-15.5 -4.5q-10 0 -10 9q0 6 16 15q34 18 77 18q10 0 42 -2.5t40 -2.5q13 0 35 3t26 3q11 0 11 -10q0 -11 -21 -33q-27 -29 -140 -167q48 -4 123 -33t134 -29q32 0 58 6.5t40.5 13t16.5 6.5q7 0 7 -5q0 -7 -17 -18q-48 -29 -117 -29
q-49 0 -132.5 25t-128.5 25q-29 0 -56 -4l-27 -5q-13 0 -13 13q0 11 26 42l40.5 49l54 64t47.5 50q-8 2 -18 5t-18.5 4.5t-21.5 1.5q-22 0 -46 -6z" />
    <glyph glyph-name="l_2" unicode="&#xe06d;" horiz-adv-x="228" 
d="M363 800q5 0 5 -7q0 -4 -6.5 -16t-23 -39l-28.5 -47q-30 -52 -75 -167.5t-75 -213.5q-35 -117 -35 -207q0 -36 12 -56.5t33 -20.5q15 0 29 9q4 2 9 5.5l8.5 6t4.5 2.5q6 0 6 -6q0 -10 -23 -26q-24 -17 -53 -17q-44 0 -72.5 30t-28.5 96q0 119 79 297q59 129 96 193
q41 70 82 127t56 57z" />
    <glyph glyph-name="f_2" unicode="&#xe06e;" horiz-adv-x="272" 
d="M424 800q24 0 37 -16t13 -32q0 -6 -7 -6q-5 0 -9 8q-14 24 -34 24q-26 0 -52 -36.5t-41.5 -76.5t-26.5 -81l-34 -129q15 4 55 16q33 10 38 10q10 0 10 -10q0 -11 -17 -19q-36 -16 -94 -31q-32 -136 -88 -330q-49 -167 -131 -330t-160 -255q-32 -37 -73 -71
q-44 -36 -65 -36q-8 0 -8 6q0 4 21 19q30 22 66.5 62t59.5 77q43 68 71.5 131.5t64.5 167.5q27 78 75 241t80 299q-26 -11 -60.5 -17.5t-47.5 -6.5q-14 0 -14 10t10 13q99 26 123 37q39 133 71 202q33 71 76.5 115.5t90.5 44.5z" />
    <glyph glyph-name="afii10067_1" unicode="&#xe070;" horiz-adv-x="351" 
d="M-2 300q-29 0 -29 9q0 4 5.5 5.5t18 3t18.5 2.5q50 11 81 26q23 61 59.5 127.5t84 130.5t105 105t110.5 41q34 0 50.5 -21.5t16.5 -53.5q0 -86 -100 -177.5t-248 -152.5q-18 -49 -37 -134q44 42 95 42q35 0 63.5 -23.5t28.5 -85.5q0 -61 -47.5 -106.5t-111.5 -45.5
q-58 0 -86.5 42t-28.5 98q0 84 35 185q-48 -17 -83 -17zM495 673q0 58 -49 58q-43 0 -91 -46t-78 -95q-43 -70 -98 -215q51 22 102.5 53.5t101 71t81 85.5t31.5 88zM110 82q0 -37 14.5 -54.5t37.5 -17.5q34 0 59.5 42t25.5 98q0 75 -44 75q-39 0 -66 -42t-27 -101z" />
    <glyph glyph-name="afii10069_1" unicode="&#xe071;" horiz-adv-x="346" 
d="M91 -429q-47 -64 -107 -114t-114.5 -76t-97.5 -38.5t-70 -12.5q-22 0 -22 9q0 8 12 10q44 7 51 9q71 20 131 57.5t100 78t76.5 98.5t57 101.5t44.5 103.5q11 28 36.5 118t32.5 130q-20 -26 -42 -38t-60 -12q-39 0 -68 26t-29 78q0 67 43 110t101 43q54 0 79 -43l3 32
q4 16 25 16h27q20 0 20 -15q0 -34 -16.5 -134.5t-42.5 -191.5q-24 -87 -74.5 -185.5t-95.5 -159.5zM189 228q-38 0 -63.5 -44.5t-25.5 -92.5q0 -73 46 -73q33 0 60 42q25 38 25 108q0 31 -12.5 45.5t-29.5 14.5z" />
    <glyph glyph-name="afii10070_1" unicode="&#xe072;" horiz-adv-x="331" 
d="M106 117q0 -38 22.5 -64t64.5 -26q47 0 89 42q5 5 11.5 13t10.5 12.5t7 4.5q7 0 7 -9t-8 -21q-32 -45 -84 -63q-25 -9 -56 -9q-63 0 -102 33t-39 85q0 60 44 100t103 40q39 0 59 -16t20 -39q0 -35 -37 -59t-112 -24zM198 209q0 10 -7 17.5t-17 7.5q-31 0 -48.5 -33
t-18.5 -66q38 2 64.5 24t26.5 50z" />
    <glyph glyph-name="afii10072_1" unicode="&#xe073;" horiz-adv-x="475" 
d="M311 154q-9 -10 -17 -21t-15 -23t-11.5 -21l-10.5 -22t-8.5 -19l-8 -19.5t-6.5 -16.5q-5 -12 -15 -12h-28q-9 0 -9 11q0 18 30 130q-53 -93 -101 -123q-36 -23 -80 -23q-16 0 -28 4t-12 11q0 5 7 5q1 0 9.5 -2t14.5 -2q37 0 63.5 38.5t26.5 97.5q0 43 -14.5 65t-36.5 22
q-6 0 -15 -2.5t-10 -2.5q-6 0 -6 6t16 11.5t33 5.5q48 0 71 -38.5t23 -103.5q31 46 58 111q2 4 4 11t4 10q3 8 15 8h22q13 0 13 -11q0 -29 -25 -119q36 52 73 86q48 45 101 47q18 0 30 -5t12 -12t-5 -7q-2 0 -9.5 2.5t-13.5 2.5q-33 0 -58 -44.5t-25 -99.5q0 -72 42 -72
q7 0 15 3q2 1 5.5 3t6.5 3t5 1q5 0 5 -5q0 -7 -11 -14q-17 -11 -41 -11q-43 0 -69 28q-22 23 -22 76q0 30 6 52z" />
    <glyph glyph-name="afii10073_1" unicode="&#xe074;" horiz-adv-x="248" 
d="M30 48q-11 0 -11 6t14 11q22 9 49 29q19 14 28.5 22.5t18.5 24.5t9 34q0 19 -10.5 32.5t-29.5 13.5q-33 0 -65 -35q-9 -11 -14 -11q-6 0 -6 9q0 8 10.5 22.5t27.5 26.5q35 23 71 23q43 0 61 -21.5t18 -50.5q0 -52 -67 -93q-29 -18 -62 -30q54 -25 64 -33q71 -55 71 -164
q50 23 86 23q15 0 15 -6q0 -8 -10 -9q-40 -7 -92 -32q-5 -87 -52 -175t-116 -144.5t-135 -56.5q-24 0 -38.5 18.5t-14.5 43.5q0 40 26.5 90.5t56.5 81.5q82 84 196 140q3 27 3 52q0 64 -26 107q-31 51 -76 51zM32 -427q39 48 64.5 114.5t30.5 127.5q-57 -29 -110.5 -72.5
t-86.5 -84.5q-56 -69 -56 -132q0 -45 34 -45q22 0 48 17.5t40 32.5t36 42z" />
    <glyph glyph-name="afii10074_1" unicode="&#xe075;" horiz-adv-x="414" 
d="M147 238q0 -2 -10 -26t-20.5 -61t-10.5 -69q0 -44 24 -44q37 0 68 77q9 22 38 124q3 11 17 11h48q10 0 10 -11q0 -1 -15 -64t-15 -97q0 -26 10.5 -45.5t35.5 -19.5q19 0 41 20t24 20q8 0 8 -8q0 -7 -12 -21.5t-27 -24.5q-23 -15 -49 -15q-51 0 -73.5 32t-25.5 71
q-42 -87 -109 -87q-33 0 -53.5 24.5t-20.5 65.5q0 52 16 94t29 58q7 8 20 8h41q11 0 11 -12z" />
    <glyph glyph-name="afii10075_1" unicode="&#xe076;" horiz-adv-x="416" 
d="M139 238q0 -2 -9.5 -28.5t-19 -66t-9.5 -71.5q0 -45 27 -45q34 0 70 80q8 19 16.5 46.5t15.5 54t8 31.5q4 11 17 11h46q10 0 10 -11q0 -7 -16 -68.5t-16 -90.5q0 -57 41 -57q18 0 34 8.5t25.5 17.5t12.5 9q8 0 8 -8q0 -7 -12.5 -19.5t-38 -24t-53.5 -11.5q-72 0 -85 92
q-44 -92 -112 -92q-26 0 -47.5 26.5t-21.5 65.5q0 48 9.5 86t18 53t14.5 18q6 6 16 6h40q11 0 11 -12zM214 340q32 0 64 29q28 25 48 69q5 11 11 11t6 -10q0 -31 -40 -75q-27 -32 -61 -44q-26 -9 -45 -9q-22 0 -36.5 12t-14.5 30q0 17 11 27.5t27 10.5q13 0 22.5 -9.5
t9.5 -25.5q0 -8 -2 -16z" />
    <glyph glyph-name="afii10076_1" unicode="&#xe077;" horiz-adv-x="343" 
d="M167 -13q-14 14 -35 43t-28 47l-13 -60q-5 -17 -18 -17h-40q-12 0 -12 13q0 14 22 116q12 56 25 108q4 13 23 13h31q17 0 17 -13q0 -8 -19 -97q54 14 115 54.5t105 95.5q27 33 46 73q4 11 11 11t7 -11q0 -3 -3 -15q-14 -45 -59 -97q-73 -84 -187 -133q33 -71 75 -116
q105 -112 217 -112q45 0 85 14q6 2 14 5.5t12.5 5t5.5 1.5q6 0 6 -4q0 -5 -13 -14q-52 -30 -115 -30q-62 0 -117 18q-90 29 -158 101zM238 322q0 26 24 26q26 0 26 -26q0 -24 -26 -24q-10 0 -17 7t-7 17z" />
    <glyph glyph-name="afii10077_1" unicode="&#xe078;" horiz-adv-x="264" 
d="M247 26q0 -8 -17 -19q-15 -10 -41 -10q-58 0 -58 77q0 42 19 105q-5 -7 -26 -48.5t-49 -83.5q-165 -248 -362 -248q-124 0 -183 96q-11 17 -11 27q0 11 7 11q3 0 8 -7q13 -24 32 -43q33 -33 66.5 -44.5t80.5 -11.5q119 0 240 119.5t197 291.5q5 12 24 12h31q21 0 21 -11
t-13 -69.5t-13 -109.5q0 -35 23 -35q4 0 10.5 3t8.5 3q5 0 5 -5z" />
    <glyph glyph-name="afii10078_1" unicode="&#xe079;" horiz-adv-x="454" 
d="M224 28q-22 -28 -43 -28h-19q-16 0 -16 19q0 12 8 74.5t17 100.5q-117 -220 -327 -437q-90 -94 -206.5 -160.5t-235.5 -66.5q-88 0 -139 53t-51 128q0 52 26 95q7 11 13 11q5 0 5 -5q0 -3 -6 -21q-11 -33 -11 -76q0 -70 45 -113.5t120 -43.5q184 0 379 190
q111 108 199 219t172 250q19 33 40 33h36q16 0 16 -14q0 -7 -14 -149l48 64q64 77 81 92q8 7 20 7h32q8 0 8 -11q0 -5 -13 -57q-16 -66 -16 -109q0 -48 22 -48q12 0 12 -7q0 -8 -9 -13q-13 -9 -38 -9q-30 0 -47 21.5t-17 54.5q0 42 18 100q-9 -11 -39 -53t-70 -91z" />
    <glyph glyph-name="afii10082_1" unicode="&#xe07a;" horiz-adv-x="362" 
d="M-235 -699q-8 0 -8 7q0 4 13 13q38 24 88 89q134 176 182 550q4 31 11 130.5t10 123.5q2 20 8 28t21 8h35q12 0 12 -12q0 -7 -2 -21q33 38 88 38q42 0 72 -30.5t30 -79.5q0 -71 -39.5 -112t-87.5 -41q-56 0 -80 31q-17 -174 -65 -331q-75 -241 -224 -356q-45 -35 -64 -35
zM122 64q17 -48 55 -48q30 0 51 41.5t21 94.5q0 38 -15 57.5t-37 19.5q-35 0 -65 -41q-3 -14 -5.5 -62t-4.5 -62z" />
    <glyph glyph-name="afii10084_1" unicode="&#xe07b;" horiz-adv-x="305" 
d="M146 250q47 0 79 2.5t47 5t20 2.5q11 0 11 -7q0 -15 -22 -23q-32 -12 -88 -14q-35 -179 -38 -189q-8 -27 -24 -27h-50q-15 0 -15 14q0 4 5 27q28 117 38 175q-70 5 -91 18q-8 5 -8 13q0 13 17 13q4 0 18.5 -2.5t41 -5t59.5 -2.5z" />
    <glyph glyph-name="afii10085_1" unicode="&#xe07c;" horiz-adv-x="369" 
d="M213 -222q-36 -86 -94.5 -169t-134.5 -153t-171.5 -113t-192.5 -43q-80 0 -80 21q0 9 14 9q4 0 21 -2t31 -2q88 0 173 39.5t153.5 107t123 151t91.5 176.5q51 131 86 279q-26 -44 -51.5 -64t-72.5 -20q-31 0 -50.5 25t-19.5 75q0 49 19.5 102t42.5 53h33q18 0 18 -16
q0 -5 -18.5 -65.5t-18.5 -93.5q0 -46 28 -46q45 0 87 96q7 17 19 65t12 49q4 11 19 11h42q16 0 16 -16q0 -49 -35.5 -187t-89.5 -269z" />
    <glyph glyph-name="afii10087_1" unicode="&#xe07d;" horiz-adv-x="300" 
d="M173 173q21 31 47 54t45 23q16 0 16 -6q0 -4 -12 -9q-11 -5 -30 -24q-25 -25 -51 -69q26 -76 63 -113q4 -4 8.5 -7t7.5 -3.5t5.5 -1t3.5 -1.5t1 -4q0 -7 -11.5 -11.5t-28.5 -4.5q-62 0 -102 80q-57 -99 -140 -194q-102 -116 -225 -150q-21 -7 -51 -7q-31 0 -31 10
q0 6 6 6q2 0 9 -0.5t11 -0.5q19 0 42 7q54 16 110.5 59.5t103.5 100.5q108 130 142 215q-17 56 -34 79q-9 13 -25 13q-4 0 -12 -3t-11 -3q-6 0 -6 5q0 6 9 15q22 22 56 22q21 0 34 -9q23 -14 50 -68z" />
    <glyph glyph-name="afii10087_2" unicode="&#xe07e;" horiz-adv-x="353" 
d="M213 178q32 38 54.5 56.5t48.5 18.5q10 0 17 -5t7 -10q0 -8 -13 -8q-16 0 -36 -20q-35 -35 -59 -70q30 -79 62 -111q4 -4 8.5 -7t7.5 -3.5t5.5 -1t3.5 -1.5t1 -4q0 -7 -11.5 -11.5t-28.5 -4.5q-33 0 -55.5 20t-47.5 66q-45 -54 -78 -74q-16 -10 -36 -10q-25 0 -38 12
q-11 9 -11 16q0 5 5 5q3 0 4 -1q11 -7 20 -7q21 0 43 17q40 30 70 88q-19 54 -33 73q-10 13 -22 13q-8 0 -15.5 -3t-10.5 -3q-6 0 -6 5q0 6 9 15q22 22 56 22q20 0 34 -9l7.5 -5.5t7.5 -7t6 -7.5t6 -9.5t5.5 -10t6 -11.5t6.5 -12z" />
    <glyph glyph-name="afii10097_1" unicode="&#xe07f;" horiz-adv-x="330" 
d="M156 255q45 0 72 -21q5 16 23 16h28q14 0 14 -12q0 -2 -1 -5.5l-3 -11t-4 -16.5q-21 -97 -21 -137q0 -47 21 -47q5 0 11.5 2t7.5 2q7 0 7 -6q0 -9 -14.5 -16.5t-27.5 -7.5q-29 0 -45 12q-26 19 -26 65q0 20 4 37q-23 -30 -55 -64q-122 -132 -224 -204q-80 -57 -161 -91
t-180 -34q-81 0 -138 34q-7 4 -7 12q0 4 8 4q3 0 8.5 -2l17 -6t22.5 -7q35 -11 84 -11q38 0 97 15t116 50q159 97 339 316q-27 5 -44 22.5t-17 42.5q0 31 25.5 50t62.5 19zM189 230q-26 0 -40.5 -16t-14.5 -38q0 -49 49 -49q15 0 20 1q10 57 19 88q-17 14 -33 14zM-392 -156
q0 26 24 26q26 0 26 -26q0 -24 -26 -24q-10 0 -17 7t-7 17z" />
    <glyph glyph-name="afii10097_2" unicode="&#xe080;" horiz-adv-x="326" 
d="M170 254q34 0 66 -18q6 18 23 18l27 1q14 0 14 -12q0 -3 -8 -38q-19 -87 -19 -133q0 -31 19 -58q2 -3 6 -6.5t6 -5.5t2 -5q0 -9 -19 -9q-26 0 -45 14q-7 5 -13 11.5t-9.5 15.5t-5.5 15.5t-3.5 18t-1.5 16t-0.5 17t-0.5 13.5q-32 -105 -102 -210t-143 -174
q-71 -69 -149 -113q-42 -23 -83 -37t-61 -14q-13 0 -13 8q0 2 1.5 4t5.5 3.5t8 2.5t11 3t12 4q65 20 129.5 68t111.5 107l47 61.5t41.5 60.5l32 51t29 52l22.5 43t22.5 45l18.5 38q-29 3 -51 23t-22 46q0 34 27.5 53.5t66.5 19.5zM197 228q-22 0 -38.5 -15.5t-16.5 -36.5
q0 -49 49 -49q15 0 20 1q11 64 19 91q-16 9 -33 9z" />
    <glyph glyph-name="afii10077_2" unicode="&#xe081;" horiz-adv-x="273" 
d="M14 -5q-22 0 -33 18q-10 16 -10 36q0 12 9 12q4 0 6.5 -3.5t4 -8l3.5 -10.5t4 -9q7 -11 17 -11q17 0 28 12q17 18 35 46.5t28.5 49.5l28 58.5l23.5 50.5q7 14 23 14h38q16 0 16 -12q0 -6 -2.5 -18l-7.5 -35t-9 -44q-10 -60 -10 -81q0 -35 23 -35q4 0 10.5 3t8.5 3
q5 0 5 -5q0 -7 -18 -19q-15 -10 -40 -10q-59 0 -59 77q0 24 21 102l-17.5 -36l-19 -39t-18.5 -33t-24 -35q-30 -38 -64 -38z" />
    <glyph glyph-name="afii10078_2" unicode="&#xe082;" horiz-adv-x="432" 
d="M166 0q-13 0 -16 9t-3 27q0 56 12 136q-30 -76 -80 -140q-30 -38 -65 -38q-22 0 -33 18q-10 16 -10 36q0 12 9 12q5 0 8 -5t6.5 -13.5t5.5 -12.5q7 -11 17 -11q14 0 26 12q11 11 21 23.5t20.5 29.5l17.5 28.5t18 33t15 30l15 32.5t13 28q7 14 23 14h38q16 0 16 -12
q0 -6 -1 -10q-1 -9 -5.5 -41.5t-6.5 -51.5q-3 -24 -3 -45q93 126 120 154q6 7 20 7h32q8 0 8 -11q0 -10 -10 -57q-16 -74 -16 -109q0 -48 22 -48q12 0 12 -7q0 -8 -9 -13q-13 -9 -38 -9q-30 0 -47 21.5t-17 54.5q0 42 18 100q-14 -18 -44 -60l-60 -83q-21 -29 -34 -29h-15z
" />
    <glyph glyph-name="zerooldstyle" unicode="&#xf730;" horiz-adv-x="399" 
d="M26 116q0 75 62 129.5t147 54.5q54 0 92 -33.5t38 -91.5q0 -62 -56.5 -121.5t-152.5 -59.5q-51 0 -90.5 34t-39.5 88zM231 281q-60 0 -97 -64t-37 -118q0 -84 61 -84q54 0 94 62.5t40 127.5q0 76 -61 76z" />
    <glyph glyph-name="oneoldstyle" unicode="&#xf731;" horiz-adv-x="411" 
d="M289 -11q-30 9 -107 9q-27 0 -58 -7t-51.5 -14t-24.5 -7q-15 0 -15 11t15 17q2 1 17 6.5t26.5 9t32.5 8.5t41 8l43.5 96l39.5 88q-26 -21 -91 -52q-57 -27 -70 -27q-15 0 -15 7q0 12 21 20q83 33 212 120q8 6 24 19.5t28 22.5t17 9q12 0 12 -7q0 -11 -6 -17
q-3 -5 -15 -29l-23 -45.5t-15 -30.5q-54 -123 -75 -181q36 -3 55 -13q6 -2 6 -8q0 -14 -15 -14q-6 0 -9 1z" />
    <glyph glyph-name="twooldstyle" unicode="&#xf732;" horiz-adv-x="366" 
d="M42 -9q-9 0 -9 9q0 20 36 56q24 24 45 39t48.5 29.5t34.5 18.5q53 32 53 73q0 24 -15.5 36.5t-37.5 12.5q-36 0 -78 -26q-17 -10 -18 -10q-7 0 -7 8q0 10 18 24t39 23q37 15 76 15q47 0 78 -24q30 -24 30 -59q0 -24 -13.5 -42t-44.5 -40q-19 -13 -83.5 -33.5t-89.5 -46.5
q14 2 21 2q53 0 113 -48q20 -16 42 -16q8 0 19.5 2.5t13.5 2.5q7 0 7 -7q0 -9 -17.5 -15.5t-29.5 -6.5q-35 0 -78 18.5t-71 18.5q-32 0 -55 -7t-27 -7z" />
    <glyph glyph-name="threeoldstyle" unicode="&#xf733;" horiz-adv-x="368" 
d="M-182 -431q11 2 58 5.5t104 19.5q117 33 192 123t75 177q0 82 -44 125t-104 43q-8 0 -18 0.5t-17 0.5q-9 0 -9 7q0 1 2 7q2 2 35 8q58 11 99 44t41 77q0 31 -16.5 46t-43.5 15q-10 0 -21 -3.5t-18 -7t-18 -10.5t-13 -8q-10 1 -10 9q0 5 24 25q41 28 97 28
q40 0 67.5 -22.5t27.5 -55.5q0 -97 -155 -140q81 -14 129.5 -63t48.5 -129q0 -71 -54.5 -141t-136.5 -118t-170 -67q-62 -14 -141 -14q-22 0 -22 11q0 5 11 8z" />
    <glyph glyph-name="fouroldstyle" unicode="&#xf734;" horiz-adv-x="429" 
d="M24 28q68 59 150 145q28 30 72 84t68 90q15 23 22 29.5t15 6.5q9 0 9 -14q0 -19 -82 -151q-32 -52 -74.5 -107t-70.5 -83q25 1 80 8.5t70 14.5q17 40 53 108q9 19 29 19h25q21 0 21 -11q0 -8 -4 -13q-27 -61 -60 -157q-15 -42 -27 -83t-13 -45q-6 -19 -17 -19h-55
q-13 2 -13 14q0 18 15.5 66.5t34.5 90.5q-97 -21 -223 -21q-34 0 -34 13q0 9 9 15z" />
    <glyph glyph-name="fiveoldstyle" unicode="&#xf735;" horiz-adv-x="455" 
d="M-170 -448q-25 0 -57 5t-32 17q0 8 6 8q3 0 29 -4t49 -4q96 0 190 58.5t153 150.5t59 184q0 57 -35.5 94t-95.5 37q-9 0 -25.5 -1t-21.5 -1t-5 5q0 4 22 35q53 74 86 146q5 13 9.5 16.5t14.5 3.5q4 0 40 -3.5t57 -3.5q56 0 112 14q30 8 33 8q10 0 12.5 -1.5t2.5 -8.5
q0 -13 -33 -24q-59 -18 -175 -21q-9 -22 -37 -69.5t-48 -72.5q83 -10 126 -55t43 -118q0 -97 -68.5 -189t-180.5 -149t-230 -57z" />
    <glyph glyph-name="sixoldstyle" unicode="&#xf736;" horiz-adv-x="410" 
d="M16 161q0 108 103 231.5t250 185.5q24 11 60 22.5t47 11.5q15 0 15 -7q0 -8 -37 -22q-7 -3 -10 -4q-117 -45 -204 -130.5t-128 -200.5q32 27 60 40.5t66 13.5q62 0 102.5 -33.5t40.5 -93.5q0 -76 -63 -131t-145 -55q-80 0 -118.5 45.5t-38.5 126.5zM93 115
q0 -39 17.5 -68.5t56.5 -29.5q56 0 93 53t37 119q0 12 -3 25t-10.5 27.5t-24 24t-39.5 9.5q-60 0 -93.5 -50.5t-33.5 -109.5z" />
    <glyph glyph-name="sevenoldstyle" unicode="&#xf737;" horiz-adv-x="457" 
d="M-34 -333q0 49 117 233t245 326q-40 -4 -49 -4q-41 0 -83 23t-57 23q-17 0 -31 -7q-31 -17 -54 -46q-10 -13 -18 -13q-9 0 -9 11q0 20 26.5 50.5t47.5 38.5q29 12 46 12q13 0 53.5 -15t99.5 -15q40 0 72 8t38 8q16 0 16 -13q0 -5 -22 -31q-90 -99 -139 -175
q-142 -222 -210 -402q-11 -29 -43 -29q-46 0 -46 17z" />
    <glyph glyph-name="eightoldstyle" unicode="&#xf738;" horiz-adv-x="464" 
d="M35 150q0 140 245 259q-24 47 -24 88q0 51 39.5 83t96.5 32q28 0 52.5 -15.5t24.5 -47.5q0 -71 -127 -136q75 -101 75 -196q0 -85 -63.5 -151t-158.5 -66q-68 0 -114 40t-46 110zM110 123q-1 -48 25 -76.5t64 -28.5q69 0 106 61.5t37 134.5q0 36 -16 88.5t-36 84.5
q-92 -49 -135 -119.5t-45 -144.5zM393 594q-41 0 -63.5 -26.5t-22.5 -62.5q0 -35 21 -67q44 19 72 51.5t28 68.5q0 15 -11 25.5t-24 10.5z" />
    <glyph glyph-name="nineoldstyle" unicode="&#xf739;" horiz-adv-x="429" 
d="M289 49q-54 -49 -134 -49q-57 0 -90 34.5t-33 86.5q0 70 62 124.5t158 54.5q60 0 101 -42.5t41 -120.5q0 -113 -80.5 -235.5t-192.5 -214.5q-58 -48 -147.5 -91t-139.5 -43q-8 0 -8 8q0 7 7 8q49 10 132.5 60.5t135.5 102.5q61 61 118.5 161.5t69.5 155.5zM116 119
q0 -38 17 -64.5t48 -26.5q57 0 95 50.5t38 113.5q0 35 -17 58t-50 23q-53 0 -92 -49.5t-39 -104.5z" />
    <glyph glyph-name="currency_1" horiz-adv-x="550" 
d="M301 445q33 0 64 -15q31 20 79 60q31 27 37 27q9 0 9 -9q0 -17 -30 -53.5t-54 -54.5q32 -35 32 -93q0 -69 -53 -117q17 -26 48 -59q6 -6 16 -13.5t15 -12.5t5 -10q0 -11 -11 -11q-37 0 -81 37q-19 16 -40 40q-35 -16 -77 -16q-36 0 -70 13q-18 -10 -74 -64
q-35 -35 -48 -35q-8 0 -8 11q0 13 18 38q31 48 72 76q-36 39 -36 105q0 68 54 116q-22 23 -45 58t-23 49q0 13 10 13q11 0 32 -23q42 -45 71 -69q29 12 88 12zM163 288q0 -45 26 -79t69 -34q55 0 91.5 34t36.5 93q0 51 -26.5 80t-69.5 29q-51 0 -89 -34t-38 -89z" />
    <glyph glyph-name="dot_1" horiz-adv-x="225" 
d="M88 299q0 26 24 26q26 0 26 -26q0 -24 -26 -24q-10 0 -17 6.5t-7 17.5z" />
    </font>
</defs>
</svg>
